<?xml version="1.0" encoding="UTF-8"?>
<svg id="Layer_1" xmlns="http://www.w3.org/2000/svg" version="1.1" viewBox="0 0 500 500">
  <!-- Generator: Adobe Illustrator 29.0.0, SVG Export Plug-In . SVG Version: 2.1.0 Build 186)  -->
  <defs>
    <style>
      .st0 {
        fill: #fff;
      }
    </style>
  </defs>
  <path class="st0" d="M448.5,250.8h45.4c.5,0,2.9,1.3,3.5,1.7,2.3,2,3.3,5.9,1.9,8.8l-58.2,94.9c-3.5,7.3-13.3,6.3-14.7-1.9l6.9-59.3h-44.8c-4.1,0-7.8-7.1-5.2-10.7l59.6-96.9c4.5-5.2,12.3-2.4,13.1,4.1l-7.6,59.3h.1ZM479.2,265.7h-40.3c-2.7,0-6.3-3.9-6.4-6.7.8-10.7,3-21.2,4-31.9,0-.4.4-1.2-.2-1.1l-33.2,54.3h39.2c1,0,3.3,1.3,4.2,2.1,2.5,2.3,2.4,4.6,2.2,7.8-.5,9.2-2.8,19-3.4,28.3s-.2,1.5.2,1.9l33.7-54.6h0Z"/>
  <path class="st0" d="M429.3,297.5h-13.8c-5.1,7-12.7,12.5-23.3,15.1-56.2,13.7-70.1-73-16.8-80.3,13.1-1.8,23.7,1.5,31.6,7.6l10.8-17.5c-2.3-1.7-4.8-3.3-7.2-4.6l-.8-1.6,11-36.4c2.1-1.3,20.6,1,25.7-.5,8.6-2.7,8.9-17.5-.6-19.8h-65.2c-6.5,1.8-10.1,8.6-6.8,15,.6,1.2,4.9,5.2,5.9,5.2h18.9l-8.7,31.3-15.6.9c-28.2-25.3-60.2-42.7-97.8-49.4-11.3-2-33-5-43.8-3-2.4.4-6.9,4.7-6.9,6.9v52.9h-73.1c-.6,0-8.8-4.5-11.3-5.3-15.4-4.8-31.3-3.7-45.9,3.2-3.8,1.8-7.5,5.3-10.7,6.8-4,1.9-10.2,2.8-14.7,4.6-25.2,10.3-47.5,27.5-63.6,49.5-4,5.5-9,10.5-5,17.7,2.1,3.8,5.5,4.8,9.5,5.2,17.8,1.7,37.9-1.4,56,.1,21,38,74.3,45.5,102.7,11.4,2.1-2.6,6.7-11.1,8.7-11.5h148.8c23.3,41.6,73.9,41.8,100.1,14.2l2.1-17.7h-.2ZM61,279.9h-28.5c8.4-10.2,18.9-18.3,30.3-24.8-2.1,8.2-2,16.4-1.8,24.8ZM120.4,313.9c-49.7-2.5-51-75.4-5.3-81.6,62.2-8.4,62.7,84.4,5.3,81.6ZM321.3,279.9h-137.9c2.8-13.6-1.8-27.7-8.3-39.5h63c1.5,0,7.8-5.2,7.8-6.9v-52.9c31.5,0,63.3,10.5,89.5,27.8,5.2,3.4,9.9,7.9,15.3,10.9-20,12.9-33.7,36.5-29.4,60.7h0Z"/>
</svg>