<?xml version="1.0" encoding="UTF-8"?>
<svg id="Layer_1" xmlns="http://www.w3.org/2000/svg" version="1.1" viewBox="0 0 500 500">
  <!-- Generator: Adobe Illustrator 29.0.0, SVG Export Plug-In . SVG Version: 2.1.0 Build 186)  -->
  <defs>
    <style>
      .st0 {
        fill: #fff;
      }
    </style>
  </defs>
  <path class="st0" d="M380.1,179.3h17.9l-6.9,22.6c1.1-.3,2.2-.5,3.3-.6,6.3-.5,12.8-.5,19.3-.3l6.4-21.6c2.2-1.4,20.5,1.2,26.1-1,8.9-3.5,7.8-17.8-2-19.3h-64.2c-7,1.7-10.5,9.9-6,16,.7,1,5.3,4.1,6,4.1Z"/>
  <g>
    <path class="st0" d="M372.1,340.7c-1.7-.7-3.1-1.8-3.4-3.7s-.4-11.2,0-13.9c.4-4.2,5.6-4.4,8.2-6.4s.4-.3.4-.6v-97.2c.7-8.6,7.8-15.4,16.3-16,17.5-1.3,36.5,1,54.2,0,8.3.7,14.9,7.2,15.7,15.5v28.1c9.1,1.8,16.7,10.6,17.3,19.8.8,11.8-.6,24.5,0,36.3,1.2,4.9,7.7,4.7,8.6-.2v-52.5s-.3-.5-.3-.5c-4.9-2.4-9.4-8-7.8-13.6-2.3-1.2-8.3-3.1-8.8-5.9s1.9-6.2,5.3-5.3c5.5,3,12.2,5.4,17.5,8.6s2.5,1.9,2.7,4c-.2,22.5.4,45.1-.4,67.5-3.4,14.3-24.1,13-25.5-1.8s.9-24.5,0-36.1-4-9.7-8.6-11.4v61c2.4,1.9,8,2.8,8.6,6.3s.4,11.9,0,14.5-1.6,2.9-3.2,3.7h-96.8ZM463.4,325.9c-3-1.7-8.2-2.5-8.6-6.6v-99.6c-.3-4.5-3.2-7.6-7.7-8.2-17.2.9-35.5-1.2-52.6,0-4.7.3-8.1,3.2-8.7,8v100.1c-.5,3.7-5.8,4.8-8.6,6.4v6.2h86.2v-6.2Z"/>
    <path class="st0" d="M397.9,224.4h45.3c1.9.7,2.9,2.2,3,4.1,1,11.1-.8,23.5,0,34.8,0,2.2-1.9,4.1-4.2,4.2l-44.6-.2c-1.6-.5-2.9-2-3-3.7v-35.3c.2-1.9,1.6-3.4,3.4-3.8ZM437.6,233h-34.5v25.8h34.5v-25.8Z"/>
  </g>
  <path class="st0" d="M419.6,257.4h16.9v-12.9c-1.9-3.7-4.2-7.3-6.8-10.5h-25.7v3.6c7.5,4.7,12.7,11.8,15.6,19.8Z"/>
  <g>
    <path class="st0" d="M367.6,321.6c.4-4.2,5.6-4.4,8.2-6.4.2-.2.4-.3.4-.6v-1.2c-44.9-4.6-47.1-75.3-2.3-81.4.8-.1,1.5-.2,2.2-.3v-14.3c.2-2.2.8-4.3,1.7-6.2-1.6.3-3,.5-4.1.3-1.3-.2-17.3-14.1-20.4-16.4-23.2-16.9-49.9-28-78.2-33-10.4-1.8-33.1-5-42.7-2.9-2,.4-7.1,5.1-7.1,6.7v52.4l-1.4,1.4h-69.8c-1.1,0-15.6-7-21.4-8-24.4-4.3-29.6,3.6-48.9,12.1-3.4,1.5-7.6,1.9-11.3,3.4-22.2,9.2-39.5,20-55.8,37.9-2.9,3.2-15.6,18.4-16.3,21.3-2.1,8.8,2.9,13.4,11.3,14.1,17.6,1.5,37.2-1.4,55,.1,1.3.4,8.1,11.3,10.3,13.6,24.6,26.5,67.8,25.8,91.4-1.4,2.2-2.5,7.9-12.1,9.6-12.4h147.9c2,.4,6.6,9,8.7,11.5,8.8,10.5,20.4,17.2,32.7,20.1-.1-3.6,0-8.7.2-10.6ZM60.9,279.5h-28.5c8.5-10,18.6-18.7,30.3-24.8-1.6,8.2-2.3,16.4-1.8,24.8ZM126.5,313.4c-53.9,5.2-60.8-74.8-11.6-81.4,58.4-7.9,64.3,76.3,11.6,81.4ZM320.9,279.5h-137.8c2-9.9-.3-21.9-4.2-31.2-1.2-2.9-3.3-5.3-4.1-8.3h62.9c2,0,7.8-5.8,7.8-7.8v-52.8c27.1,1.7,53.1,7.9,76.9,21,9.8,5.4,18.6,12.3,27.9,18.5-19.9,13.1-33.4,36.3-29.4,60.6Z"/>
    <path class="st0" d="M393.4,226.8c.2-1.9,1.6-3.4,3.4-3.8h21.5c-2.9-2.1-6-4-9.4-5.6l1.7-5.7c-5.1,0-10.2,0-15.1.4-4.7.3-8.1,3.2-8.7,8v11.8c2.3.2,4.5.7,6.6,1.2v-6.1Z"/>
  </g>
</svg>