<?xml version="1.0" encoding="UTF-8"?>
<svg id="Layer_1" xmlns="http://www.w3.org/2000/svg" version="1.1" viewBox="0 0 500 500">
  <!-- Generator: Adobe Illustrator 29.0.0, SVG Export Plug-In . SVG Version: 2.1.0 Build 186)  -->
  <defs>
    <style>
      .st0 {
        fill: #fff;
      }
    </style>
  </defs>
  <path class="st0" d="M264.3.5l16.7,1.6c110.3,13.3,199.5,99.9,216.2,209.7l2.7,24.4c-.3,9.2.5,18.7,0,27.9-5.5,110.1-87.5,205.8-194.7,229.4C130.7,531.9-26.3,381.6,5,205.6,25,93.3,122.4,5.9,236.9.5h27.4ZM436.5,162.2c11.2-.2,22.9-3.1,32.6-8.8,1.1-.7,6.1-3.6,6-4.7,0-.6-4.1-8.8-4.8-10.2C424.5,46.6,323.7-6.5,221.7,5.2,136.6,14.9,60,71.1,26,149.5c11.1,8.2,24.9,12.6,38.7,12.7,16.7-35.4,43.5-65.7,76.6-86.5,66.7-41.9,152.2-41.8,218.8.2,33,20.8,59.7,51,76.3,86.3h0ZM432.2,162.3c-24.3-50.1-69.1-89-122.5-105.2-80.2-24.4-166.9,3.1-218.1,68.8-8.6,11.1-16.5,23.4-22.2,36.2,12.5,1,25,.8,37.5.8,15.1,0,31.8-2.5,46.2,3.3,13.1,5.3,15.7,14.3,22.1,25.4,22.8,39.5,45.4,79.2,68.7,118.4,2.1,3.6,4.1,7.3,6.8,10.5,22.5-39.8,46-79,68.8-118.6,11.2-19.4,14.6-35.3,40.1-39,11-1.6,22.9-.1,34-.1,12.9,0,25.7-.1,38.5-.5h0ZM55.9,182.5c-3.3-1.4-6.8-3.4-9.7-5.5-9.2-6.8-14.9-16.8-21.2-26.1C-11.1,233.7,1.3,330.7,56.8,401.6c81.7,104.2,231.9,125.4,339.2,46.8,86.5-63.4,122.4-176.3,87.4-278.6-1.5-4.5-4.8-14.5-7.1-18.2-.3-.5,0-.9-1.2-.7-5,9.8-12.3,20.5-21.5,26.8-2.7,1.9-5.7,3.2-8.4,5.1,3.8,13.3,7.4,26.6,9.2,40.3,17.9,141.9-108.6,258.1-248.6,227.5-110.8-24.2-180.2-134.9-155.7-245.9,1.6-7.5,4.2-14.8,5.9-22.2h0ZM181.6,223.8c.6-.6-6.8-12.9-7.7-14.3-9.3-15.7-11.7-18.8-30.8-20.3-22-1.8-44.6-.1-66.7-1.6-5.6-.4-11.1-1.9-16.5-3.1-.8,2.9-6.5,18.4-5.4,20.1.2.3,5.4,2.9,6.3,3.3,18,8.4,44.3,7.1,64.2,8.2,13.3.7,36.1,0,47.9,3.8,3.1,1,5.8,2.7,8.7,4h0ZM441.5,184.5c-5.8,1-11.4,2.7-17.3,3.1-18.5,1.1-37.3.2-55.8,1-11.7.5-27.1,0-34.9,10.1l-14.5,24.8c6.2-2.7,12.4-5.4,19.4-5.9,23.9-1.8,48.4-1.2,72.3-3.1,9.1-.7,18.5-2.1,27-5.6,1.5-.6,8.6-4,8.9-5.1.7-2.7-4.9-15.6-5.1-19.3h0ZM49.3,239.3v21.2c1.5,47.9,23.3,95.7,56.3,129.8,1.6,1.6,3,3.1,4.6,4.7,16.6,15.9,50,39.9,72.4,45,.4.6,1,.4,1.5.5.2,0,.3,0,.5,0,.2.6.7.4,1,.5.1,0,.4,0,.5,0,0,0,.5.3,1,.5.2,0,.4,0,.5,0,.1,0,.4.3,1,.5.1,0,.4,0,.5,0,.2,0,.8.8,1.5,1,16.5,5.1,34.5,8,51.7,8.3.5.9,2,.5,2.8.5,4.2,0,8.5.2,12.7,0,17.8-.7,35.2-4.2,52.2-9.3.4-.1.8-.3,1.5-.5.2,0,.4,0,.5,0,.6-.2,1-.5,1-.5.2,0,.4,0,.5,0,.6-.2,1-.5,1-.5.1,0,.4,0,.5,0,.5-.2.9-.5,1-.5.1,0,.4,0,.5,0,.5-.2,1-.3,1.5-.5,77.6-29.1,127.5-96.4,133.3-179.4.4-6.1.6-12.1.5-18.4,0-.9.3-2.3-.5-2.8-.4-10.8-2.2-21.6-4.4-32.1-10.5,14.6-19.8,26.9-38.5,30.8-20.8,4.4-44.6,3.2-65.9,5.4-26.9,2.7-37.1,11.4-52.4,32.4-12.6,17.3-23.4,36.2-34.2,54.7l.4,1.6,41,70.1c3.1,5.6-4.2,10.1-7.8,4.7l-39.6-66.3c-1-.2-.6.3-.9.7-13.5,21.9-26.2,44.3-39.7,66.3-3.9,4.3-9.9-.6-7-5.5l41.5-71.5c-11.2-18.6-22.3-38.3-35.1-55.8-13.3-18.2-23.4-27.7-46.7-30.8-23.3-3.1-48.1-1.3-70.6-5.9-17.7-3.6-29.1-16.1-38.1-30.9-.8,0-.8,1.3-1,1.9-2.3,9.3-3.4,20.6-3.7,30.2h0Z"/>
  <path class="st0" d="M49.3,260.5v-21.2c-.2,6.9-.2,14.3,0,21.2Z"/>
  <path class="st0" d="M451.9,260.5c-.2-7,.3-14.2,0-21.2.9.5.5,2,.5,2.8,0,6.2,0,12.3-.5,18.4Z"/>
  <path class="st0" d="M110.3,394.9c-1.6-1.5-3.1-3-4.6-4.7,1.5.8,3.9,3.1,4.6,4.7Z"/>
  <path class="st0" d="M311.8,442c-.7.2-1.2.4-1.5.5l1.5-.5Z"/>
  <path class="st0" d="M318.5,439.9c-.6.2-1.1.3-1.5.5l1.5-.5Z"/>
  <path class="st0" d="M185.7,440.9c-.4-.1-.9,0-1-.5.4,0,.9,0,1,.5Z"/>
  <path class="st0" d="M316.5,440.4c-.1,0-.5.3-1,.5l1-.5Z"/>
  <path class="st0" d="M187.3,441.4c-.6-.2-1-.5-1-.5l1,.5Z"/>
  <path class="st0" d="M314.9,440.9c0,0-.5.3-1,.5l1-.5Z"/>
  <path class="st0" d="M188.8,442c-.6-.2-.9-.5-1-.5l1,.5Z"/>
  <path class="st0" d="M313.4,441.4s-.4.3-1,.5l1-.5Z"/>
  <path class="st0" d="M424,252.2c.8.7-6.8,10.9-7.8,12.1-12.1,15-21,23.3-41.1,25.1-24.3,2.2-49.4,0-73.2,6.9-10.1,2.9-19,8.6-28.8,12.3-.2-1,.5-1.2,1-1.8,6.3-7.7,28.6-28,37.1-32.7,14.1-8,43.1-7,59.8-8.4,10.3-.9,24.4-1.4,34-4.8,6.5-2.3,12.4-6.7,19-8.7h0Z"/>
  <path class="st0" d="M228.1,308.6c-9-2.9-17.1-8.4-26.1-11.4-24.4-8-51.4-5.4-76.5-7.7-20.7-1.9-32.5-13.1-44.1-29.3-.6-.8-5.1-7.6-4.7-7.9,6.3,1.9,11.8,5.9,17.9,8.1,23.1,8.4,57.6,4.2,82.4,9.1,18.3,3.6,36.3,24.9,50,37.4.6.5,1.3.8,1.1,1.8h0Z"/>
</svg>