<?xml version="1.0" encoding="UTF-8"?>
<svg id="Layer_1" xmlns="http://www.w3.org/2000/svg" version="1.1" viewBox="0 0 500 500">
  <!-- Generator: Adobe Illustrator 29.0.0, SVG Export Plug-In . SVG Version: 2.1.0 Build 186)  -->
  <defs>
    <style>
      .st0 {
        fill: #e54e28;
      }

      .st1 {
        fill: #fffefe;
      }

      .st2 {
        fill: #1b2737;
      }
    </style>
  </defs>
  <path class="st0" d="M264.14.17l16.74,1.62c110.39,13.32,199.64,99.95,216.32,209.85l2.75,24.41c-.34,9.24.46,18.72,0,27.93-5.46,110.19-87.57,205.91-194.86,229.51C130.47,531.88-26.59,381.53,4.71,205.43,24.69,93.02,122.2,5.62,236.73.17h27.41ZM436.42,161.99c11.21-.21,22.95-3.08,32.65-8.81,1.14-.67,6.07-3.65,5.97-4.72-.06-.64-4.14-8.81-4.82-10.19C424.47,46.36,323.64-6.77,221.54,4.89,136.41,14.61,59.74,70.86,25.7,149.33c11.1,8.24,24.89,12.57,38.74,12.66,16.67-35.44,43.51-65.7,76.66-86.51,66.78-41.93,152.27-41.83,218.97.2,33.01,20.8,59.72,50.98,76.35,86.31ZM432.2,162.07c-24.32-50.1-69.15-89.01-122.56-105.26-80.28-24.43-166.99,3.07-218.2,68.82-8.64,11.09-16.52,23.41-22.26,36.18,12.47.96,24.99.83,37.52.8,15.11-.03,31.86-2.51,46.25,3.35,13.15,5.35,15.7,14.27,22.16,25.43,22.85,39.51,45.47,79.23,68.78,118.45,2.11,3.56,4.13,7.35,6.81,10.51,22.52-39.79,45.98-79.05,68.87-118.62,11.25-19.44,14.62-35.32,40.13-39,11.05-1.6,22.88-.14,33.97-.12,12.89.03,25.71-.11,38.55-.54ZM55.68,182.31c-3.33-1.37-6.82-3.39-9.72-5.54-9.16-6.81-14.93-16.82-21.24-26.08C-11.45,233.56.99,330.62,56.57,401.52c81.71,104.24,232.04,125.49,339.38,46.81,86.55-63.44,122.51-176.42,87.46-278.76-1.55-4.53-4.81-14.52-7.12-18.21-.33-.53.03-.91-1.16-.66-5.03,9.84-12.35,20.48-21.56,26.8-2.74,1.88-5.69,3.19-8.38,5.1,3.81,13.26,7.45,26.59,9.18,40.33,17.91,142.03-108.69,258.22-248.76,227.62-110.89-24.23-180.3-135-155.82-246.06,1.65-7.49,4.21-14.79,5.89-22.17ZM181.4,223.63c.57-.58-6.81-12.87-7.67-14.31-9.3-15.66-11.7-18.8-30.86-20.34-22-1.77-44.63-.14-66.7-1.56-5.6-.36-11.07-1.9-16.52-3.13-.78,2.95-6.48,18.4-5.38,20.13.19.3,5.44,2.88,6.29,3.27,17.97,8.39,44.36,7.14,64.21,8.19,13.26.7,36.17-.09,47.95,3.77,3.06,1,5.78,2.67,8.68,3.99ZM441.49,184.34c-5.78.96-11.41,2.71-17.31,3.08-18.5,1.15-37.34.17-55.87,1.02-11.68.53-27.09.06-34.88,10.11l-14.47,24.83c6.25-2.75,12.44-5.43,19.39-5.95,23.88-1.78,48.43-1.23,72.38-3.12,9.14-.72,18.49-2.08,26.99-5.59,1.49-.62,8.61-4,8.88-5.1.67-2.71-4.86-15.59-5.12-19.28ZM49.02,239.15v21.21c1.5,47.88,23.35,95.71,56.37,129.83,1.56,1.61,3.04,3.1,4.65,4.66,16.56,15.94,49.99,39.95,72.4,45,.43.59.99.42,1.55.52.17.03.35-.02.52,0,.16.57.68.39,1.03.52.15.05.36-.05.52,0,.06.02.48.33,1.03.52.16.05.37-.06.52,0,.13.05.44.32,1.03.52.15.05.36-.05.52,0,.19.06.79.8,1.55,1.03,16.53,5.11,34.56,8.03,51.71,8.28.54.86,1.96.52,2.84.53,4.18.04,8.51.16,12.68,0,17.83-.73,35.23-4.21,52.23-9.31.36-.11.83-.29,1.55-.52.16-.05.36.05.52,0,.59-.19.98-.5,1.03-.52.16-.05.36.05.52,0,.57-.19.96-.49,1.03-.52.15-.05.36.05.52,0,.55-.19.93-.48,1.03-.52.15-.05.36.06.52,0,.47-.17.96-.29,1.55-.52,77.66-29.13,127.57-96.5,133.42-179.49.43-6.08.6-12.15.53-18.37-.01-.87.33-2.3-.53-2.84-.44-10.76-2.18-21.57-4.39-32.07-10.47,14.63-19.85,26.89-38.51,30.79-20.86,4.36-44.65,3.24-65.95,5.42-26.93,2.75-37.11,11.37-52.4,32.42-12.58,17.33-23.46,36.27-34.22,54.78l.39,1.62,41.06,70.15c3.12,5.58-4.18,10.06-7.76,4.66l-39.65-66.38c-1.05-.22-.63.26-.88.66-13.5,21.94-26.23,44.37-39.7,66.33-3.86,4.35-9.94-.64-7.01-5.47l41.56-71.53c-11.25-18.62-22.33-38.3-35.16-55.86-13.3-18.19-23.43-27.7-46.77-30.81s-48.13-1.32-70.63-5.91c-17.7-3.61-29.12-16.14-38.17-30.88-.81-.07-.81,1.29-.96,1.87-2.35,9.29-3.4,20.63-3.69,30.19Z"/>
  <path class="st1" d="M49.02,239.15c.29-9.56,1.34-20.9,3.69-30.19.15-.58.14-1.94.96-1.87,9.05,14.74,20.46,27.27,38.17,30.88,22.49,4.59,47.8,2.87,70.63,5.91s33.47,12.62,46.77,30.81c12.84,17.56,23.91,37.24,35.16,55.86l-41.56,71.53c-2.92,4.82,3.16,9.82,7.01,5.47,13.47-21.96,26.2-44.39,39.7-66.33.25-.4-.17-.88.88-.66l39.65,66.38c3.58,5.4,10.88.92,7.76-4.66l-41.06-70.15-.39-1.62c10.76-18.51,21.64-37.44,34.22-54.78,15.28-21.05,25.46-29.67,52.4-32.42,21.3-2.17,45.09-1.06,65.95-5.42,18.66-3.9,28.04-16.16,38.51-30.79,2.21,10.5,3.95,21.31,4.39,32.07.29,7.04-.21,14.16,0,21.21-5.85,82.99-55.76,150.36-133.42,179.49l-1.55.52c-.15.06-.36-.05-.52,0l-1.03.52c-.15.05-.36-.05-.52,0l-1.03.52c-.16.05-.36-.05-.52,0l-1.03.52c-.16.05-.36-.05-.52,0l-1.55.52c-16.99,5.1-34.4,8.58-52.23,9.31-.54-.86-1.96-.52-2.84-.53-4.22-.05-8.46.07-12.68,0-17.15-.24-35.18-3.17-51.71-8.28.24-1.38-.33-1.06-1.55-1.03-.16-.05-.36.05-.52,0l-1.03-.52c-.15-.06-.36.05-.52,0l-1.03-.52c-.16-.05-.37.05-.52,0-.16-.52-.6-.46-1.03-.52-.17-.02-.35.03-.52,0-.29-.74-1.05-.4-1.55-.52-22.41-5.05-55.84-29.06-72.4-45-.76-1.53-3.13-3.89-4.65-4.66-33.02-34.13-54.86-81.96-56.37-129.83-.22-6.86-.2-14.35,0-21.21ZM227.94,308.46c.22-.99-.51-1.24-1.08-1.76-13.7-12.44-31.69-33.82-50.01-37.4-24.87-4.86-59.39-.63-82.47-9.07-6.18-2.26-11.7-6.26-17.96-8.15-.4.36,4.17,7.11,4.75,7.92,11.59,16.25,23.44,27.43,44.12,29.32,25.13,2.3,52.16-.25,76.55,7.75,8.99,2.95,17.13,8.5,26.09,11.39ZM423.92,252.08c-6.62,1.95-12.44,6.39-18.99,8.68-9.57,3.35-23.7,3.89-34.02,4.76-16.72,1.41-45.77.41-59.88,8.38-8.42,4.76-30.74,25.07-37.08,32.74-.48.58-1.25.84-1.03,1.81,9.8-3.68,18.75-9.34,28.84-12.26,23.82-6.91,49-4.69,73.28-6.88,20.08-1.81,29.03-10.07,41.09-25.1.95-1.19,8.57-11.38,7.78-12.13Z"/>
  <path class="st1" d="M432.2,162.07c-12.84.43-25.66.57-38.55.54-11.09-.02-22.92-1.48-33.97.12-25.51,3.69-28.88,19.56-40.13,39-22.9,39.57-46.35,78.83-68.87,118.62-2.68-3.17-4.69-6.96-6.81-10.51-23.31-39.23-45.93-78.95-68.78-118.45-6.45-11.16-9.01-20.08-22.16-25.43-14.4-5.85-31.15-3.38-46.25-3.35-12.52.02-25.05.16-37.52-.8,5.75-12.77,13.63-25.09,22.26-36.18,51.21-65.75,137.92-93.24,218.2-68.82,53.41,16.25,98.24,55.16,122.56,105.26Z"/>
  <path class="st2" d="M55.68,182.31c-1.68,7.38-4.24,14.68-5.89,22.17-24.48,111.06,44.93,221.84,155.82,246.06,140.07,30.6,266.67-85.6,248.76-227.62-1.73-13.74-5.37-27.08-9.18-40.33,2.69-1.91,5.64-3.22,8.38-5.1,9.22-6.32,16.53-16.96,21.56-26.8,1.18-.25.82.13,1.16.66,2.31,3.69,5.57,13.68,7.12,18.21,35.05,102.34-.91,215.32-87.46,278.76-107.34,78.68-257.67,57.43-339.38-46.81C.99,330.62-11.45,233.56,24.72,150.7c6.31,9.25,12.08,19.26,21.24,26.08,2.9,2.16,6.39,4.17,9.72,5.54Z"/>
  <path class="st2" d="M436.42,161.99c-16.62-35.33-43.33-65.5-76.35-86.31-66.7-42.03-152.19-42.13-218.97-.2-33.15,20.81-59.99,51.07-76.66,86.51-13.86-.09-27.64-4.42-38.74-12.66C59.74,70.86,136.41,14.61,221.54,4.89c102.1-11.66,202.93,41.47,248.68,133.38.69,1.38,4.76,9.55,4.82,10.19.1,1.07-4.83,4.05-5.97,4.72-9.71,5.72-21.44,8.6-32.65,8.81Z"/>
  <path class="st1" d="M181.4,223.63c-2.9-1.32-5.62-2.98-8.68-3.99-11.77-3.85-34.69-3.07-47.95-3.77-19.85-1.05-46.24.2-64.21-8.19-.85-.4-6.1-2.97-6.29-3.27-1.09-1.72,4.61-17.18,5.38-20.13,5.45,1.23,10.91,2.77,16.52,3.13,22.07,1.42,44.69-.2,66.7,1.56,19.16,1.54,21.57,4.68,30.86,20.34.86,1.44,8.23,13.73,7.67,14.31Z"/>
  <path class="st2" d="M49.02,260.36v-21.21c-.2,6.86-.22,14.35,0,21.21Z"/>
  <path class="st2" d="M451.85,260.36c-.21-7.05.29-14.17,0-21.21.86.54.52,1.96.53,2.84.08,6.22-.1,12.29-.53,18.37Z"/>
  <path class="st2" d="M110.04,394.85c-1.61-1.55-3.1-3.05-4.65-4.66,1.53.76,3.89,3.13,4.65,4.66Z"/>
  <path class="st2" d="M311.71,441.92c-.72.23-1.2.41-1.55.52l1.55-.52Z"/>
  <path class="st2" d="M318.43,439.85c-.59.22-1.08.35-1.55.52l1.55-.52Z"/>
  <path class="st2" d="M185.54,440.88c-.36-.12-.88.06-1.03-.52.44.06.87,0,1.03.52Z"/>
  <path class="st2" d="M316.37,440.37c-.11.04-.48.32-1.03.52l1.03-.52Z"/>
  <path class="st2" d="M187.09,441.4c-.56-.19-.98-.5-1.03-.52l1.03.52Z"/>
  <path class="st2" d="M314.82,440.88c-.08.03-.46.32-1.03.52l1.03-.52Z"/>
  <path class="st2" d="M188.64,441.92c-.59-.2-.9-.47-1.03-.52l1.03.52Z"/>
  <path class="st2" d="M313.26,441.4c-.05.02-.44.33-1.03.52l1.03-.52Z"/>
  <path class="st1" d="M441.49,184.34c.25,3.7,5.78,16.57,5.12,19.28-.27,1.1-7.39,4.49-8.88,5.1-8.5,3.51-17.85,4.87-26.99,5.59-23.96,1.89-48.5,1.33-72.38,3.12-6.94.52-13.14,3.19-19.39,5.95l14.47-24.83c7.8-10.05,23.2-9.57,34.88-10.11,18.53-.85,37.36.13,55.87-1.02,5.9-.37,11.52-2.12,17.31-3.08Z"/>
  <path class="st2" d="M423.92,252.08c.8.75-6.82,10.94-7.78,12.13-12.06,15.04-21.02,23.3-41.09,25.1-24.28,2.19-49.46-.03-73.28,6.88-10.09,2.93-19.04,8.58-28.84,12.26-.22-.97.55-1.23,1.03-1.81,6.34-7.67,28.66-27.99,37.08-32.74,14.11-7.97,43.16-6.97,59.88-8.38,10.32-.87,24.45-1.42,34.02-4.76,6.54-2.29,12.37-6.73,18.99-8.68Z"/>
  <path class="st2" d="M227.94,308.46c-8.97-2.9-17.1-8.44-26.09-11.39-24.38-8-51.42-5.45-76.55-7.75-20.68-1.89-32.54-13.07-44.12-29.32-.58-.81-5.15-7.56-4.75-7.92,6.26,1.89,11.78,5.89,17.96,8.15,23.07,8.44,57.59,4.2,82.47,9.07,18.31,3.58,36.3,24.96,50.01,37.4.57.52,1.3.77,1.08,1.76Z"/>
</svg>