<?xml version="1.0" encoding="UTF-8"?>
<svg id="Layer_1" xmlns="http://www.w3.org/2000/svg" version="1.1" viewBox="0 0 500 500">
  <!-- Generator: Adobe Illustrator 29.0.0, SVG Export Plug-In . SVG Version: 2.1.0 Build 186)  -->
  <defs>
    <style>
      .st0 {
        fill: #fff;
      }
    </style>
  </defs>
  <g id="M1XjGl">
    <g>
      <path class="st0" d="M226.3.7c197.7-14.7,336.9,191.1,241.1,367.1-94,172.7-343.5,172.7-437.5,0C-54.7,212.3,49.3,13.9,226.3.7ZM248.3,49.8c-158.5.4-253.5,178.6-164.4,310.7,78.4,116.2,252,115.9,330-.7,88.4-132.3-7.1-310.4-165.6-310Z"/>
      <path class="st0" d="M224.2,142.1c.1-.6,3.5-6.6,4.2-7.5,9.9-13.7,30.8-13.7,40.7,0,.7.9,4.2,7.1,4.2,7.5v80.5l1.7,1.7h80.5c.4,0,6.6,3.5,7.5,4.2,13.7,9.9,13.7,30.8,0,40.7-.9.7-7.1,4.2-7.5,4.2h-80.5l-1.7,1.7v80.5c0,.4-3.5,6.6-4.2,7.5-9.9,13.7-30.8,13.7-40.7,0-.7-.9-4.2-7.1-4.2-7.5v-80.5l-1.7-1.7h-80.5c-.4,0-6.6-3.5-7.5-4.2-13.7-9.9-13.7-30.8,0-40.7.9-.7,7.1-4.2,7.5-4.2h80.5l1.7-1.7v-80.5Z"/>
    </g>
  </g>
</svg>