<?xml version="1.0" encoding="UTF-8"?>
<svg id="Layer_1" xmlns="http://www.w3.org/2000/svg" version="1.1" viewBox="0 0 500 500">
  <!-- Generator: Adobe Illustrator 29.0.0, SVG Export Plug-In . SVG Version: 2.1.0 Build 186)  -->
  <defs>
    <style>
      .st0 {
        fill: #fff;
      }
    </style>
  </defs>
  <path class="st0" d="M0,264.4L82.2,119.4c8.4-7.1,17-9.4,27.5-5.3,6.5,2.6,25.7,13.3,31.3,17.5,9.5,7.3,11.3,19.2,7.5,30l24.3,6.4c3.9-3.1,8.1-5.9,12.8-7.8,14.7-5.9,61.9-10.4,78.6-10.4s10.2,1.6,14.2,2.5c11.5,2.9,39.6,16.2,48.4,16.2s23.8-5.8,24.5-6.9c.9-2.8-1.2-5.2-1.5-8.3-.8-7.4,2.6-16.1,8.3-21,4.2-3.6,25.5-15.5,31.1-17.8,13.7-5.7,24.4-1.9,32.5,9.8,3.1,4.5,15.4,25.5,16.3,29.6,2.1,9.5-9.2,16.2-16.5,9.6-5.6-5-11.2-22.4-16.8-29.1s-1.9-2.7-3.8-3c-5.5,3-28.1,12.9-30.5,17s-1,1.6-.9,2.6l75.5,134.4c1.7,2.8,4.2,3.8,7.3,2.6,4.6-3.7,26.6-12.8,27.9-17.1s.1-2.2-.4-3.6c-2.8-9.2-14-21.6-17.6-31.3-3.5-10.5,9.7-17.8,16.8-10,3.2,3.5,17.1,28.7,19,33.8,3.6,9.6,2.6,20.3-5.2,27.7s-30.5,18.3-35.1,19.6c-15.2,4.3-25.4-2.7-32.4-15.6-1.9-.4-16.2,9.9-16.9,12.4-.5,3.4,2.7,5.6,4.2,9.1,8.8,20.4-4.3,42.8-25.8,46,.8,18.1-11.1,33.9-29.3,36.1,1.8,25-20.2,40.9-44,35.1-4.7,22.1-29.5,32.4-49,21.1-2.5-1.4-13.9-11.5-14.9-11.3-17.9,13.1-32.4,34.3-57.5,25.1-13.9-5.1-21.5-19.4-21.3-33.8-17.5-3-30-18.2-28.3-36.2-18.1-2.2-30.2-18.3-29.2-36.2-20.9-3.3-32.8-22.4-26.8-43,1-3.4,5.3-9.3,5.4-10.3.5-4.5-12.9-12.5-17.2-13.9-6.7,12.5-16,19-30.8,16-4.4-.9-32.4-16.4-36-19.6s-6-8.4-7.9-13.1v-10.7ZM99.3,131.7l-2.5,1.3L19.7,269c-.3,1.1,0,2,.5,2.9,2,4,23.5,13.1,28.4,16.7l4.1-.3,77.7-136.2-2.6-5.3-28.6-15ZM415,275l-52.6-95.2c-1.3-.8-25.6,7.5-30.1,8.1-19.8,2.5-42.3-13.9-61.7-16.9-12.1-1.9-68.2,3.1-78.9,8.2s1.3,24,10.9,27.6c17.6,6.5,38.6-2.6,57.7-1s44.7,19.6,62.9,32.8c23.6,17.1,46.4,35.5,69,54.1,6.7-6.9,13.6-14.2,22.9-17.6ZM247.8,394.6c1.9,1.9,5.5,6.9,6.7,9.4,2.1,4.6,3,16.3,4.3,18.1.8,1.1,16.4,12.8,17.9,13.3,13.6,4.5,23.7-9.6,14.9-20.8-3.7-4.7-16.6-11.7-18.3-15.9-3.7-9,3.7-17.1,12.9-13.9s22.2,18.6,29.4,23.3c16.2,10.4,29.1-7,18.9-18.9-6.1-7-19.8-14.7-27.2-21.6s-7-5.7-6.3-11.1c.8-6.7,8.3-10.2,14.4-7.7,9.6,6.5,18.3,15.6,27.7,22.1,5.2,3.6,8.6,5.9,15.3,3.7,8.8-2.9,10.8-14.4,5.2-21.2-6.4-7.7-23.6-16-29.2-23.6-6.6-8.9,2-19.4,12.3-15.2,7.1,2.9,20,17.5,27.7,22.1s20.2,2.1,21.4-8.8c.7-6.7-2.9-9.9-7.3-14-12.3-11.5-29.9-24-43.5-34.6-19.8-15.4-63.7-52.3-87.3-54.3-14-1.2-27.9,4.5-42,3.9-25.7-.9-44.8-15.9-49.3-41.6l-28.3-7.9-52.7,95.2c9.3,3.5,16.1,10.8,22.9,17.6,18.4-13.6,33.8-36.2,59.6-25.4,10.2,4.3,15,12.9,19.6,22.4,25.3-8.7,50.6,12.6,43.9,39.2-1.1,4.3-3.6,7.5-4.4,11.6,15.3,6.8,21.6,24.4,16.3,40.3s-3.2,5-3.7,8c2.9,1.5,6.2,3.5,8.5,5.8ZM153.1,284.1c-2.2.3-5.5,2.1-7.5,3.3-5.8,3.5-34.8,26.5-38.2,31.2-8.9,12.2,4,26.4,17.3,19.2l40.3-32.9c6.2-8.7-1-22.1-11.9-20.8ZM197.1,307.6c-1.8.3-4,1.3-5.6,2.3l-54.3,43.3c-9.8,12,1.8,27.9,15.8,20.7l55.5-44.1c8.2-9.6,1.4-24.1-11.5-22.3ZM165.4,389.7c-8.7,11,1.3,26,14.9,21.2l42-33.2c7.6-11.7-2.8-26-16.2-20.1l-40.7,32.1ZM222.5,405.2c-1.5.3-2.8,1-4.2,1.7-3.1,1.6-24,18.3-25.3,20.6-6.5,11.7,4.7,24.9,17.7,18.7,3-1.4,23.8-18.4,25.1-20.8,5.4-9.6-1.8-22.1-13.3-20.2Z"/>
  <path class="st0" d="M247.9,28.2c6.3-1.2,11.2,2.7,12,9,1.1,9.5,1.3,42.6,0,51.7-1.7,11.1-18,11.4-19.5-.9-1.1-9.5-1.3-42.5,0-51.7s3.6-7.4,7.5-8.2Z"/>
  <path class="st0" d="M178.1,115.6l-28.2-44.6c-4.1-10.8,8.7-18.7,16.5-10.7l27.5,43.8c3.3,10.8-6.8,17.7-15.8,11.5Z"/>
  <path class="st0" d="M322,115.6c-8.2,6.9-19.6-1.4-15.8-11.5l28.2-44.5c8.7-6.5,19.4.8,15.8,11.4l-28.2,44.6Z"/>
  <path class="st0" d="M442.8,187.5c8.7-8.7,23.2,3.9,14.3,13.9-8.9,10-23.6-4.6-14.3-13.9Z"/>
</svg>