<?xml version="1.0" encoding="UTF-8"?>
<svg id="Layer_1" xmlns="http://www.w3.org/2000/svg" version="1.1" viewBox="0 0 500 500">
  <!-- Generator: Adobe Illustrator 29.0.0, SVG Export Plug-In . SVG Version: 2.1.0 Build 186)  -->
  <defs>
    <style>
      .st0 {
        fill: #fff;
      }
    </style>
  </defs>
  <path class="st0" d="M498.5,423.5c-4,19.1-18,33.6-37.4,37H38.1c-19.7-4.2-34.9-20-36.5-40.4-1.9-23.6-1.6-62,0-85.7,2.4-36.5,32.1-66.1,68.4-68.6,16-1.1,40.3-1.1,56.4,0,5.1.3,10.9,1.6,15.9,2.9,10.7-22,32.6-36.9,56.8-39.9,33.2,2.5,71.2-3.3,103.8.1,22.4,2.4,45.5,19.4,55,39.7,5-1.3,10.8-2.5,15.9-2.9,18.2-1.2,56.9-1.8,73.5,3.2,25.9,7.9,48.3,33.8,51.2,61,3.1,29.1-2.3,63.7,0,93.4ZM336.4,431.2v-135.8c0-18.8-22.6-36.1-40.2-37.5-24.8-2-66.4-1.8-91.3,0s-41.2,18.1-41.2,37.5v135.8h172.8ZM134.6,296.9c-3.9-.7-8.2-1.7-12.1-2-13.4-.9-33.3-.9-46.7,0-24.9,1.6-43,16.7-45.1,42.4s-1.9,58.6,0,78.9c.3,3.2,1.5,7.6,3.5,10.1s6.4,4.9,7.7,4.9h92.7v-134.3ZM365.6,431.2h92.7c1.3,0,6.7-3.6,7.7-4.9,2-2.5,3.2-6.9,3.5-10.1,1.8-20.2,1.6-58.5,0-78.9-2.1-25.7-20.2-40.8-45.1-42.4-13.4-.9-33.3-.9-46.7,0-3.9.3-8.2,1.3-12.1,2v134.3Z"/>
  <path class="st0" d="M239.2,48.1c79.1-8.1,128.2,82.4,76.4,142.8-39.4,46-113.2,37.7-141.7-15.6-28.2-52.7,5.7-121.2,65.3-127.2ZM290.5,174.9c55.6-55.2-32.9-137.5-83.6-78.5-47.7,55.4,32.1,129.7,83.6,78.5Z"/>
  <path class="st0" d="M96.5,127.8c51.6-1.5,84.2,54.9,57.3,99.3-26.9,44.4-93.1,39.6-114.2-7.7-18.6-41.7,11.3-90.3,57-91.6ZM91.6,158c-43.5,6.8-33.5,79.9,15.1,69.6,42.6-9.1,32.8-77.1-15.1-69.6Z"/>
  <path class="st0" d="M399.4,127.8c85-2.5,88.9,126.2,5.6,130.2-86.6,4.1-91.1-127.7-5.6-130.2ZM394.4,158c-39.5,6.2-36.7,70.3,6.6,70.6s46.2-78.9-6.6-70.6Z"/>
</svg>