<?xml version="1.0" encoding="UTF-8"?>
<svg id="Layer_1" xmlns="http://www.w3.org/2000/svg" version="1.1" viewBox="0 0 500 128.02">
  <!-- Generator: Adobe Illustrator 29.0.0, SVG Export Plug-In . SVG Version: 2.1.0 Build 186)  -->
  <defs>
    <style>
      .st0 {
        fill: #fff;
      }
    </style>
  </defs>
  <g id="_x31_I6VCd">
    <g>
      <path class="st0" d="M353.99,120.1l20.75-82.14,31.88-.14c.28.37-3.05,7.61-1.91,9.13,6.86-10.66,21.69-12.9,33.5-11.36,7.05.92,9.96,4.29,12.58,10.31.21.48-.16,1.62,1.2,1.05,1.09-.46,3.9-4.18,5.37-5.31,8.6-6.61,28.63-9.05,37.69-2.63,4.74,3.36,5.05,9.04,4.61,14.42-1.35,16.61-11.23,38.86-14.32,55.8-2.07,3.91-10.67,10.89-15.03,10.89h-18.69l14.42-56.09c2.18-11.42-13.69-9.89-17.09-1.83l-14.87,57.92h-31.28l14.3-57.74c.26-8.59-10.83-7.74-15.08-2.85-7.26,18.74-10.67,39.2-16.01,58.68l-1.14,1.91h-30.89Z"/>
      <path class="st0" d="M311.27,37.8l-14.3,57.74c-.3,9.72,13.92,8.04,17.72-2.13,6.04-16.17,7.89-37,13.37-53.7l1.14-1.91h30.13l-19.83,82.3h-31.28l1.52-8.38c-9.63,12.94-46.56,17.41-46.59-4.19,4.41-23.47,11.46-46.45,16.85-69.72h31.28Z"/>
      <path class="st0" d="M217.44,11.89l-6.1,25.91h12.2l-3.85,18.25c-2.62.55-12.05-.94-13.33.78l-9.98,39.64c-.97,6.38,6.77,5.34,11.14,5.34l-3.97,18.13c-1.03,1.48-10.76.87-13.19.93-5.32.14-10.23.72-15.83-.2-6.15-1.02-10.92-3.53-11.96-10.17,5.59-32.17,15.95-63.64,23.19-95.57l1.54-3.04h30.13Z"/>
      <polygon class="st0" points="171.68 11.13 144.98 120.1 113.7 120.1 141.54 11.13 171.68 11.13"/>
      <polygon class="st0" points="266.26 37.8 245.67 120.1 214.39 120.1 234.99 37.8 266.26 37.8"/>
      <path class="st0" d="M106.84,120.1l-3.81-108.96h-23.27c-14.93,0-31.06,17.87-36.36,30.73L1.57,120.1h35.47l9.15-19.05h25.17c.55,0,.83.92.83,1.56.01,5.73-.62,11.79-1.21,17.49h35.85ZM54.97,80.19l20.21-43.44-1.91,43.44h-18.31Z"/>
    </g>
  </g>
</svg>