<?xml version="1.0" encoding="UTF-8"?>
<svg id="Layer_1" xmlns="http://www.w3.org/2000/svg" version="1.1" viewBox="0 0 500 170.65">
  <!-- Generator: Adobe Illustrator 29.0.0, SVG Export Plug-In . SVG Version: 2.1.0 Build 186)  -->
  <defs>
    <style>
      .st0 {
        fill: #fff;
      }

      .st1 {
        fill: #fdb61c;
      }
    </style>
  </defs>
  <g id="wfNu04">
    <g>
      <path class="st0" d="M498.33,107.13c.18,1.81.2,5.98,0,7.78-.88,7.89-6.79,14.5-13.62,17.99-15.67,8.01-44.86,5.24-59.55-4.3-.52-.34-2.12-1.16-2.15-1.72l6.81-17.8c4.11,2.53,8.38,4.8,12.94,6.42,7.23,2.58,20.22,5.13,27.42,2.11,3.52-1.47,5.74-4.5,4.36-8.39-1.11-3.14-5.22-4.31-8.13-5.1-15.58-4.24-39.18-4.63-40.5-25.86-1.5-24.12,24.76-31.41,44.27-29.06,9.35,1.13,18.45,4.71,26.12,10.09l-7.02,17.5c-8.16-5.77-18.43-9.95-28.62-9.34-5.15.31-11.51,2.38-11,8.67.35,4.29,6.06,5.68,9.54,6.61,14.39,3.84,37.18,5.22,39.13,24.41Z"/>
      <path class="st0" d="M234.95,135.72h-26.28v-49.89c-.14-8-1.9-16.12-11.38-16.82-11.45-.84-19.31,6.24-19.97,17.6v49.5s-26.27,0-26.27,0V50.54h25.5v12.06c2.37-3.03,4.87-5.98,8.04-8.21,10.3-7.24,28.3-8.36,38.74-.89,8.94,6.39,11.19,18.29,11.63,28.64v53.59Z"/>
      <polygon class="st0" points="355.25 51.12 375.6 100.91 396.13 51.12 421.63 51.12 374.33 167.03 348.83 167.03 362.27 133.1 362.45 132.14 329.75 51.12 355.25 51.12"/>
      <path class="st0" d="M247.44,126.93l6.79-18.25c7.17,4.59,15.41,8.05,23.9,9.28,5.63.82,20.58,2.06,21.24-6.29.43-5.49-4.8-6.9-9.04-8.03-13.82-3.69-35.22-4.42-39.31-21.41-4.56-18.93,10.38-30.77,27.48-33.23,14.62-2.1,30.18,1.32,42.14,9.98l-6.93,17.4c-6.71-4.57-14.42-8.23-22.61-9.11-5.72-.61-17.4-.2-17.09,7.97.18,4.56,4.96,5.85,8.64,6.88,16.3,4.57,39.14,4.67,40.29,27.03,1.62,31.49-42.22,31.23-62.97,24.02-4.43-1.54-8.59-3.74-12.53-6.26Z"/>
      <polygon class="st1" points="85.26 13.59 35.43 136.3 1.75 136.3 51.58 13.59 85.26 13.59"/>
      <path class="st0" d="M108.52,136.49c-.14-.04-.36-.38-.44-.54l-31.76-77.16,17.21-41.13,50.61,118.82h-35.62Z"/>
    </g>
  </g>
</svg>