<?xml version="1.0" encoding="UTF-8"?>
<svg id="Layer_1" xmlns="http://www.w3.org/2000/svg" version="1.1" viewBox="0 0 404.18 497.55">
  <!-- Generator: Adobe Illustrator 29.0.0, SVG Export Plug-In . SVG Version: 2.1.0 Build 186)  -->
  <defs>
    <style>
      .st0 {
        fill: #fff;
      }
    </style>
  </defs>
  <g id="kKNX75">
    <g>
      <path class="st0" d="M123.19,497.06c-18.57-.68-34.7-16.46-46.65-29.61C35.98,422.81,5.6,355.84,1.07,295.26c-2.47-32.99-.86-66.75,12.41-97.41,25.05-57.86,88.77-93.01,149.31-68.66,22.3,10,43.46,18.97,66.72,7.5,46.68-22.59,103-24.33,143.98,11.77,3.22,2.84,19.13,18.75,18.81,22.04-.08.8-.45,1.33-1.34,1.65-74.67,44.99-67.56,157.18,12.73,191.29l.65,1.2v1.49c-2.29,12.4-8.02,24.47-13.59,35.81-12.4,25.23-33.38,58.08-54.62,77-20.52,18.29-42.36,22.48-68.25,13.92l-23.31-9.08c-31.34-13.04-63.63-2.62-93.05,10.76-5.39,1.4-10.88,2.03-16.44,2.53-3.8-.3-8.18.41-11.9,0h.01Z"/>
      <path class="st0" d="M301.2,1.08c4.41,40.49-19.38,83.79-54.71,103.25-13.32,7.34-29.51,13.02-44.87,10.74-3.74-19.64,3.42-41.35,13.22-58.28C232.44,26.37,265.6,3.27,301.2,1.08Z"/>
    </g>
  </g>
</svg>