<?xml version="1.0" encoding="UTF-8"?>
<svg id="Layer_1" xmlns="http://www.w3.org/2000/svg" version="1.1" viewBox="0 0 1742.4 388.4">
  <!-- Generator: Adobe Illustrator 29.0.0, SVG Export Plug-In . SVG Version: 2.1.0 Build 186)  -->
  <defs>
    <style>
      .st0 {
        fill: #ed2025;
      }

      .st1 {
        fill: #fff;
      }
    </style>
  </defs>
  <g id="yzm0qN">
    <g>
      <path class="st0" d="M586.9,77.4h122.7c30.2,1.7,60.8,14.1,69.1,45.8,5.9,22.3,1.4,44.6-17.1,59.3-3.7,3-9.4,4.8-12.5,7.1s-.9,1.5-.6,1.8c.5.5,10.2,3.7,12.6,4.9,39.7,21.3,40.6,74.3,5.3,100.5-9,6.7-30.6,16.7-41.7,16.7h-137.9V77.4ZM647.1,170.8h47.2c16.6,0,28.7-20.6,18.8-35-3.1-4.6-11.5-9.9-17-9.9h-49v44.9ZM648,264.2h53.5c1.8,0,11.1-2.9,13.1-4,13-7,15.1-26.6,3.5-35.9-4-3.2-14.3-6.8-19.2-6.8h-50.8v46.7Z"/>
      <polygon class="st0" points="1577 77.4 1577 164.5 1652.4 164.5 1652.4 77.4 1718 77.4 1718 313.6 1652.4 313.6 1652.4 220.2 1577 220.2 1577 313.6 1511.4 313.6 1511.4 77.4 1577 77.4"/>
      <path class="st0" d="M919.1,71.4c68.4-3.9,117.2,43.4,121.5,110.7,5,78.7-40.9,142.4-124.4,136.9-138.8-9.1-141.4-239.3,3-247.6ZM917.3,128.8c-56.2,6.7-59.3,117.8-5.8,131.9,86.2,22.7,94.7-142.5,5.8-131.9Z"/>
      <path class="st0" d="M1143.7,71.4c37.7-3,77.1,7.2,102.5,36.2l-37.3,36.2c-11.3-8.3-22-16.3-36.1-19.4-13.8-3-38.9-3.1-44.6,13.2-9.6,27.1,40.2,30.4,57.1,34.6,33.7,8.3,64.4,21.6,67.4,61,6.3,81.6-91.5,100.2-152.1,76.6-19.1-7.4-34.5-20.4-48.3-35.3l40.1-36.2c4.5,3.8,8.5,8.6,13.3,12.4,18.5,14.6,70,29.6,81.5,1.5,12-29.5-40.8-32.1-58.8-36.8-98.3-25.5-78.7-136.7,15.3-144.1Z"/>
      <path class="st0" d="M1375.5,72.3c46.9-3.7,83.2,11.6,109.8,50.5l-50.7,31.9c-8.2-13.4-21.6-24.5-37.8-26-83.3-7.7-82.5,140.8.9,133.8,17.8-1.5,29.5-12.6,38.6-26.9,5.4,4.9,49,29.8,49.8,32.9.4,1.4-.3,1.7-.8,2.6-3.4,6.3-15.9,19.3-21.6,24.2-24.5,21.3-58.4,27.6-90.2,23.7-134-16.6-134.6-235.9,2-246.6Z"/>
      <path class="st1" d="M186.9,17.5c135-10.1,234.6,119.6,183,246.7-53.1,130.7-231.9,150.1-312.9,34.4C-20.7,187.7,51.6,27.6,186.9,17.5ZM199.5,33.6C78.6,37,3.2,168.3,62.1,274.7c59.4,107.4,213,111.9,279,8.3,69.8-109.6-12.4-252.9-141.6-249.3Z"/>
      <path class="st1" d="M143.1,84.6v61.1h123.1v-61.1h13c2,0,19.9,16.1,22.5,18.8,53.4,56.7,48.7,150.3-14,197.9-7.6,5.8-11,8.2-21.5,6.8v-62h-123.1v62c-9.2.8-12.5.1-19.7-5-66.3-47.6-70.6-147.6-12.7-203.8,2-1.9,17.2-14.8,18.4-14.8h13.9ZM126,283V108.8c-52.2,44.2-52.2,130,0,174.2ZM282.3,283c1.6.4,1.8-.6,2.7-1.3,19.8-15.1,35.3-52.8,36.9-77.2,1.9-30.6-11.8-74.2-36.9-93.4-.9-.7-1.1-1.7-2.7-1.3v173.3ZM266.1,162.7h-123.1v66.5h123.1v-66.5Z"/>
    </g>
  </g>
</svg>