<?xml version="1.0" encoding="UTF-8"?>
<svg id="Layer_1" xmlns="http://www.w3.org/2000/svg" version="1.1" viewBox="0 0 500 341.12">
  <!-- Generator: Adobe Illustrator 29.0.0, SVG Export Plug-In . SVG Version: 2.1.0 Build 186)  -->
  <defs>
    <style>
      .st0 {
        fill: #fdc416;
      }

      .st1 {
        fill: #fefefe;
      }
    </style>
  </defs>
  <g id="ohqtcS">
    <g>
      <path class="st1" d="M157.11,142.17h-61.28v-68.33c0-5.34-4.59-12.3-9.44-14.49-11.09-5.01-20.73,4.13-21.06,15.13l.06,191.03c.95,11.02,11.54,19.38,22.13,13.37,4.28-2.43,8.3-9.03,8.3-13.98v-67.67h61.28v54.58c-.79,11.64-5.08,22.52-13.92,30.31l-60.05,54c-11.49-.18-23.01,1.14-34.25-1.67-26.45-6.61-43.94-30.88-46.46-57.42-.78-69.12-.09-138.31-.35-207.46C4.04,22.08,36.91,2.02,81.58,2.54c42.02.5,73.49,21.79,75.54,66.04v73.59Z"/>
      <path class="st1" d="M497.28,9.11v63.58h-42.11s-.49.46-.49.49v262.67h-18.19l-50.3-47.03V72.69h-42.28V9.11h153.37Z"/>
      <path class="st1" d="M360.94,265.39l-96.5-90.04-92.91,83.16L221.38,9.48l85.67.27,53.89,255.63ZM280.66,159.21l-16.06-93.4-16.71,93.4h32.77Z"/>
      <polygon class="st0" points="413.71 336.5 109.59 336.5 264.42 197.21 413.71 336.5"/>
    </g>
  </g>
</svg>