<?xml version="1.0" encoding="UTF-8"?>
<svg id="Layer_1" xmlns="http://www.w3.org/2000/svg" version="1.1" viewBox="0 0 500 500">
  <!-- Generator: Adobe Illustrator 29.0.0, SVG Export Plug-In . SVG Version: 2.1.0 Build 186)  -->
  <defs>
    <style>
      .st0 {
        fill: #3d6bb4;
      }

      .st1 {
        fill: #3863ae;
      }

      .st2 {
        fill: #3e6cb4;
      }

      .st3 {
        fill: #4473b9;
      }

      .st4 {
        fill: #4978bc;
      }

      .st5 {
        fill: #3861ad;
      }

      .st6 {
        fill: #4170b7;
      }

      .st7 {
        fill: #4371b7;
      }

      .st8 {
        fill: #406eb5;
      }

      .st9 {
        fill: #4777bb;
      }

      .st10 {
        fill: #3b69b2;
      }

      .st11 {
        fill: #4474b9;
      }

      .st12 {
        fill: #4b7bbd;
      }

      .st13 {
        fill: #3966b0;
      }

      .st14 {
        fill: #dbe0f2;
      }
    </style>
  </defs>
  <path class="st14" d="M2.4,411.84l-.48-1.44v-3.12c.16-.38.36-.82.48-1.2.38.71.48,1.56.29,2.57.22,1.24.12,2.3-.29,3.19Z"/>
  <path class="st12" d="M239.52,251.76c-.31.99-.83,1.83-1.56,2.52-.17,1.89-.83,2.82-2.24,4-.87,1.62-1.68,3.2-2.43,4.76-.44.04-.59.6-.45,1.68-1.19.43-1.88,1.43-2.07,3.01-1.32,1.45-2.35,3.14-3.1,5.07-1.16.63-1.56,1.53-1.18,2.7-1,.76-1.56,1.84-1.69,3.23-1.44,1.14-2.74,3.1-3.18,4.89-.67.27-.98.69-.91,1.24-1.36,3.25-3.29,6.24-5.53,8.92-.56,2.23-1.58,4.03-3.07,5.41-1.1,3.11-2.65,6.08-4.63,8.9-2.81,3.91-5.17,8.05-7.08,12.4-1.9,2.31-3.17,4.96-4.44,7.68-1.04.81-1.6,1.93-1.66,3.34-1.67,1.09-2.71,2.91-2.97,4.91-1.19.56-1.75,1.52-1.68,2.89-1.56,1.27-2.46,2.78-2.69,4.52-1.06.62-1.67,1.65-1.81,3.11-.94.97-1.55,2.08-1.83,3.33-1.83,2.58-3.46,5.29-4.89,8.13l-1.33,1.44c.16,1.7-.39,2.64-1.67,2.83.33,2.13-1.35,3.93-3.05,4.97.07,1.71-.35,2.55-1.51,3.77-.15,1.33-.53,1.81-1.7,2.4l-.06.82c-.43.44-.65.99-.66,1.64-1.74,1.54-2.55,3.17-3.33,5.33-.71,1.72-1.47,3.09-3.09,4.1l-.64,2.94c-1.14.69-1.33.96-1.91,2.17-.9,3.09-2.27,5.22-4.49,7.48l-.41,1.75c-.99.63-1.5,1.6-1.54,2.92-1.05.78-1.63,2.02-1.74,3.73-1.55.68-2.21,1.52-2.25,3.25-1.18,1.51-2.12,2.78-2.63,4.68-.74.43-1.09.89-1.05,1.36-1.06,1.85-2.18,3.76-3.43,5.47.06,1.23-.35,1.94-1.25,2.12-.08,1.5-.12,2.41-1.74,2.93l-.47,2.65c-.19.56-.55.72-1.12.54-.27.6-.69,1.12-1.25,1.56.21,1.88-.36,2.92-1.71,3.14.15,1.53-.53,2.2-1.61,3.15.06,1.05-.29,1.63-1.06,1.72-.1,1.12-.75,2.1-1.96,2.96-.28,1.48-.92,2.45-1.87,3.59-.35,2-.62,2.77-2.18,3.87-.04,1.89-.12,2.25-1.94,3.06-.22,1.94-1,3.27-2.34,3.99.02,1.54-.51,2.63-1.61,3.26-.13,1.02-.26,1.69-1.4,1.92-.34,1.23-.95,2.15-1.81,2.76.15,1.23-.32,2.27-1.4,3.12-.39,2.71-2.45,5.1-4.35,7l-.68,2.75c-1.1,1.41-2.03,2.94-2.8,4.59h-.63c-33.55-20.21-66.92-40.94-99.96-61.9-2.31-2.32-3.79-5.2-4.44-8.41-.2-1.99-.31-3.76,0-5.76.67-2.1,1.05-3.45,2.12-5.44,5.9-10.96,13.49-22.99,20.25-33.51,29.46-45.86,70.16-87.96,122.71-106.25,27.29-9.5,55.92-12.32,84.72-10.07l7.32.96Z"/>
  <path class="st12" d="M402.72,22.8c30.17,18.35,60.16,36.99,90.11,55.69,5.79,5.11,7.28,12.65,3.77,19.59-4.76,9.41-11.76,20.08-17.46,29.1-31.77,50.33-73.74,95.35-132.16,113.6-23.83,7.45-48.02,9.74-72.9,8.34-.85-.04-.27-3.67.02-3.88.22-.15.53-.13.79-.05.31-1.37,1.2-2.63,2.26-3.55-.24-1.96.43-3.85,2.56-4.18l.66-.66c.31-1.59.83-3.07,1.56-4.46.78-.65,1.21-1.4,1.28-2.26-1.16-1.18.62-2.99,1.91-3.19l.68-.78c.76-.18,1.11-.76,1.06-1.72,1.26-.53,1.59-1.55.97-3.05l.65-.93c.13-1.66.65-2.16,1.58-1.48l.28-.44c-.53-.52-.58-1.11.1-1.49-.27-1.37.49-2.47,1.73-1.31.52-1.57,1.38-3.02,2.58-4.34-.27-1.69.12-2.87,1.17-3.52-.59-1.37.18-2.84,1.56-1.64l.56-.27c-.03-1.04.35-1.58,1.13-1.62-.06-2.12.42-3.26,2.06-4.64l.44-.87c-.71-1.14-.25-2.77,1.3-2.6-.77-.92-.06-1.94.9-1.13l2.53-3.2c-.48-1.95.49-3.41,1.75-4.77-.46-.77-.01-1.22,1.35-1.36-.9-1.73-1.13-2.52,1.17-2.08-.14-1.77.33-2.46,1.41-2.07-.25-1.64.14-2.59,1.14-2.85l.68-1.82c-.71-1.13.12-2.06,2.5-2.8l.21-.8c-.2-1.6.27-2.43,1.4-2.49-.11-.96.13-1.24,1-1.54.27-1.17.71-2.3,1.29-3.39-.36-1.21-.19-1.95.5-2.21-.15-1.11.89-1.8,1.84-1.2.6-.35.94-.84,1-1.45,1.04-.88,1.17-1.92,1.32-3.29-.39-1.28-.17-1.92,1.27-2.09-.24-.69.11-1.06.79-1.16-.37-1.73,0-2.48,1.11-2.26-.16-.97.23-1.29,1.18-1.19.5-1.36,1.22-2.48,2.14-3.37.2-1.49.64-2.85,1.32-4.06.97-.77,1.4-2.04,1.2-3.34,0-1.08,1.1-1.34,1.44-.31l.71-.13c-.11-1.04-.03-2.06,1.2-2.24.07-1.1.42-1.97,1.04-2.61-1.09-2.27,2.02-4.49,3.76-5.48l.13-.65c-.35-1.11-.42-1.94.98-2.17.16-.95.59-1.88,1.3-2.77-.43-1.7-.13-2.48.9-2.36-.28-1.58.64-2.89,2.31-2.56.01-.86.39-1.24,1.18-1.48l.15-.84c-.39-1.58-.05-2.56,1.02-2.92.81-1.04,1.49-2.12,2.05-3.23-1.16-.99-.67-1.51.46-2.12.01-.53.27-.94.78-1.12,1.52-.1,1.77-.61,1.86-2.04l1.1-1.3c-.16-2.59.75-4.15,2.74-4.67-.35-.55-.12-1.03.5-1.24-.72-.78-.35-2.18.82-2.11.05-.75.37-1.23,1.18-.97.02-.98.3-1.55,1.15-2.04l.78-1.55c-1.09-1-.57-2.13.74-2.53.46-1.09,1.17-1.86,2.15-2.31-.2-1.04.03-1.2.95-1.44.17-1.94.78-2.96,2.2-4.2l.27-1.2c-.84-.73.03-2.4,1.06-2.54.42-1.24,1.13-1.87,2.15-1.91.14-.92.62-1.33,1.28-1.88.04-1.18.21-2.27.5-3.25-.48-1.15-.32-2.21,1.15-2.07-.4-.87.1-1.39.99-1.41-.23-1.4.57-2.37,1.85-1.26-.02-1.34.47-2,1.46-2.8.02-1.09.4-1.64,1.12-1.67-.06-1.05.25-2.07.91-3.07-.23-1.25-.11-2.48,1.49-2.34-.22-.64-.26-1.16.45-1.38-.58-1.12.4-2.06,1.57-1.88.44-.92,1.07-1.78,1.9-2.56-.36-.61-.18-1.02.33-1.44-.08-1.13-.12-2.25,1.28-2.43-.44-2.11.32-2.16,2.08-2.19l.24-.27c-.01-1.27.35-2.09,1.09-2.47.2-1.06.42-2,1.4-2.6-.06-.65.07-1.18.67-1.51-.31-.43,0-.92.49-1.07-.35-1.8.03-2.61,1.13-2.43-.07-1.11.28-1.63,1.07-1.56l.27-.31c-.93-1.01-.37-1.65.88-1.52.02-.83.46-1.2,1.23-1.37-.49-2.42.17-3.79,1.98-4.1.21-.68.51-1.21.9-1.59Z"/>
  <path class="st4" d="M323.28,78.96c2.86-2.86,6.01-5.41,8.76-8.4,6.78-7.33,12.92-16.04,18.22-24.5,5.59-8.94,10.73-19.71,16.74-28.14,3.76-5.27,10.47-7.63,16.76-6.04,4.7,1.18,14.29,8.08,18.96,10.92.24.37-.29,1.58-.47,1.81-.49.66-1.71.43-1.9.98-.26.74.24,2.68-.14,3.22-.18.25-.77.18-.97.47s-.06.88-.35,1.1c-.17.13-1.23-.32-1.21.22.02.39,1.87.31,1.2.84-.03.03-.42.02-.81.26-.09.06-.07.37-.34.46-.21.07-.68-.08-.76,0-.06.06-.02,1.35-.25,1.68l-.96-.24c-.24.28.01,2.07-.03,2.26-.09.35-.66.34-.69.38-.11.14.48.5.48.59,0,.18-.71.37-.84.6-.2.34-.04.73-.12,1.01-.06.19-.7.51-.97,1.01-.29.56-.26,1.24-.47,1.63-.18.33-.68.34-.86.66-.22.43.33,1.13-.37,2.02-.64.8-1.64.14-2.11.41-.34.19.15,1.96-.03,2.13-.08.08-.78-.14-1.08.24-.4.5-.09,1.43-.18,1.77s-.59.57-.59.75c0,.16.42.33.31.6-.34.82-1.31,1.45-1.68,1.94-.24.32-.33,1.15-.38,1.19-.08.06-1.19-.58-1.67.6-.27.66,1.44.27,1.44.83-.34.15-1.93.24-1.91.6,0,.07.38.26.39.47,0,.2-.61.85-.39,1.33l-.48-.72c-1.34.15-.69,1.35-.77,1.99s-.78,1.39-.9,1.99c-.07.36.05,1.49-.01,1.55-.09.08-.87-.09-.96,0-.04.04.01.78-.14,1.19-.28.76-1.02.82-1.25,1.38-.2.5-.21,1.42-.3,1.99-.81.21-.95-.73-1.68-.72.08.33-.27.83-.22,1.06.1.5.97.15.94.62l-1.92.24c-.26,1.12.57.57.72.72.14.14-.22.93-.24,1.2-.66.1-.39-.6-1.18-.61-1.14-.01-.32,1.2-.37,1.69-.02.2-.33.45-.35.73-.07.94.31,1.86-.2,2.69-.28.46-.67.52-.88.8-.25.34-.23.91-.5,1.2-.19.22-.58-.04-.96.2-.69.42-.84,1.36-1.21,1.71-.23.22-.64.17-.77.3-.05.05-.54,1.19-.54,1.26.02.34.82.25.95.48-1.02.36-.54.9-.85,1.55s-1.3,1.24-1.48,1.52c-.38.58-.68,2.94-.8,3.04s-.71-.04-.95.01c.46,1.66.1.92-.84,1.68-.84.67-.87,1.33-1.3,1.82-.3.34-.78.22-.98.52-.51.79-.11,1.24.72,1.38-.61.6-.76,1.41-1.23,2.13-.2.3-.66.42-.8.64-.53.89.29,2.05-1.33,1.43l-.24,1.68c-.39.1-.17-.33-.28-.41-.88-.63-.78,1.04-.68,1.14.08.08.88-.08.96,0,.77.76-1.35.84-1.44.96l.48.95c-1.23.42-2.43.51-2.72,1.97-.12.6-.05,1.97-.28,2.57-.22.56-1.06,1.14-1.18,1.45-.1.24.14.56-.11,1.1-.59,1.28-1.69.77-2.2,1.18-.34.28-.12.83-.28,1.04-.09.12-.99.17-1.15.65l1.19,1.2c-1.42.54-.81.73-1.08,1.31-.33.71-1.64,1.09-1.43,2.42-.34.47-.36-.02-.6-.13-.79-.34-.36,1.91-.38,2.32-.08,1.83-.8,1.12-1.18,1.65-.19.27-.06.88-.35,1.1-.31.24-1.87-.68-2.17,1.44-.08.57.4,1.34,0,1.66-.7.55-.42-.55-.48-.6-1.19.03-.28,1-.32,1.76-.06,1.02-1.03,1.65-1.25,2.3-.12.35-.06,1.14-.12,1.2-.1.1-1.01-.15-1.17.4-.09.29.27.9.22,1.39-.13,1.59-1.25,1.31-2.14,1.97-.56.41-2.09,2.51-2.15,3.13-.03.34.53.67.46,1.15-.03.19-.53.15-.69.54-.17.42-.26,1.86-.59,2.18-.2.19-.68.01-.97.6-.36.72.6,1.76-1.01,1.88-.81.06-.55-.37-.83-.63-.62-.56-.21,1.83-.32,2.13-.12.35-.59.59-.59.76,0,.2.6.42.43.84-2.16-.21-1.88,3.28-2.45,4.39-.2.38-.61.43-.76.68-.32.52-1.34,2.81-1.58,3-.4.33-1.43-.98-.73,1.05-.31.24-1.39-.05-1.44,0-.08.08.36,2.05,0,2.28-.22.14-.69.09-.72.13-.14.14.27.91.24.95-.09.13-1.57.14-1.66.62-.04.23.26.71.21,1.16-.03.29-.46,2.61-.54,2.73-.11.16-.52.2-.67.4-.25.33-.17.78-.36,1.09-.14.22-1.34,1.31-1.52,1.19-.07-.05.12-.79-.75-.33-.73.38-.09,1.14-.24,1.31-.06.06-.81,0-.96.38,1.03,1.24-.16,2.48-.66,3.66-.17.4-.14,1.03-.34,1.35-.29.48-.79.32-.89.43-.16.18.08.86-.14,1.18-.21.3-.95.13-1.23.45-.1.11.13,2.09-.41,2.84-.24.33-2.72,1.15-2.82,1.63-.06.29.48.56.44.9-.01.11-.73,2-.8,2.09-.21.28-.79.23-.98.47s.37,2.45-.45,2.57c-.19.03-.74-.27-.85-.17-.52.53.96,3.16-2.16,1.92l.96,2.03c-.09.39-1.51.56-1.92.61l.72.6c-.68.44-1.92,2.19-2.09,2.95s.15,1.52.03,1.99c-.05.21-2.54,3.38-2.73,3.49-.51.27-.85-.53-.96-.38-.14.18-.01.63.25.83.29.23.88-.13.71.6-1.57.45-2.26-.59-2.28,1.57,0,.17.35.38.31.66-.2,1.42-1.84,2.2-2.23,3.06-.3.67-.04,2-.36,2.71-.14.31-.68.14-.85.39-.2.29-.02.87-.23,1.22-.19.32-1.19.49-1.44.96l-.12-.96c-1.29.03-.43,1.29-.53,1.77-.09.46-.75.44-.9.81-.38.89-.15,2.36-.28,2.78-.05.18-1.89,2.56-2.12,2.99s-.42,1.22-.49,1.73c-.56.37-1.26-1.03-1.56-.48-.13.24-.21,1.08-.1,1.19.14.14.78-.21.7.25-2.32.37-.71.97-.71,1.09.01.32-.58,1.2-.86,1.32-.46.19-.35-.96-.83-.48-.05.05-.17,1.15-.3,1.5s-.55.57-.63.83c-.15.55.99,1.5-.16,2.71-.26.27-.7.19-.79.28-.12.14.04,1.18-.51,1.71-.27.26-.68.18-.97.56-.25.33.03.79,0,.81-.18.09-.61-.18-.85-.14-.74.12-2.5,2.08-1.43,2.3.9.19.22-2.1,1.31-.84-.09.8-1.13,1.22-1.32,1.57-.13.24.12.58-.1.85-1.24,1.58-1.39,1.25-2.06,3.47-.38,1.25-.18,2.45-1.58,3.22-.49.27-1.06.1-1.52.64-.22.26-.71,1.52-.76,1.89-.05.48.21.95.15,1.29-.02.09-1.04.91-1.32,1.39-.3.51-.33.6-.72,1.19-.56.86.24,1.74-1.33,1.19l-.24,3.6c-.55-.03-1.12,0-1.68,0l-1.44-.24c-.48,0-.96,0-1.44,0l-1.68-.24c-.24,0-.48,0-.72,0l-6.48-.72c-10.55-.91-20.9-2.96-31.2-5.28.08-1.01.49-1.64,1.23-1.9v-1.22c1.22-1.51,2.24-3.13,3.06-4.88.84-.33,1.4-1.95,1.58-2.9.09-.57.56-.51,1.05-.44.37-2.41,1.44-4.6,3.24-6.56-.74-.84-.32-1.49,1.26-1.96l1.04-2.74c1.58-.65,1.8-1.21,2.37-2.84-.91-1.38.08-2.15,1.51-2.16-.04-1.32.42-2.93,1.93-3.09.44-.86.6-1.75.47-2.68.91-.33,1.31-1.04,1.21-2.14.82-.36,1.25-1.05,1.3-2.07l1.11-1.24c.38-1.17,1.01-2.06,1.9-2.66.3-2.42,1.46-4.25,3.03-6.07.24-1.32.77-2.21,1.59-2.65.76-2.34,2.54-4.34,4.2-6.08-.36-1.24.19-2.39,1.65-3.45-.19-.89.03-1.28.92-1.49-.22-1.92-.37-3.6,1.86-4.23.25-1.03.72-1.99,1.42-2.88-.07-1.07.29-1.66,1.08-1.78.85-.98,1.57-1.96,2.16-2.93-.2-2.01.43-3.18,1.91-3.5-.02-.98.32-1.49,1.03-1.54.12-1.12.52-2.22,1.21-3.32-1.35-1.39-.32-2.2,1.25-1.64l1.09-1.21c-.68-2.51-.45-2.51,1.91-2.11-.31-1.16-.11-2.13.47-3.18-.38-1.18.52-1.46,1.5-1.46.21-1.13.92-3.07,1.64-3.98.35-.45.52-.6,1.09-.72-.09-1.44.3-2.38,1.15-2.83.14-.84.31-1.39,1.3-1.38-.23-1.61.21-2.41,1.32-2.39-.08-.78.23-1.19.8-1.69-.37-.91-.41-1.61.78-1.6.06-.7.34-1.25,1-1.57-.48-.76.02-1.42,1.51-1.96v-1.03c1.12-2.02,2.28-4,3.49-5.95l.64-.33c-.45-1.29,1.36-2.75,2.28-3.33-.35-1.14.12-2.25,1.41-3.31-.53-1.39,1.21-3,2.37-3.62l.42-.54c-.41-.96-.1-1.88.93-2.75-.77-.71-.49-1.23.84-1.57.59-.93.99-1.89,1.2-2.86.46-.04,1.38-1.03,1.55-1.38-.06-1.3.62-2.25,2.04-2.84.32-1.13.58-2.3.78-3.48,1.29-.72,2.33-1.83,3.1-3.32-.98-1.58.22-2.57,1.47-3.4-.81-1.03-.23-1.63.98-1.51.02-.64.15-1.23.54-1.75-.98-1.17-.13-1.81,1.13-1.74.13-.86.62-1.27,1.44-1.5-.22-.61-.02-1.06.49-1.41-.24-.74.11-1.35,1.05-1.81.07-1.12.52-1.63,1.36-1.53.79-1.01,1.19-2.21,1.21-3.58Z"/>
  <path class="st9" d="M239.52,251.76c2.24-.06,5.01.45,7.29.75,13.06,1.76,25.87,4.7,38.55,8.13l-.07.53c-.11,1.34-.59,2.04-1.44,2.08.16.81-.14,1.52-.89,2.12-.27,1.65-.86,2.25-2.17,3.17l-2.81,6.26c-.47.69-1.03,1.31-1.66,1.88.07,1.67-.44,2.51-1.52,2.52-.05,1.01-.44,1.56-1.16,1.65.14,1.3-.23,2.26-1.13,2.89,0,1.72-.2,2-1.75,2.65l-.71,2.26c-.78.35-1.17.93-1.18,1.72-1.86,2.46-3.38,4.68-4.14,7.65-1.2.65-1.83,1.71-1.88,3.18-.57.11-.89.59-.97,1.43-1.54,1.37-2.17,2.11-2.45,4.17-.45.18-.7.65-.77,1.43-1.23.85-1.82,1.82-1.78,2.89-.64.22-.97.65-1.01,1.31-.82.72-1.27,1.71-1.33,2.99-1.37,1.13-1.84,1.84-2.17,3.6-2.29,3.37-4.41,6.81-6.35,10.34.09,1.29-.1,1.89-1.35,2.32-.57,1.8-1.57,3.47-2.98,5.01.15.94-.3,1.84-1.37,2.7-.46,1.46-1.06,2.46-2.27,3.48-.1,1.06-.49,1.72-1.17,2,0,1.05-.51,1.99-1.52,2.84-.59,2.42-1.73,4.44-3.42,6.05-.49,1.56-1.24,2.85-2.27,3.86-1,2.98-2.17,5.47-4.32,7.81-.12,1.13-.61,1.85-1.46,2.15-.73,2.24-1.85,4.3-3.02,6.32-.03.78-.25,1.26-1.1,1.33-.04.9-.55,1.65-1.55,2.24.14,1.32-.28,2.07-1.27,2.25-.18,1.55-.93,2.93-2.25,4.15l-.48.78c0,1.43-.74,2.49-2.24,3.16.55,1.68-.3,2.45-1.52,3.46.01,1.36-.46,2.15-1.41,2.36-.89,1.07-1.24,1.99-1.44,3.35-1.32.54-1.98,1.58-1.99,3.13-1.2.53-1.75,1.89-1.77,3.16-.69.33-.97.79-.85,1.4-.65.87-1.28,1.73-1.9,2.6-19.86,5.95-35.04,22.32-46.37,38.95-7.32,10.74-13.08,22.48-20.15,33.37-3.84,5.9-8.55,8.97-15.92,8.33-4.43-.38-7.13-2.94-10.67-5.05-.24-.3-.59-.41-.96-.48-.09-.06-.16-.19-.24-.24.86-.97,1.19-2.2,1.82-3.34.29-.53,1.05-1.17,1.18-1.46.29-.67.27-2.14.74-2.86.27-.42,1.59-1.52,1.89-1.95.21-.31,2.01-3.16,2.12-3.4.14-.29-.01-.87.23-1.44.25-.59,1.3-1.39,1.35-1.54.17-.54-.14-1.28.16-1.77.13-.21.59-.31.81-.63.34-.51.76-1.9,1.05-2.19.24-.23.82-.21,1.02-.54.21-.36.02-.9.34-1.34.17-.24.68-.35.95-.73.56-.78.32-1.93.63-2.49.19-.35,1.35-.75,1.55-1.15.34-.66.27-2.14.8-2.86.32-.44,1.6-.83,1.74-1.03.21-.29-.45-1.58.57-2.55.32-.3.82-.28.92-.4.26-.31.64-2.42.84-2.88.26-.62,1.03-1.18,1.32-1.8.28-.58.25-1.26.57-1.83.35-.64,1.53-1.33,1.76-1.84.17-.39.06-.96.24-1.21s.71-.15.81-.26c.09-.1.05-.95.2-1.35.1-.27,1.33-1.17,1.47-1.66s-.08-1.11.16-1.52,1.12-.31,1.35-.63c.42-.59.03-1.79.34-2.48.12-.28.7-.64.95-.97.61-.81-.08-1.11,1.33-.71.09-.6.38-2.75.6-3.12.2-.34,1.14-.41,1.44-.97.14-.26.11-1.72.24-1.9.25-.37.97-.39,1.05-.52.13-.22-.02-1.02.22-1.58.15-.35.58-.61.74-.94.81-1.65,1.72-2.79,2.56-4.16.23-.38.01-.94.15-1.17.09-.15.7-.08.95-.44.36-.54.66-1.98,1.08-2.7.36-.62,1.4-1.49,1.66-2.2.16-.45-.11-.77.14-1.26.09-.17.91-1.5.99-1.55.23-.15.73.06,1.03-.28.41-.46.41-2.25.72-2.88.24-.49.87-.58,1-.8.26-.41.18-1.55.57-2.19.3-.49.86-.59,1.05-.88.1-.14.02-1.02.31-1.6.61-1.24,2.04-2.21,2.66-3.1.86-1.24,1.75-4.92,2.8-6.08.27-.29.75-.24.95-.49.4-.51.3-2.42.74-3.1.28-.43,1.49-.99,1.89-1.71.7-1.26,1.68-3.38,2.12-4.6.11-.3.22-.55.37-.83.44-.83,1.83-1.79,2.04-2.3s-.13-.96-.04-1.09c.08-.11.53-.08.66-.44.1-.3-.06-.72.09-.99.09-.17,1.17-.61,1.32-.84.19-.3.13-.97.36-1.44.27-.54,1.22-1.36,1.33-1.79.18-.65-.11-1.34.18-1.98.34-.78,1.54-.91,1.91-1.45.08-.11,1.18-2.23,1.21-2.36.08-.36-.28-.85-.02-1.24.23-.34,1.12-.29,1.29-.52.28-.38.13-1.88.35-2.29.04-.09,1.04-.92,1.34-1.42,1.37-2.29,2.71-5.32,4.37-7.4.99-1.25.42-.74.94-2.17.26-.73.99-1.09,1.21-1.48.45-.75.7-2.44.94-2.79.16-.23.69-.13.97-.52.38-.54.11-1.34.38-1.78.16-.26.91-1.26,1.21-1.67s1.04-.88,1.19-1.21c.28-.63-.04-1.42.38-2.02.32-.45,1.02-.37,1.31-.86.12-.22-.07-.6.06-.88.39-.84,1.07-2.22,1.49-3.02.19-.35,1.03-.35,1.42-1.04s.12-1.39.39-2.01c.16-.37.98-.85,1.28-1.36.92-1.56,1.52-3.6,2.67-5.25,1.5-2.16,1.53-1.54,2.6-4.36.98-2.58,3.76-6.57,5.33-9,1.34-2.08,3.19-5.23,4.52-7.55.53-.92.63-2.06,1.03-2.81.33-.61,1.05-.76,1.37-1.27.63-1.04,1.14-3.12,1.76-4.24.59-1.06,1.82-2.01,2.33-2.95.89-1.62,2.48-4.11,3.05-5.6.15-.38.02-.99.14-1.17.11-.17.75-.12.88-.32.11-.17,0-.6.18-.9.69-1.16,1.38-2.3,2.27-3.5.17-.23.6-.28.74-.51.34-.55.17-1.59.59-2.23.27-.41.94-.54,1.05-.89.12-.4-.19-.81-.18-1.17.01-.99.99-.97,1.41-1.66.63-1.01,1.18-2.65,1.91-3.78.26-.41.99-.72,1.25-1.45.45-1.24.08-1.64,1.41-2.68.22-.17.65-.1.69-.14.1-.09-.48-1.28-.21-1.65.1-.14.75-.11.89-.31.12-.18,0-.62.17-.9.78-1.24,1.23-2.49,1.93-3.6.2-.32,1.46-1.36,1.66-1.7.29-.48.25-1.82.65-2.47.25-.39.77-.48.88-.8.39-1.14-.68-1.24,1-1.28Z"/>
  <path class="st11" d="M323.28,78.96c.41.47.35,1.9.12,2.4-.04.09-.99,1.52-1.07,1.57-.28.18-.83.03-.94.14-.07.06-.04.86-.29,1.27-.24.38-.92.55-1.05.85-.09.2.14.56.07.8-.09.32-.47.46-.54.64-.11.29.22.68,0,.97-.17.23-.74.24-1,.46-.35.3-.32.93-.58,1.1-.37.25-1.12-.07-1.45.48,1,1.36.48.76.11,1.79-.13.37-.05.94-.22,1.22-.28.44-1.33-.2-1.32.35,0,.1.42.47.45.76.05.54-.93.86-1.3,1.27-1.19,1.31-.03,1.68-.14,2.26-.03.18-1.89,2.7-2.12,2.92-.34.33-.95.37-1.1.58-.23.34-.23,2.06-.43,2.69-.52,1.68-1.08,1.04-1.82,1.78-.7.69-.33,1.58-.56,1.97-.07.11-.47.1-.62.46-.1.24.01.72-.05.79-.11.11-.86-.08-.95,0-.05.05.06.72-.05,1.03s-.42.44-.53.68c-.48,1.02-.28,1.51-1.82,1.66.05.49.58.36.79.48.7.37-.29.55-.43.71-.17.19-1.03,1.28-1.04,1.37-.09.51.69.58.08,1.51-.48.72-1.17.72-1.55,1.11-.22.22-.18.59-.32.75-.19.23-.62.27-.78.55-.29.53.2.99.02,1.44s-1.5,1.73-1.54,1.84c-.18.55.31,1.21.11,1.53s-.74.3-.94.46c-.22.18-.18.57-.41.84-.19.23-.68.3-.84.61-.38.74.28,1.56-.12,1.81-1.23-.19-.73.41-1.1,1.05-.86,1.47-2.52,3.07-2.92,4.52-.13.47.07,1.15-.1,1.46-.1.18-1.52.86-1.87.77,1.02,1.43.03,1.1-.35,1.69s.11,1.41-1.33,1.19l.48,1.55c-1.46.39-.69,1.04-1.06,1.58-.21.3-1,.14-1.24.45-.18.23.15.71.12,1.07-.13,1.69-.69.85-1.14,1.13-.16.1-.14.82-.35,1.1-.14.19-.63.24-.77.54-.27.56-.02,1.64-.35,2.23-.22.4-.79.26-.92.46-.32.49-1.19,2.25-1.5,2.93-.17.38-.14,1.11-.33,1.35-.31.4-1.2.08-1.47.46-.15.21.11.58.05.8-.15.57-.56,1.04-.62,1.76-.04.52.25,1.23.12,1.52-.46.97-1.55-.12-2.29,0-.08.85.76,1.3.36,2.15-.04.1-1.16,1.39-1.25,1.42-.5.17-1.45-.3-1.52-.21-.57.69.71,1.23.71,1.32,0,.03-.32.27-.4.55-.33,1.13-.83,1.42-.98,1.9-.12.38.05,1-.16,1.29-.18.24-.73.15-.82.25-.16.18.14.89-.27,1.3-.33.33-1.06.16-1.41.75-.56.93.04,2.42-.75,3.5-.21.29-.63.36-.85.64-.59.74-.99,2.2-2.03,1.7.55,1.42-.49,2.1-1.06,3.14-.21.39-.17.96-.4,1.28-.54.78-1.77-.11-1.91,2.43-.03.54.3.97.15,1.56-.17.69-.79.41-1,.69-.1.14.2.58.03.97-.19.43-1.62,1.52-1.78,2.11-.14.54.35,1.16.17,1.46-.05.08-.42.13-.54.3-.96,1.31-2.26,2.81-3.08,4.13-.31.5-.65,1.74-.72,1.81-.11.11-.53-.03-.68.19-.18.26-.57,1.78-.83,2.24s-1.52,1.81-1.66,2.17c-.2.49.63.64-.64.87l-.74,3.17c-1.08.2-1.37,1.65-1.9,2.53-.25.41-1.07,1.13-1.15,1.3-.19.42-.15,1.22-.37,1.5-.21.26-.7.16-.8.27-.14.16,0,1.44-.4,1.89-.25.27-.74.19-.81.26-.21.23.17,1.07.09,1.45-.05.24-.35.46-.46.71-.13.29-.09.83-.17.91-.12.12-.72-.12-1.28.52-.79.9-.51,2.54-.61,2.63-.04.04-.73-.03-1.02.05-1.65.47-.4,1.05-.46,1.71-.01.13-.96,2.22-1.04,2.31-.33.39-1.12.27-1.43.73s-.68,2.27-1.07,2.77c-.36.45-1.33.38-1.69.94,1.91.83.57.64.13,1.33-.58.9-2.14,3.18-2.48,3.99-.42,1,.21,3.02-1.49,2.24.34,1.13-.39,1.43-.67,2.1-.12.28.05.82-.09.99-.08.1-.8.07-1.17.63s-.74,1.91-1.09,2.51c-.2.34-1.51,1.75-1.54,1.86-.08.42.12,1.26-.03,1.48-.1.14-.68.1-.87.33-.27.32.04,1.3-.78,1.14-14.92-3.36-28.82-7.6-43.2-12.72-.12-.51.09-1.03.62-1.56.87-1.09,1.32-2.26,1.36-3.5,2.55-2.69,4.7-6.35,5.88-9.81l.45-.27c.22-1.76,1.15-3.24,2.79-4.44.2-.85.57-1.59,1.1-2.21-.4-.87-.16-1.35.68-1.72l1.93-2.38c-.18-1.43.16-2.2,1.32-3.1l1.48-2.87c2.19-2.39,3.82-5.2,4.91-8.41l3.6-5.09c-.27-.84.01-1.45.52-2.13,1.47-1.53,2.35-3.26,2.65-5.19.95-1.14,1.9-2.27,2.85-3.4.79-2.35,1.91-4.44,3.37-6.28-.28-.65-.02-1.16.69-1.15-.21-.63.05-1.19.78-1.66l.96-1.44c.97-2.95,2.51-5.42,4.63-7.4.25-1.58.97-3,2.18-4.25.14-1.58.74-2.55,1.82-2.92-.07-.53-.04-1.04.09-1.53l2.64-3.33c.82-2.51,2.04-4.69,3.66-6.54-.24-.91-.35-1.54.69-1.92,1.25-2.12,2.63-4.08,4.16-5.86-.21-.69-.26-1.01,0-1.73,1.99-2.47,3.83-5.16,4.91-8.16l1.52-1.3c-.32-1.25.15-2.41,1.42-3.48l3.53-6.27c1.09-.75,1.59-1.82,1.51-3.21,1.02-1.21,1.91-2.5,2.67-3.86-.3-.75.19-1.35,1.45-1.79.43-1.66.9-2.81,2.07-4.11-.13-1.04.07-1.72.61-2.06,20.81,3.58,42.03.26,58.32-13.68l.96-.72c.08-.08.16-.16.24-.24Z"/>
  <path class="st3" d="M328.8,275.28c-.24.39-.6.78-1.08,1.17-.29,1.57-1.01,2.62-2.18,3.16-.47,1.93-1.35,3.23-2.59,4.71-2.18,3.9-4.39,7.73-6.63,11.51l.13.7c-1.87,2.34-4,5.05-4.56,8.14-1.52,1.19-2.55,2.81-3.07,4.86-1.94,2.53-3.57,5.24-4.91,8.14l-.59.47-1.69,4.06c-1.48,1.33-2.45,2.93-2.89,4.79-2.08,3.56-4.22,7.05-6.41,10.49l-.8,2.59c-1.23,1.22-2.22,2.64-2.99,4.27.19.49.19.92.02,1.3-2.22,1.82-3.7,4.22-4.43,7.23-.66.88-1.44,1.65-2.35,2.31-.03.76-.07,1.49-.52,2.14l-3.14,4.51c-.25,2.06-1.11,3.71-2.58,4.97-.87,2.43-2.14,4.56-3.8,6.41-.85,2.74-2.36,5.21-4.54,7.42-1.02,2.6-2.36,5.04-3.77,7.45-.44,1.41-1.27,2.71-2.51,3.89-1.71,3.74-3.79,7.3-6.24,10.65-.97,2.32-2.07,4.56-3.31,6.73l-.58.08c-15.82-4.4-33.63-6.96-49.68-2.16-.46-1.19,1.29-2.19,1.4-2.56.13-.39-.07-1.01.07-1.25.1-.16.85-.2.92-.29.02-.03-.2-.35-.14-.53.15-.43.71-1.91.92-2.17.36-.46.75-.33.86-.46.31-.35.34-1.87.43-2.12.24-.62,1.47-.85,1.67-1.19.26-.44,0-1.2.38-1.78.33-.5.74-1.14,1.06-1.58.2-.28.74-.2.96-.48.3-.39.17-1.41.43-1.85.19-.32,1.4-1.15,1.56-1.68.2-.66-.28-1.44-.09-1.75.16-.25,1.92-1.34,2-1.49.15-.28,0-.94.16-1.41.36-1.13,1.93-2.53,2.49-3.51.3-.51.16-1.43.4-1.76.21-.3.91-.17,1.06-.62s-.1-1.02.15-1.54c.32-.68,2.63-1.4.84-2.39.32-.02,1.51-.13,1.64-.29.12-.14,0-.64.17-.9.69-1.13.91-1.78,1.56-2.83.58-.93,1.36-3.41,1.54-3.68.16-.24.67-.12.87-.38.24-.3.27-1.2.51-1.6.58-.96,1.98-2.36,2.58-3.48.67-1.24,1.25-3.59,1.85-4.54.27-.43.79-.49.92-.78.8-1.71.62-2.6,2.26-3.98s1.64-3.9,2.6-5.32c.36-.53.97-.71,1.15-1.25.14-.42.04-1.33.13-1.44.07-.08.54.09.71-.16.2-.28.21-1.13.49-1.63.31-.56,1.07-.96,1.41-1.47.41-.6.5-1.41.86-2.02.26-.44,1.28-1.33,1.41-1.69.1-.31-.2-.63-.06-.92.54-1.12,1.98-2.43,2.64-3.73.18-.34.07-1.02.42-1.43.29-.36.92-.33,1.1-.64.24-.4.02-1.05.16-1.52.04-.14,1.29-2,1.56-2.51.56-1.06.88-2.06,1.62-3.19.96-1.47,2.3-3.08,3.2-4.71.38-.68.27-1.37.51-1.88.42-.89,1.36-1.19,1.66-1.72.34-.61.15-1.41.41-1.99.32-.72,1.49-.75.84-2.16h1.2c-.8-1.54,1.31-2.26,1.76-3.19.24-.51-.08-.94.03-1.15.12-.23.61.01.73-.21.29-.52.11-1.59.49-2.17.3-.47,1.66-1.6,1.89-1.95s.16-1.02.35-1.29c.16-.23.62-.07.71-.16.1-.11.1-1.61.41-2.13s.86-.39,1.18-.74c.64-.71.77-2.27,1.08-3,.74-1.72,2.34-3.41,3.25-4.91.22-.36.03-.91.24-1.21.16-.24.7-.13.87-.38.34-.49.35-2,.94-2.6.3-.31,1.32-.52,1.4-.64.15-.25-.03-1.13.14-1.66.19-.6.84-.61,1-1.16.16-.59-.03-1.63.21-1.96.15-.22.65-.14.79-.28.22-.21.13-1.22.54-1.52.24-.17.62.26.94-.23.42-.65.11-1.42.39-2.03.2-.43,1.14-1.11,1.4-1.47.55-.77,1.15-2.4,1.64-3.41s.95-2.46,1.47-3.33c.41-.69,1.18-.72,1.59-1.31.19-.27.27-1.29.56-1.82.23-.43.79-.76.87-1.07.1-.38-.22-.88-.11-1.04.22-.31,1.27-.38,1.33-.48.08-.12-.44-1.65.72-1.91,14.85,4.01,29.23,8.91,43.44,14.64Z"/>
  <path class="st2" d="M364.08,290.64c11.72,5.52,25.32,11.26,36.48,17.52-.4,1.55-1.25,2.91-2.57,4.09l-1.01,2.73c-.38,1.05-.94,1.89-2.12,2.05-.08.78-.5,1.41-1.27,1.88-.04,1.72-.17,2.14-1.31,3.45-1.13,3.04-2.17,5.53-4.64,7.67-.24,1.01-.78,1.67-1.63,2,.23,1.44-.65,4.26-2.18,4.68.54,1.15-.1,2.32-1.89,3.5,0,1.12-.73,2.12-2.2,3l-.24.8c.08,2.03-.57,3.37-1.96,4.04.11.75-.36,1.19-1.39,1.32.18,2.2-1.54,4.4-2.98,5.89-.54,1.84-1.27,3.55-2.2,5.11-1.21.32-1.95.9-2.24,1.75.41,1.67-.16,2.44-1.5,3.42l-2.25,4.95c-.61,1.56-1.49,2.64-2.64,3.25.61.76.38,1.56-.45,1.99-.74,2.01-1.81,3.61-3.23,4.81-.08,1.43-.61,2.32-1.72,3.21.03.85-.46,1.34-1.48,1.48-.06,1.18-.44,2.19-1.15,3.03-.24,1.87-1.01,3.14-2.31,3.8-.38,1.44-.99,2.74-1.83,3.92-.59.07-.68.44-.28,1.12-.57,1.12-1.37,2.15-2.4,3.09-.25,1.19-.45,2.03-1.4,2.85.06,1.16-.36,1.78-1.25,1.87.06.62-.31,1.03-.93,1.09-.11.67-.49.89-1.08,1.07.01,1.42-.5,2.81-1.54,4.17-.12,1.43-.69,2.27-1.71,2.53,0,1.63-.86,3.01-2.56,4.16-.87,1.75-1.62,3.57-2.25,5.45-.9.61-.95.73-1.2,1.77-.88.16-1.27.65-1.17,1.48-.99,2.13-2.09,4.33-3.24,6.4-.14.25-.35.43-.62.53-.15,1.42-.99,2.6-2.53,3.53-.05,1.13-.43,1.75-1.14,1.88.07.79-.15,1.26-.64,1.41-12.37-5.63-24.51-11.82-36.96-17.28l-.36-.51c1.82-3.29,3.56-6.66,5.23-10.11,5.53-8.94,10.72-18.06,15.56-27.35,2.98-3.23,4.68-6.78,6.37-10.83,2.9-4.77,5.65-9.56,8.24-14.36,1.9-1.52,3.17-3.83,3.53-6.21,1.33-1.54,2.25-3.34,2.76-5.4,3.16-4.73,6.18-9.51,9.05-14.35.2-1.46.8-2.37,1.79-2.74,1.22-2.71,2.38-5.46,3.48-8.25,1.43-.88,2.01-1.56,2.63-3.17,2.28-2.07,3.87-5.3,4.28-8.31.77-.5,1.3-1.02,1.71-1.9l6.22-11.75c2.13-2.21,3.97-4.69,5.21-7.46l1.1.21Z"/>
  <path class="st13" d="M431.28,322.8c12.39,5.84,24.92,11.44,37.2,17.52l-.27.44c-1.33-.38-1.9.02-1.74,1.19-.69,1.58-1.5,2.56-2.65,3.81l-2.07,2.96c.47,1.06-.57,2.99-1.67,3.19.12.74-.22,1.33-1.01,1.77-.11,1.94-.82,3.05-2.13,3.33-.46,1.68-1.3,2.87-2.43,4.14-1.2,3.21-2.73,6.13-4.59,8.78.57.71.29,1.3-.6,1.39.04,1.27-.71,2.29-2.24,3.06-.49,1.97-1.45,3.53-2.89,4.68.47,1.27-.05,2.36-1.57,3.28-.49,1.88-1.53,3.54-3.1,4.98.24,1.15-.16,2.09-1.21,2.81.16.66.16,1.27-.02,1.83-2.41,2.18-4.33,4.9-5.36,7.99-1.43.53-2.17,1.71-2.2,3.54-1.17,1.04-1.62,2.12-1.36,3.26-.59.45-1.01,1.07-1.27,1.88-1.45,1.65-2.59,3.39-3.41,5.22.29,1.14.02,1.71-.81,1.71.11.77-.11,1.35-.94,1.37-.91,1.52-1.78,3.05-2.6,4.6-1.31,1.42-2.37,2.93-3.17,4.55.35,1.1-.01,1.56-.81,2.27.11,1.19-.52,2.13-1.89,2.83-.53,1.64-1.33,3.14-2.21,4.56-.5.02-.76.43-.77,1.2-1.12,1.24-1.92,2.8-2.39,4.68-.96.61-1.43,1.3-1.41,2.08-1.13,2.1-2.46,4.09-3.98,5.97-.31,1.76-1.08,3.17-2.31,4.21.05.74-.17,1.32-.63,1.76.39.98-.18,1.88-1.72,2.71-.36,1.28-1.12,2.44-2.28,3.46-1.45,3.5-3.21,6.83-5.26,9.99l-.52.28c-12.18-5.72-24.32-11.52-36.48-17.28-.46-.44-.16-1.13.89-2.07.73-1.64,1.55-3.23,2.46-4.77,1.72-1.42,2.21-2.45,2.47-4.67l2.88-3.45c.42-2.36,1.38-3.71,2.89-5.51.39-1.17.7-2.36.94-3.59.66-.32,1.12-.88,1.38-1.69l1.78-1.02c.27-1.95.85-3.32,2.19-4.76,1.15-2.59,2.54-5.04,4.15-7.33.9-.47,1.36-1.43,1.37-2.88l7.49-12.55c.36-2.28,1.44-3.32,3.01-4.81.86-2.52,2.1-4.74,3.72-6.67l1.57-3.74c.34-.65.78-1.09,1.5-1.28,1.89-4.34,4.22-8.52,6.98-12.52,2.25-5.11,5.08-9.97,8.5-14.57.43-1.8,1.24-3.08,2.43-3.83.78-2.05,1.78-4.03,3.02-5.94,1.11-1.86,1.81-3.58,1.94-5.68,1.41-.09,2.18-.64,2.32-1.67l2.02-4.29c1.33-1.06,1.67-1.95,2-3.55,1.3-1.92,2.68-3.8,4.14-5.66.11-2.84,1.03-4.01,2.77-3.51Z"/>
  <path class="st6" d="M328.8,275.28c.8.32,1.6.64,2.4.96.35.27.77.42,1.2.48.41.16.73.34,1.2.48l1.2.48c8.99,2.5,20.63,8.88,29.28,12.96-1.38-.12-1.18,1.2-1.58,1.9-.5.87-1.44,2.2-2.01,3.03s-1.94,1.87-2.36,2.67c-1.19,2.28-2.42,4.68-3.74,7.07-.99,1.79-1.95,4.01-3.15,5.73-.3.43-.98.69-1.02.78-.24.42.12,1.58-.57,2.69s-1.49,3.23-2.27,4.2c-1.22,1.52-1.2.57-2.13,2.91-.48,1.22-1.57,1.08-1.92,1.68-1.36,2.33-1.96,5.98-3.47,8.23-.22.33-.71.21-1,.57-.39.49-.51,1.7-.89,2.4-.68,1.24-1.52,2.34-2.28,3.72-2.02,3.72-4.63,6.82-6.66,10.38-.64,1.12-.66,2.26-1.09,3.23-.28.63-1.28,1.36-1.6,2-.35.72-.26,1.69-.56,2.32-.15.32-1.62,2.64-1.92,3.12-.19.3-1.05.76-1.5,1.38-.75,1.03-1.05,2.39-1.62,3.42-2.67,4.8-6.37,9.71-8.2,14.84-1.15,3.21-4.45,5.73-5.92,8.97-1.76,3.88-4.31,8.08-6.33,11.91-1.89,3.59-3.9,7.06-6.13,10.31-2.06,2.99-3.03,5.87-4.75,9.04-.72,1.33-1.81,2.48-2.13,3.99-10.77-4.72-22.58-9.58-33.84-12.96-.58-.08-1.16-.19-1.68-.48-.28-.08-.62-.14-.96-.24l1.24-2.49c1.2-1.28,1.46-3.31,2.43-4.88,1.93-3.13,4.38-5.99,5.76-9.72.54-1.45,2-2.28,2.57-3.49.12-.26.05-.69.28-1.1,1.38-2.49,2.33-3.78,3.4-6.68.57-1.54,3.02-3.69,3.87-5.25.44-.81.6-2.12,1-2.84s1.64-1.77,2.12-2.68c.7-1.33.95-2.72,1.82-3.94.27-.38,1.44-1.36,1.55-1.56.33-.6.5-2.43.87-3.16.71-1.4,3.04-3.79,3.54-5.41.12-.39-.06-.93.1-1.22.35-.65,2.08-1.3,2.76-3.12.48-1.28.86-2.71,1.51-3.96.29-.55,2.25-2.09,2.62-2.6.16-.22-.22-.71-.16-1.02s1.77-3.09,2.1-3.57c.19-.28.62-.32.84-.66.7-1.09.5-2.65,1.71-4.3.95-1.29,1.07-1.12,1.84-2.72.92-1.9,2.94-4.26,3.65-5.95,1.07-2.56.25-2.36,2.52-4.44.91-.83,1.54-3.5,2.26-4.83.07-.14.46-.17.58-.49.82-2.15,1.99-3.96,3.4-5.96,1.57-2.23,1.68-2.09,2.46-4.74.28-.96,1.82-1.81,2.09-2.23.35-.55.18-1.22.37-1.79s2.71-4.6,3.24-5.33c.22-.3.73-.39.85-.64s-.18-.71-.13-1.06c.03-.19.43-.18.49-.32,1.73-3.82,4.11-7.2,6.06-10.93.51-.97,1.49-1.88,1.87-2.51.29-.49.57-2.21,1.02-2.64.17-.16.58-.11,1-.56.94-.98.46-3.17,2.53-3.35Z"/>
  <path class="st7" d="M263.76,93.6l-.15,2.17c-.17.66-1.19,1.47-1.4,1.92-.29.61-.36,2.09-.97,2.63-.36.32-1.02.19-1.23.47-.16.21.13.59.08.82-.26,1.2-2.62,3.66-2.77,4.14-.17.53.11,1.17-.16,1.77-.18.41-1.13,1.08-1.32,1.37-1.23,1.94-2.19,4.13-3.52,6.26-.23.36-1.51,1.78-1.53,1.9-.09.46.39.94.15,1.51-.23.53-1.27.91-1.54,1.35-.25.4-.17.95-.4,1.28-.95,1.42-1.37,2.34-2.17,3.83-.54,1.01-2.45,2.65-2.5,3.51-.02.44.39.89.12,1.31-.09.14-.45.18-.61.42-1.25,1.81-2.24,3.67-3.59,5.48-.18.24-.63.29-.69.39-.23.38.28.94.09,1.39-.11.28-1.23,1.35-1.53,1.84-.86,1.4-1.3,3.14-2,4.48-.62,1.2-2.16,2.51-2.78,3.57-.21.36.06,1.04-.09,1.48s-.84.32-1.15.77-.36,1.58-.67,2.2c-.27.55-1.56,1.89-1.81,2.52-.22.53-.11,1.07-.31,1.61-.28.76-1.99,1.71-2.68,3.08-1.14,2.26-1.33,3.76-3.03,5.97-.69.9-1.14.11-.4,2l-1.2-.24c.6,1.45-.08,1-.45,1.58-1.2,1.91-1.72,3.19-2.5,5.19-.6,1.53-2.84,3.09-3.16,4.04-.19.57-.06,1.1-.26,1.66-.33.96-2.49,3.32-2.88,4.34-.15.39.19.75.1,1.04-.04.13-1.3,1.78-1.51,2.09-1.74,2.58-2.42,2.91-3.32,6.05-.17.59-1.33,1.85-1.87,3.35-.29.81-1.48,1.65-1.92,2.21s-.96,2.08-1.47,2.86c-.28.43-.97.69-1.22,1.43-.22.65.2,1-.06,1.59-.15.34-1.67,2.11-2.04,2.54-.2.23-.65.32-.69.39-.18.3.26.88.22,1.25-.01.15-.41.16-.56.45-.28.53-.48,1.41-.72,1.79-.12.18-.59.21-.77.56-.74,1.41-.37.55-1.02,1.26-.06.07-.9,1.52-.92,1.61-.1.37.24,1.11.14,1.21-.06.06-.56-.1-.68.03s-.03.65-.15.93c-.84,1.91-3.01,5.54-4.21,7.32-.35.52-1.34,1.31-1.44,1.51-.29.55.14,1.28-.05,1.67-.03.07-.34.09-.42.23-.53,1-1.09,2.14-1.93,2.95-12.33-4.39-23.84-9.09-35.76-14.4.05-.43.37-.56.96-.38l2.8-2.83c1.33-2.84,2.91-5.48,4.74-7.92l-.33-.48c.87-1.48,1.93-2.95,3.16-4.39l.4-2.28c.59-.49.89-1.11.9-1.87,1.27-.58,1.91-1.7,1.92-3.37l.92-.68c1.16-1.89,2.39-3.72,3.67-5.48-.4-1.6,1.28-3.62,2.51-4.51-.07-1.39.37-2.32,1.31-2.79-.03-1.03.35-1.57,1.14-1.63l1-2.1c-.08-1.05.29-1.61,1.09-1.68-.07-1.31.33-2.19,1.18-2.63.14-1.02.29-1.56,1.42-1.74-.12-.64.06-1.14.71-1.33,1.64-3.44,3.38-6.78,5.23-10.04,1.51-1.06,2.28-1.75,2.36-3.74l.79-1.1c-.18-1.23.21-1.93,1.16-2.1,1.28-2.64,2.79-5.2,4.53-7.69.43-2.43,1.58-4.25,3.48-5.45.13-1,.97-2.56,1.52-3.5.21-.36.5-.5.89-.61.09-1.63.82-3.03,2.17-4.18.11-1.94,1.09-3.67,2.92-5.2.96-1.25,1.08-1.51,1.03-3.06,1.13-.9,1.84-1.95,2.11-3.16l2.07-2.44c0-1.6.81-3,2.43-4.2.56-2.62,1.96-5.01,3.73-7.01-.33-1.17-.05-1.78.84-1.85,1.49-2.22,2.69-4.61,3.58-7.16l2.18-2.23c.29-1.82.91-2.79,2.3-3.96.63-2.15,1.53-4.14,2.69-5.96,12.11,3.81,22.96,8.6,35.76,10.8Z"/>
  <path class="st10" d="M400.56,308.16c.14.08.43.31.72.48l1.2.48c1.02.62,1.82.95,2.88,1.44l.96.48c8.33,3.86,16.64,7.84,24.96,11.76-2.41.03-1.79,2.07-2.29,3.59-.24.72-2.27,2.79-2.86,3.87-.71,1.29-.41.55-.97,1.17-.47.54-.69,2.26-.98,2.87-.23.48-1.11.93-1.41,1.47-.74,1.31-1.09,2.68-1.91,4.07-.19.32-.15.74-.37,1.08-.65,1.01-2.09.74-2.17.83-.06.06.05,1.19-.01,1.55-.34,1.94-3.51,7.03-4.61,9.08-.18.34-.09.93-.23,1.09-.09.11-.63.06-1.03.53-.63.74-.81,2.13-1.22,2.86-1.35,2.42-3.2,4.4-4.53,7-.78,1.54-2.48,3.53-2.95,4.96-.84,2.59-1.34,3.19-2.75,5.41-1.27,2-2.28,3.95-3.57,5.79-.89,1.27-1.1,3.27-1.8,4.2-.28.37-.77.33-1.01.55-.91.88-1.61,3.43-2.11,4.49-.2.42-1.09,1.16-1.41,1.71-.82,1.42-1.48,3.16-2.12,4.6-.55,1.24-1.86,1.85-2.22,2.34-.39.52-.71,2.23-.99,2.85-1.35,3.06-3.6,5.64-5.23,8.45-.37.63-1.99,3.28-2.12,3.64-.2.55-.49,2.74-.72,3-.07.08-.52.08-.88.44-1.23,1.24-3.14,5.53-4.06,7.22-.31.57-1.35,1.66-1.48,1.94-.22.49-.55,2.57-.78,2.88-.06.09-1.7.94-1.88,1.12-.31.31-.17.84-.35,1.1-.2.27-.72.16-.81.26-.14.15-.48,2.88-1.05,3.87s-1.79,1.92-2.2,3.08c-.23.64-.11,1.31-.43,1.97-.58,1.23-2.65,2.84-3.18,4.02-.28.62,0,1.36-.3,2.1-.39.92-1.73,1.92-2.23,2.57-.71.95-1.66,3.57-2.43,4.77-.37.57-1.09.85-1.17,1.59-8.4-3.98-16.75-8.14-25.2-12-.44-.3-.92-.54-1.44-.72-.65-.24-1-.53-1.44-.72l-.96-.48c-.35-.16-.76-.28-1.2-.48l.24-2.16.96.24c-.58-2.38,1.71-2.19,2.46-3.9.2-.46.08-.89.18-1.2.1-.28.53-.23.67-.58.83-2.06,2.02-3.73,3-5.66.29-.57.33-2.24.41-2.34.05-.07.53.31.81.23.6-.17.25-1.12.42-1.4.09-.14.68-.12.87-.32.23-.24.15-.74.3-.96,1.17-1.77.81-2.52,1.57-4.01.54-1.05,2.44-2.22,2.86-3.14.25-.55.03-1.81.13-1.91.07-.06.55.04.77-.05.74-.3.68-1.55.96-2.17.35-.77,1.36-2.18,1.57-3.01.13-.48-.2-1.15-.1-1.27.19-.23.82-.22,1.01-.46.17-.22-.18-.7-.15-.73.24-.19,1.76.34.96-1.2,1.87.21,1.17-.51,1.49-1.51.14-.44.75-.71.97-1.19.24-.54.15-1.13.45-1.71.4-.76,2.18-2.04,2.34-2.73.13-.54-.52-.82-.45-1.13.06-.28.81-.33,1.07-.62.14-.16.56-1.11.74-1.43.24-.46.76-2.17.87-2.36.06-.1.65-.17.91-.41.78-.7.93-2.24,1.33-3.23.19-.48.62-.72.78-1.14.2-.52.12-1.56.43-1.97.28-.39,1.13-.31,1.27-.53.11-.17,0-.61.17-.9.24-.4,1.06-.81,1.42-1.71.19-.47.06-.99.26-1.42.21-.47,1.02-.67,1.29-1.11.64-1.02,1.28-2.67,2.03-3.85.18-.28.85-.23.65-1.13-.06-.29-.94-.26-.73-.87.42-.16,1.15-.11,1.46-.4.11-.1,1.36-2.18,1.53-2.49.86-1.61,1.56-3.7,2.42-5.26.16-.29,1.36-.99,1.52-1.62.19-.76-.59-1.52.42-2.68.56-.65,1.73-.58,2.13-1.23,1-1.63,1.23-4.03,2.19-5.25.23-.3.72-.37.94-.74.18-.31,1.66-3.16,1.71-3.34.1-.41-.23-.81-.03-1.21.3-.61,1.2-.4,1.31-.51s-.05-.67.14-.94c.16-.24.69-.19.96-.49,1.11-1.2.55-3.04,1.23-4.3.25-.46,1.8-1.47,2.05-1.8.35-.47,0-.81.11-1.1.21-.54,2.01-1.85,2.16-2.15.23-.43-.25-.72-.29-1.08-.07-.72.72-.54.98-.84.42-.48,1.25-2.6,1.31-3.27.03-.34-.29-.94-.22-1.04.04-.05.85-.15,1.21-.6.29-.36.31-.91.6-1.32.61-.84,2.27-2.25,2.61-2.91.78-1.47,1.42-3.93,2.43-5.49.17-.27.69-.32.78-.64.1-.38-.34-1.12.03-1.91.3-.65.88-.69,1.09-1.07.17-.31.06-.82.37-1.08.27-.24.8-.12,1.22-.53.78-.76,1.31-3.19,1.8-4.13.3-.57,1.47-1.53,1.89-2.19.38-.58.34-1.72,1.09-1.67Z"/>
  <path class="st1" d="M39.84,162.96c-4.8-2.29-10.59-3.82-14.15-8.05-3.99-4.73-4.8-11.47-2.21-17.08L72.92,26.24c4.72-7.33,12.46-9.73,20.6-6.36,7.49,3.1,15.34,7.39,22.64,10.84.34.42.12.89-.65,1.42l-.24,1.42c-1.11,2.27-2.35,4.45-3.73,6.56-.14,1.44-.65,2.15-1.53,2.13.05,1.74-.42,2.38-1.87,3.26-.83,2.38-2.01,4.61-3.53,6.7-.77,1.92-1.84,3.59-3.23,5-.05,1.48-.55,2.5-1.5,3.08l-1.4,3.2c-.28.56-.84.8-1.43.83-.42,2.56-1.64,4.92-3.63,7.1-.7.94-1.02,2.02-.98,3.25-2.3,1.67-3.75,4.15-4.33,7.43-.77.38-1.29.9-1.56,1.56l-.59.25c.44,1.45-.13,2.04-1.46,2.52.31.88-.16,1.26-.87,1.67-.9,1.41-1.66,2.63-1.75,4.3l-1.51,1.48c-.56,1.4-1.23,2.74-2.02,4.01-1.13.77-1.21.84-.72,2.05-1.68,1.05-2.38,2.2-2.32,4.23-1.15.89-1.18.96-1.32,2.36-.83.06-1.25.46-1.24,1.19-2.54,3.56-4.69,7.37-6.46,11.42-1.48,1.07-2.13,2.4-1.95,4.01-1.83,1.88-3.21,4.14-4.15,6.79l-3.05,4.27c-2.45,4.51-4.9,8.94-7.35,13.31l-.04,1.22c-2.12,2.06-3.66,4.57-4.63,7.54l-2.1,2.53c.07,1.05-.47,2.02-1.62,2.91-.21,1.12-.73,1.53-1.57,1.23Z"/>
  <path class="st13" d="M144.96,44.4c.41.28.54.41.64.85.18.75-2.83,7.39-4.41,7.76.04.81-.19,1.45-.69,1.93.19.86-.42,1.54-1.81,2.02-.27,2.62-1.55,5.02-3.52,6.74-.23.93-.67,1.56-1.32,1.88-.49,2.29-1.57,4.41-3.22,6.37-.23,1.86-.63,2.68-2.21,3.75-1.7,2.62-3.14,5.4-4.3,8.35-1.17,2.29-2.26,3.77-4,5.51-.27,2.1-1.08,3.84-2.45,5.22-.05,1.28-.49,1.61-1.56,2.11-.6,2.34-1.23,3.79-3.08,5.39-.2,1.62-.46,2.44-1.78,3.45l-1.53,2.61c-1,.77-1.38,1.75-1.14,2.92-1.87,1.93-3.16,4.48-3.75,7.1l-.64.79c-1.49.82-3.1,2.26-2.74,4.1-1.56,3.27-3.49,6.51-5.94,9.16l-1.76,3.91c0,1.35-.39,1.77-1.39,2.53-.07,1.34-.55,1.98-1.42,1.9l-1.18,2.71c-1.58,1.75-2.44,3.13-2.6,5.55-2.52,2.12-3.66,4.81-4.86,7.77-1.08.76-1.59,1.76-1.51,2.98-.9,1.43-1.98,2.75-3.24,3.98-.25,1.41-.75,2.45-1.5,3.12.29.74-.08,1.41-1.12,2.02-.16,1.69-.81,2.77-1.96,3.23-.5,2.32-1.33,3.9-3.62,4.76-9.84-4.64-19.71-9.23-29.52-13.92,1.08-.28.85-1.04,1.19-1.51.26-.37,1.4-1.44,1.58-1.86.13-.31-.14-.64-.01-.95.3-.68,1.9-2.14,2.15-2.66,1-2.04,1.39-3.73,2.88-5.76.34-.46,1.56-1.45,1.7-1.67.13-.21-.13-.77.04-1.36.23-.77,1.52-2.65,2.03-3.51,1.8-3.1,3.56-6.1,5.11-9.29.95-1.94,2.91-3.66,3.66-5.46.62-1.48,1.41-3.13,2.36-4.6.32-.5,1.27-1.11,1.43-1.47.24-.55-.31-1.01.05-1.85.38-.9,1.63-1.57,2-2.33.72-1.49,1.13-2.69,2.05-4.2,1.13-1.86,2.1-3.87,3.16-5.71.32-.56.81-.81,1.12-1.28.17-.26.1-.75.25-.95.28-.38.99-.15,1.08-.24.08-.08-.09-.99.12-1.44.19-.39,1.06-.51,1.2-1.16.1-.46-.28-.87.06-1.65.04-.09,1.01-1.61,1.08-1.68.19-.18,1.14-.39,1.13-.66,0-.12-.75-.38-.3-1.26.25-.5.76-.56,1.03-.9,1.05-1.3,1.18-2.59,1.91-3.85.31-.53,1.41-1.3,1.56-1.56.26-.43.03-1.03.17-1.51.05-.16,1.52-2.74,1.63-2.87.22-.27.73-.4.84-.64s-.21-.65-.01-.98c.21-.34,1.21-.46,1.47-.97s-.34-1.35-.12-1.66c.08-.11.61-.09.79-.23.23-.19.13-.62.4-.85s.72-.12,1.07-.62.77-2.78,1.15-3.65c.34-.77,1.49-2.67,2.11-3.17.29-.24.92-.35,1.07-.61.32-.53-.13-1.08,0-1.45.71-1.99,3.64-5.1,4.3-6.96.2-.58.06-1.63.34-2.01.18-.24.71-.06,1.1-.38.53-.43,1.25-2.92,1.69-3.59.26-.39.8-.48.95-.73.3-.5.08-1.7.63-2.49.39-.55,1.41-1.29,1.76-2.08,1.24-2.87,2.32-4.25,3.91-6.77.29-.45.6-2.1,1.01-2.71.33-.49,1.35-.8,1.57-1.31.25-.56.02-1.6.33-2.02.24-.32.8.04,1.02-.27.19-.27.12-1,.27-1.36.78-1.79,1.89-2.54,2.65-4.55.32-.86,1.19-2.13,1.32-2.53.12-.38-.01-.84.18-1.26.17-.38.92-.71,1.08-1.2,9.61,4.54,19.2,9.13,28.8,13.68Z"/>
  <path class="st8" d="M226.08,82.08l1.2.48c.23.07.48.16.72.24.52.81-.61,1.69-.9,2.34-.38.87-.9,3.1-1.4,3.88-.22.34-1.43,1.37-1.65,1.71-.35.55-.24,1.61-.64,2.24s-1.82,1.6-2.24,2.32c-.65,1.14-.98,2.94-1.85,4.39-.46.77-1.18,1.9-1.68,2.67-.27.41-.85.12-.92.5s.34.75.12,1.29c-.13.32-.91,1.05-1.18,1.48-.64.99-1.52,2.38-1.99,3.53-.26.63-.22,1.48-.58,2.07s-2,1.92-2.19,2.36c-.27.65-.05,1.5-.23,1.81-.19.33-1.66,1.77-2.13,2.55-.27.44-.14.97-.35,1.33-.17.29-1.46,1.2-1.68,1.7-.27.59.18.98.01,1.42-.8,2.06-3.29,3.47-3.95,5.66-.1.34.07.81,0,1.14-.03.13-1.51,1.78-1.68,2.04-.41.63-.44,2.32-.52,2.42s-.56,0-.8.27c-.19.22-.32.97-.55,1.37-.26.44-.73.79-.91,1.26-.14.36-.02,1.03-.15,1.17-.07.08-.5.05-.78.29-.35.31-1.76,2.07-1.94,2.38-.07.12-.13,1.56-.75,2.63-1.1,1.91-2.37,3.8-3.65,5.7-.38.56-.75,1.79-.97,2.09-.2.26-.71.14-.87.38-.24.35-.02,1.06-.16,1.53-.1.35-.61.64-.8,1.12-.24.61-.14,1.62-.49,2.15-.44.68-1.59,1.37-1.97,1.75-.58.58-1.62,2.9-2.07,3.81-.94,1.89-2.11,4.53-3.16,6.21-.11.18-.53.16-.6.41-.07.29.11.79-.02,1-.11.17-.94.14-1.12.32-.2.2-.12.99-.36,1.32-.14.19-.59.21-.77.55-.27.5-.19,1.81-.41,2.11-.16.21-.77.16-.88.33-.12.19,0,.8-.14,1.17-.12.3-.91,1.88-1.09,2.22-.15.29-.69.15-.86.39-.2.29-.02.85-.23,1.21-.16.27-.74.35-.96.73-.13.22-.3,2.26-.4,2.37-.08.08-.47-.07-.7.18-.1.11-1.67,2.42-1.73,2.56-.3.72.2,1.28.03,1.57-.05.09-.43.12-.54.29-.89,1.45-2.24,3.83-3.25,5.16-.26.34-.87.56-.92.64-.3.53.21,1.59-.8,2.68-.4.43-1.09.62-1.13.67-.13.21.03.69-.08,1s-.54.29-.68.58c-.26.59-.17,1.92-.49,2.51-.59,1.09-1.76,1.83-2.65,3.6-.11.22-.43.17-.45.2-.36.55.7.58.7.82,0,.14-.66.41-.82.62-1.87,2.45-2.63,4.48-4.01,7.03-.71,1.32-2.43,2.41-3.34,3.64l-1.19-.13c-.55-.25-1.12-.47-1.68-.72-.24-.29-.59-.42-.96-.48-8.34-3.77-16.49-7.78-24.72-11.76-.53-1.04-.04-2.21,1.47-3.52.96-2.32,2.06-4.6,3.54-6.62l1.27-1.02c.31-1.95,1.21-3.71,2.71-5.26.17-1.26.27-2.02,1.54-2.57l.08-.88c1.36-3.4,3.66-6.62,5.97-9.45.15-1.88,1.13-3.56,2.94-5.06.03-1.15.37-1.77,1.03-1.88.48-2.08,1.52-3.91,3.11-5.48.3-2.13,1.34-4.01,3.1-5.64-.11-1.99,1.58-4.17,3.28-5.15-.22-.89,0-1.51.69-1.84l.2-.84c1.87-2.46,3.29-5.11,4.47-7.98,1.55-2.27,2.92-4.56,4.11-7.04.06-1.17.28-1.71,1.52-1.84.09-1.65.66-2.71,1.71-3.18.22-.98.79-1.85,1.71-2.61-.16-.91-.16-1.9.97-2.01l.47-1.37c1.58-2.13,2.89-4.38,3.94-6.76-.27-1.04.38-1.86,1.96-2.49.57-2.21,1.23-4.01,2.86-5.72-.05-.98.3-1.49,1.04-1.53.31-1.17.98-2.23,2.01-3.17-.15-.89-.23-1.53.87-1.63.57-2.06,1.64-3.98,3.21-5.75.52-1.78,1.46-3.39,2.84-4.83-.02-1.71.54-2.63,1.67-2.75.8-2.75,2.15-5.33,4.06-7.76.85-2.72,2.26-4.97,4.23-6.73l.52-1.82c-1.2-.28-1.59-.71-1.19-1.27,8.89,4.14,19.94,9.95,29.04,12.96Z"/>
  <path class="st10" d="M170.16,56.4c1.05.82,1.4,2.34,0,2.98.6.72.66,1.57-.24,2.03.43,1.02-.15,1.55-1.72,1.58-.4.79-.89,1.28-1.47,1.47l.09,2.52c-.13.64-1.35,2.18-2.13,2.35,1.53.74,1.05,2.22-.55,1.5-.17.6-.4,1.17-.7,1.72.52,1.93-.32,3.14-2.36,2.94.11.44.16.92-.12,1.32,1.36,1.83-.5,4.06-2.12,1.39.65.88.46,1.68-.34,2.37,1.12,1.1.47,2.4-.99,1.54-.11.86-.24,1.33-1.27,1.12-.35,1.28-.9,2.49-1.64,3.61.45,1.16-.28,1.43-1.29,1.42.44,1.07.35,1.8-.25,2.2l.07.74c-.32.73-.69,1.41-1.11,2.04-1.28-.14-1.78,1.85-1.07,2.71.09.9-.5,1.58-1.42,1.47,0,.88-.61,1.03-1.37.98,1.3,1,.89,2.3-.71,1.49.3,1.25-.1,2.08-1.44,1.34.59,1.91.34,3.05-.75,3.43.37,1.17-.58,1.51-1.57,1.43.1,1.11-.08,2.04-1.41,1.8-.23.4-.5.79-1.01.83.72,1.57.61,2.32-.34,2.24l-.1.65c-.75.3-1.03.85-.83,1.64-.88.27-1.47.73-1.77,1.38,1.99,0,.84,1.6-.23,2.43,1.1,2.76-.44,2.88-2.61,3.02-.28.67-.69,1.14-1.23,1.41.98,1.67.86,2.52-.36,2.56-.24.67-.73,1.22-1.46,1.65,1.46,1.37.23,2.94-1.34,1.6-.75.53-.84,1.19-.25,1.98-.39.64-.76,1.31-1.12,2.01-1.03.15-1.5.54-1.4,1.19.58,1.41.61,1.99-.92,2.56l-.9,1.43c-.87.27-1.23.61-.28,1.16.62.67.29,1.18-.99,1.51.44,1.08.23,1.62-.64,1.6.07.51-.19.82-.69.91l-.06.71c-1.1.45-1.76.76-.71,1.94.28,1.08-.98,1.79-1.93,1.84-.57.55-1.17,1.08-1.79,1.6.91,1.11,1.55,2.95-.56,2.49.02-.73-.96.48-1.16.83.13,1.34-.85,1.79-1.96,2.22.44.42.53.99.24,1.7.98,1.28.4,2.17-1.74,2.68-.38.8-.87,1.27-1.48,1.41.13,1.12.05,2.1-.24,2.95.92.86.23,1.68-.86,1.72.09,1.06-.63,1.62-1.62,1.27-.49,1.19-.47,1.48.03,2.63-.56.67-1.14,1.26-1.72,1.78-1.43,0-2.04.03-1.83,1.61-1.06.48-1.34.9-.84,1.26.01.19-.79,2.06-1.03,2.35.96,1.25-.26,2.24-1.36,1.13-.14.39-.44.64-.9.75-.23,1.47-.22,2.3.09,3.74-.62.54-1.09,1.22-1.4,2.05-.99.09-1.45.6-1.4,1.53-1.17.49-1.88.79-.25.94.32,1.42-.44,3.46-2.26,2.83.33,1.57-1.19,1.54-2.3,1.27-8.44-3.97-16.97-8.01-25.44-12,.25-1.1,1.82-1.37,2.27-2.17.3-.52.69-2.39.97-2.87.2-.34.93-.34,1.19-.73.35-.52.33-1.97.89-2.71.36-.47.77-.33.94-.56.22-.31-.09-.86,0-1.13.11-.32.54-.31.63-.45.19-.3.49-2.14.92-2.81.55-.85,2.62-2.56,3.09-3.62.23-.52.05-1.13.23-1.69.22-.73,1.19-1.15,1.45-1.67,1.2-2.52,1.25-3.69,3.14-5.98.34-.41,1.56-1.51,1.67-1.69.25-.42.11-1.84.55-2.81.48-1.05,1.53-1.96,1.97-2.65.56-.87.91-2.31,1.32-2.96.19-.31.75.15.97-.21.2-.32.1-1,.38-1.55s1.03-.77,1.11-.93c.19-.34.05-1.19.3-1.68.68-1.3,1.13-2.76,1.74-3.84.38-.68,1.07-1.04,1.48-1.64.84-1.24,4.18-6.36,4.4-7.38.11-.51-.15-.95-.05-1.26.04-.12,1.32-2.04,1.44-2.14.65-.54,1.45-.62,2.04-1.62.27-.45.18-1.16.41-1.69.56-1.28,1.57-3.23,2.35-4.37.26-.38.95-.77,1.04-1.14.13-.53-.33-.97-.1-1.5.11-.26.64-.54.85-.85.88-1.24,1.15-1.68,1.81-2.99.22-.44,1.36-1.32,1.42-1.45.25-.5.07-1.18.31-1.85.4-1.1,1.7-1.67,1.99-2.15.47-.78.83-2.85,1.22-3.52.29-.5.92-.4,1.19-.73.28-.35.15-.92.34-1.34.16-.35.98-.98,1.32-1.56.78-1.29.61-2.64,1.12-3.67.43-.86,1.69-1.7,2.19-2.38,2.3-3.1,3.76-8.62,6.17-11.59.3-.37,1.5-1.19,1.66-1.46.33-.55-.03-1.54.74-2.62.6-.84,2.18-3.11,2.61-4.11.2-.48.3-1.98.43-2.11.1-.1.47.01.6-.09.19-.14.4-1.3.81-1.73.74-.77,1.26-1.05,1.82-2.13.28-.53.71-1.23.9-1.62.29-.6.44-2.42.67-2.82.21-.36,1.79-.95,1.85-1.04.12-.18-.17-.61-.14-.82.04-.26.46-.42.58-.77.13-.37,0-.82.18-1.26.24-.58,1.33-.95,1.57-1.31.14-.2.63-1.25.85-1.66.66-1.22,1.42-2.98,1.82-4.31.13-.44.28-.69-.06-1.12,8.4,3.99,16.79,8.02,25.2,12Z"/>
  <path class="st5" d="M468.48,340.32c7.34,1.66,12.05,12.41,9.53,19.25-15.66,34.98-30.62,70.3-46.49,105.19-4.14,9.1-7.23,17.42-19.33,16.45-4.84-.39-16.25-6.79-21.23-9.13-.02-.97,1.1-1.68,1.33-2.39.74-2.23.97-1.85,2.04-3.54.91-1.45,1.3-3.02,1.92-4.45.27-.62,1.71-1.82,2.01-2.36.21-.38.16-.92.36-1.26.19-.32,1.83-1.25,1.92-1.76.05-.32-.53-.63-.46-.92.05-.21.57-.26.67-.42.16-.27.04-.91.21-1.33.12-.3,1.13-.87,1.49-1.65.39-.84.38-1.86.9-2.7.9-1.45,3.21-4,3.81-5.55.19-.48.04-1.14.24-1.44.14-.21.72-.2,1.07-.61.59-.7,1.16-3.35,1.75-4.25.26-.39.77-.5.87-.81.12-.34-.02-1.24.03-1.28.11-.08.74.13.93-.03.08-.07.07-.56.26-.81,1.37-1.7,1.12-2.73,1.76-3.65.23-.33,1.46-.94,1.73-1.53.18-.38-.09-.75.05-1.12.17-.46.91-.84.97-1.17.05-.29-.25-.66-.15-1.11.5-2.22,3.39-3.78,4.04-6.49.06-.24.5-.23.67-.58.28-.55.68-1.91,1.27-2.35.18-.14.58-.07.67-.16.17-.18-.04-1.28.04-1.65l.96.48c-.17-1.32-.32-1.85.48-3,.9-1.29,2.54-3.14,3.23-4.46.12-.23-.08-.62,0-.72.21-.26.76-.17.83-.24.19-.21-.23-.96-.17-1.27.09-.47,1.53-2.09,1.58-2.22.21-.62.34-2.22.74-2.81.18-.26,1.24-.37,1.57-.89.23-.36.15-.9.36-1.26.67-1.14,1.8-3.11,2.49-4.17.38-.6,2.21-1.95,2.45-2.48.27-.61-.15-.99-.08-1.5.11-.86,1.07-.99,1.25-1.44.22-.56-.24-1.03.02-1.61.33-.73,2-2.11,2.49-3.05.35-.67.37-1.51.65-2,.19-.33,1.45-1.16,1.68-1.69.17-.41-.22-.97-.13-1.51.02-.13,1.62-1.49,1.79-1.86.41-.88.53-2.26,1.32-3.18.26-.3,1.61-.93,1.82-1.36.35-.72-.32-1.8,1.08-1.69.14-.45-.56-.73-.48-1.07.05-.2.65-.36.83-.62,1.78-2.64,2.56-5.42,3.93-8.07.37-.71,1.18-1.36,1.58-2.02.38-.62.79-2.16.91-2.33.16-.23,1.14-.14,1.51-.78s.22-1.78.63-2.49c.26-.44.82-.56.88-.67.17-.3-.06-.86.16-1.17.16-.22.64-.14.79-.28.07-.07.87-1.54.91-1.63.17-.44-.26-.87-.09-1.15.41-.67,1.43-2.1,2.01-2.91,1.03-1.42,2.06-2,2.68-3.8.13-.39-.01-.98.18-1.26.33-.48,1.76-.35,2.3-.23Z"/>
  <path class="st0" d="M184.8,63.36c1.31.98,1.99,1.5.29,2.51-.44,1.86-1.39,3.52-2.85,4.98.75,1.91.3,2.37-1.18,3.73.15.91-.32,1.21-1.17,1.14-.18.78-.54,1.42-1.09,1.92.88,1.39.15,1.41-1.09,1.3-.29.84-.79,1.64-1.5,2.41l-.24,1.19c-1.09.59-1.44,1.42-.97,2.62-.43.44-.7.94-.8,1.48-1.44.61-2.89,2.17-3.09,3.75-.34.78-.74,1.53-1.19,2.24.06.22-.02.3-.24.24l-.28.61c.2,1.35-.22,2.55-1.16,3.56.23.96.15,1.84-1.05,1.69-.03.97-.23,1.25-1.24,1.25-.81.55-2.02,1.79-1.59,2.77l-1.55,2.52c-.89.88-1.46,2.03-1.72,3.46-1.13.23-1.39.95-.79,2.14-1.16.52-1.79,1.46-2.07,2.81l-.58.16c-.63,1.2-1.13,2.57-1.48,4.1l-.59.35c-.38.85-.6,1.72-.65,2.63-.5.13-.83.52-.97,1.16-.81.06-1.33.57-1.55,1.53-.83.43-.99.93-.49,1.49-1.01.35-1.44.95-1.29,1.8-.75.45-1.02.67-1.07,1.57-.89.63-1.38,1.5-1.48,2.6l-.92.69c-.1.77-.41,1.54-.92,2.29-.14.42-.25,1.78-.27,2.23-1.21.94-2.02,2.46-2.58,3.96-.6.88-1.18,1.58-2.22,2.05l.06,1.06c-.79,1.25-1.75,2.33-2.85,3.29.3,1.7-.14,2.76-1.32,3.2.48.89-.22,1.4-.92,1.9l-1.11,1.27c-1.05,1.36-2,2.82-1.9,4.62-.66.04-.89.27-.69.69-.85,1.06-1.09,2.26-1.07,3.59-.2.57-.79,1.63-1.41,1.6.03.74-.55,1.11-1.73,1.11-.29,1.01-.57,2.04-.82,3.1-.48.28-1.34,1.26-1.68,1.76-1.09,1.6-2.04,3.1-1.69,4.99-.05.13-1.72,1.74-2.1,1.48-.14.78-.6,1.55-1.38,2.32l-.33,1.3c-.68.42-1.08,1.13-1.19,2.12.31.35.17.48-.24.24-.19,1.07-.63,1.85-1.29,2.35,1.5.48.06,2.9-1.1,1.77-.43,1.23-1.42,2.73-2.22,3.94-.82.23-1.26.97-.6,1.57-1.03,1.57-2.24,3.07-3.67,4.3-.04.18-.28.18-.72,0-.49-.24-.96-.49-1.44-.72l-.96-.48c-.19-.09-.47-.12-.72-.24-.44-.3-.92-.54-1.44-.72-3.37-1.21-6.68-3.31-9.84-4.8.72-.33,2.46-.24,1.8-1.21-.15-.22-.68-.09-.6-.47.59-.48,2.02.23,2.37-.03.09-.07.82-2.05.74-2.13-.63-.11-.93.79-1.32.96-.87.37.58-2.04.39-2.37,1.93.22.8-.57,1.28-1.24.2-.28.91-.18,1.24-.44.37-.3.25-.88.47-1.21.18-.27.7-.33.81-.65.14-.44-.42-1.11-.42-1.64,0-.42.26-.88.34-1.32.06-.31-.18-.8-.03-.98.18-.21.63-.14.79-.3.15-.15.24-1.26.78-.89.06.04.4,1.26.96.72.47-.46-.63-.75-.48-1.07.09-.19.46-.36.58-.62.25-.57.1-1.47.85-1.43l-.72-.59c.23-.91,1.38-1.02,1.44-1.1.08-.1-.37-.67.02-1.27.64-.98,1.78-.39,2.39-.75.34-.2-.09-.71,0-.82.08-.1,1.03-.22,1.19-.63-1.27-.93-.17-1.9-.23-2.16-.11-.48-1.17.13-.24-1.32,1.03,1.12,2.44,1.01,1.68-.72.8.24,2.21-.15,1.2-.85-.31-.21-1.17.1-.96-.47.08-.23,1.13-.26,1.2-.36.09-.12-.47-2.26.04-2.84.09-.1.55-.04.8-.28.22-.21.21-.67.43-.89.69-.7,2.25-.93,2.33-1.03.23-.33-.44-.98-.48-1.34-.14-1.03.91-1.16-.71-1.66.44-.84,1.95-.85,2.33-1.62.15-.3.01-.66.12-.96.17-.46.62-.58.78-.91s.09-.92.13-.95c.62-.63.84.9,1.08.96,1.56-.38-.44-1.72-.34-2.25.13-.73,1.87-1.59,1.9-1.72.06-.24-.77-1.03-.48-1.31.48-.47,1.06.56.96.96,1.31-.19,2.23-1.42.48-1.8.78-1.02.26-1.69,1.92-1.68-.31-.24-1.66-1.05-1.2-1.56.18-.2,1.19.81,1.68.48l-.24-2.16.84,1.43c.67-.42-.04-.66-.04-1.07,0-.7.74-.96,1.36-.85.17-.63-.63-.55-.72-.89-.41-1.53.39-1.11.86-1.49.35-.29.38-1,.94-1.47.31-.26,1.04-.45,1.07-.5.35-.48-1.26-2.12.27-2.96.28-.15.76-.11.95-.25.33-.25.13-.76.29-1.03.1-.16.59-.2.65-.43.08-.29-.64-.99-.49-1.63.05-.19,1.1-.45.74-1.36.29-.35,1.35,1.45,1.92.72.47-.61-1.04-1.59-.96-1.68.19-.19,1.24-.67,1.6-1.04.31-.32.02-1.15,1.28-.88.18-.8-1.04-1.74-.61-2.4.12-.19.55-.27.72-.5.24-.3.24-.75.53-.96,1.18-.87,3.39.83,2.72-2.14l-1.19-.12c.96-.51,1.74-1.28,2.39-2.16-.07-.75-1.63.6-1.14-.91.43-1.33,1.76-1.26,1.87-1.37.1-.11-.32-.74-.23-1.05.12-.41.79-.29.9-.43.33-.4-.39-1.46,1.25-.92-.43-.41-1.07-1.96-.68-2.38.06-.07.44.03.6-.09.22-.18.24-.55.62-.72.27-.12.69.11.91-.04.35-.24.06-1.63.24-1.81.15-.14,1.47.28,1.63-.39.05-.2-.27-.6-.1-.82.18-.24.81-.22,1.01-.46.28-.34-.89-3.51.18-3.34.24.04.62.64,1.12.45l-.24-1.92,1.68.72c-.01-.84-1.18-.99-.96-1.92h1.3c.79-.95-1.21-.78-1.06-1.56.19-1,1.36.46,1.61.55.93.33,1.25-.76.93-1.17-.28-.36-1.23-.09-1.34-.7,1.49.32,1.58-2.04,1.69-2.15.12-.12,1.03.17,1.33-.24.26-.36-.17-.85-.11-.94.06-.09.57-.09.68-.41.32-1.02-.54-.97-1.06-1.06-1.21-.2.73-1.04,1.16-.98.26.04.24.74.63.74-1.47-3.07.64-1.9.96-2.4.07-.1-.22-.53-.17-.79.24-1.13.9-1.56,1.2-2.15.27-.54.57-2.24.65-2.34.43-.49.54.99.96.48.06-.08-.12-1.07.37-1.2.44-.12,1.19.84,1.32.11.06-.37-.69-.87-.67-1.2.04-.51,1.67-.77.18-2.39,1.57-1.37,1.1,1.26,2.64.84l.24-1.68c-.49-.19-.92.71-1.08.71-1.13,0,.6-1.34.67-1.5.26-.57-.32-1.16.16-1.5.25-.17,1.68.57,2.29-.84.22-.51-.18-.98-.13-1.53.07-.84,1.12-1.45.48-2.54.21-.21,1.32.76,1.68.48.52-.42-1.07-.68-.95-1.3.2-.53.91-.51,1.18-.75.24-.22.22-.57.4-.81.15-.2.55-.23.59-.42.08-.42-.34-2.66.01-3.17.1-.14.65-.09.87-.33.12-.14.12-.55.29-.77.62-.79,1.24-.62,2.17-.6-.55-1.67.02-1.16.37-1.67.42-.6-.52-1-.36-1.54.11-.35.83-.41.91-.77.07-.27-.31-1.62-.44-2.02,4.88,2.31,9.76,4.66,14.64,6.96Z"/>
  <path class="st0" d="M191.76,66.72l.96.48c1.43.67,2.9,1.26,4.32,1.92.21.72,1.48.57,1.66,1.11.09.27-.44,1.97-.59,2.24-.25.42-.78.49-1.08.84-.31.37-2.11,3.22-2.16,3.42-.74,3.08-3.11,5.1-4.49,8.16-.26.57-.46,1.97-.51,2.06-.21.31-1.1.19-1.36.63s-.02,1.05-.12,1.52c-.25,1.14-2.04,2.61-2.5,3.54-.25.5-.23,1.37-.63,1.95-.94,1.35-2.03,2.69-2.81,4.22-.23.45-.22,1.25-.42,1.51-.22.28-.76.18-.83.25-.17.19.21.87.09,1.2-.09.24-1.47,1.72-1.8,2.25-.21.35-.18.89-.35,1.1-.21.27-.71.16-.8.27-.11.13.01.77-.16,1.16-.19.43-1.48,1.85-1.74,2.34-.53,1.02-.77,2.69-1.15,3.42-.33.64-1.75.92-1.94,1.2-.23.33.16.76.02,1.2-.1.32-.78,1.7-.99,2.15-.82,1.74-2.09,3.18-2.98,4.7-.25.43-.43,1.41-.53,1.51-.14.14-.64.06-.79.28-.28.4,0,1.09-.1,1.53-.03.12-1.31,1.47-1.56,1.87-.16.26-.05.72-.17.9-.13.19-.69.09-.93.45-.4.6-.62,2.47-.81,2.73-.24.33-.99.12-1.23.45-.18.25-.07.86-.22,1.22-1.09,2.65-2.57,4.6-3.97,6.82-.85,1.35-1.44,3.48-2.07,4.39-.69,1-.52.34-1.1,1.82-.11.28-1.45,1.86-1.58,2.25-.1.31.04.89-.08,1.01-.09.09-.57-.05-.66.03-.19.18.14,1.29-.07,1.63-.04.07-1,.34-1.41.87-.18.24-1.68,2.46-1.74,2.6-.19.54.11.85-.05,1.34-.24.73-2.17,2.43-2.63,3.39-.31.65-.21,1.64-.51,2.37-.28.69-1.81,2-2.31,2.97-.37.73-.67,2.36-.89,2.67-.18.25-.64.08-.71.16-.11.13.06.94-.15,1.42-.43.97-2.37,2.33-2.87,3.61-.23.6,0,1.33-.18,1.62-.04.07-.71.8-.99,1.17-1.1,1.46-4.23,6.15-4.83,7.77-.18.48-.04,1.06-.25,1.43-.17.29-.99.49-1.2.96s-.05.97-.25,1.43c-.3.71-2.12,2.6-2.39,3.37-.22.62-.05,1.22-.31,1.85-.31.77-1.24.97-1.62,1.5-.43.61-.48.98-1.08,1.79-1.01,1.37-1.39,2.95-2.12,4.37-.37.73-1.58,1.74-1.79,2.3-.14.38.22.9-.18,1.13-1.13-.55-2.24-1.14-3.36-1.68l-.96-.48c-.28-.14-.73-.25-1.2-.48-.24-.3-.59-.42-.96-.48-2.47-1.2-4.96-2.41-7.44-3.6.22-.03.52.05.72,0,.93-.87,3.51-3.44,3.6-4.38-.64-.62-.2-1.23.57-1.53.51-.96,1.1-1.85,1.77-2.68,1.04.7,1.78.06,1.63-1.11.58-.39.77-1.11.57-2.15l.74-2.07c.07-.09.16-.16.24-.24.09-1.07.48-1.56,1.16-1.47-.32-1.26.61-2.55,1.55-3.37l.41-.83c1.04-.47,1.8-1.46,1.97-2.6.79-.22.89-.84.29-1.86.87-1.5,1.9-2.83,3.09-3.98.04-.52.38-2.53.55-2.78.3-.43.95-.45,1.39-.28.22-.44.48-.84,1.02-.73.2-.82.61-1.65,1.24-2.49-.4-1.5.29-2.89,1.47-3.88-.23-.56.72-3.46,1.23-3.55.08-.01.18.29.23.46q.49.35,0,0l-.27-.15c1.21-1.82,2.59-3.54,4.13-5.17-.78-.4-.51-1.22.34-1.18-.64-.17-.68-.56-.52-1.17l1.94-1.94c.51-1.18,1.1-1.69,1.77-1.52.04-1.37.45-2.18,1.26-2.44.25-1.28.99-2.53,1.66-3.66.16-.26.37-.47.7-.47.05-.97.33-1.49.83-1.57-.8-.38.64-3.05.89-3.25l.66-.11c-.21-1.19.58-2.59,1.56-3.28.06-.86.16-1.09.99-1.42-.17-1.41,1.3-2.09,2.42-2.59,1.65-1.27,1.71-1.65,1.7-3.75l.25-.11c-.16-.98.07-1.29,1.07-1.59.33-1.65.77-3.31,1.32-4.98.27-.16.52-.08.78,0,.15-1.43.69-2.12,1.6-2.08-.45-.54.09-.97.67-1.14-.65-1.01-.66-1.66.65-1.91l.53-1.36c-.04-.81.15-1.8,1.13-1.59.28-1,.78-1.96,1.51-2.88.2-1.48.54-1.49,1.9-1.33.11-1.12.54-1.7,1.28-1.75.24-.98.68-1.65,1.31-1.99-.24-.98.01-2.02.75-3.14-.16-.76-.08-1.41.24-1.94.07-.09.16-.16.24-.24.28-.83.47-1.24,1.34-1.42-.76-1.87,1.8-4.41,3.47-4.77-.22-.37-.18-.71.14-.99-.35-1.54,0-2.28,1.05-2.23-.34-1.29.59-2.57,1.54-3.43-.07-.93.4-1.2,1.42-.82.2-.95.44-1.94.71-2.96,1.11-.09,2.33-.63,2.22-1.99.98-.98,1.11-1.93.39-2.87.96-1.31,1.84-2.7,2.62-4.15.01-.94.42-1.51,1.2-1.71.1-.57.34-.9.7-.98,1.68.79,3.35,1.61,5.04,2.4Z"/>
  <path class="st0" d="M186.72,64.32c0,1.99-1.23,1.48-1.43,1.69-.05.05.02.79-.14,1.17-.38.91-2.67,3.54-2.71,3.77-.08.43.62,1.04.64,1.45.02.37-.76.97-.2,1.76-1.17-.22-.51.54-.83,1.21-.26.53-1.99.61-1.57,2.16-1.03.17.26-.94-.72-1.2l-.49,3.84c-.59-.31-.57-1.2-1.44-.96.23,1.25-.52.98-1.07,1.46-1.19,1.05-.22,2.18-.39,2.72s-.94.26-1.14.43c-.42.35-.35,1.69.67,1.4-.02.38-.95.63-.96.84,0,.27.98.2.72.84-.49.13-1.44-.03-1.85.16-.38.17-.54.72-.91,1.06-.2.18-.64.16-.78.29-.07.06-.77,1.64-.78,1.74-.01.45.63.87.25,1.39-.28.39-.81.24-1.15.48-.1.08-.33.43-.55.64.05-1.79,1.82-4.44,3.02-5.75.21-.23.64-.19.76-.31.16-.16.13-.66.3-.97.08-.13.36-.12.46-.36.34-.79-.08-1.54.05-2.04.12-.46.85-.61,1.14-1.04.11-.16,1.28-2.14,1.34-2.26.49-1.07-.25-1.86,1.81-1.19.1-.52-.64-.75-.47-1.29.1-.31.67-.38.83-.63.22-.36.04-.93.35-1.34.33-.45.82-.1.98-.21.3-.18-.07-.62.2-.97.41-.51.68-.52,1.24-1.38.11-.17.45-.16.48-.33.13-.71-.58-1.08-.46-1.58.22-.92,1.34-1.57,1.66-2.04.77-1.15.88-2.52,1.31-3.43s1.57.12-.12-2.15c.65.31,1.28.66,1.92.96Z"/>
  <path class="st12" d="M267.12,248.64c-.52-.02-1.04.04-1.55,0l-4.93-.72c.59.05,1.2-.06,1.8,0l4.68.72Z"/>
  <path class="st2" d="M329.28,442.8c-.46-.21-1.07-.21-1.44-.72.45.17,1.18,0,1.44.72Z"/>
  <path class="st3" d="M253.44,410.16c-.58,0-1.25-.04-1.68-.48.55.16,1.14.32,1.68.48Z"/>
  <path class="st0" d="M106.08,194.4c-.45-.21-1.07-.21-1.44-.72.46.16,1.18,0,1.44.72Z"/>
  <path class="st12" d="M269.52,248.88c-.53,0-1.35.18-1.68-.24.53,0,1.35-.18,1.68.24Z"/>
  <path class="st7" d="M227.28,82.56c-.4-.11-.9.03-1.2-.48.37.12.91-.04,1.2.48Z"/>
  <path class="st12" d="M272.4,249.12c-.45,0-1.18.16-1.44-.24.45,0,1.18-.16,1.44.24Z"/>
  <path class="st3" d="M332.4,276.72c-.48.02-.91-.09-1.2-.48.37.15.85.35,1.2.48Z"/>
  <path class="st3" d="M334.8,277.68c-.4-.11-.9.03-1.2-.48.38.12.93-.04,1.2.48Z"/>
  <path class="st4" d="M323.04,79.2c-.28.31-.36.75-.96.72.25-.22.35-.79.96-.72Z"/>
  <path class="st2" d="M402.48,309.12c-.61.13-.83-.26-1.2-.48.61-.12.83.26,1.2.48Z"/>
  <path class="st8" d="M192.72,67.2l-.96-.48c.32.15.7.36.96.48Z"/>
  <path class="st7" d="M148.8,214.8c-.37-.17-.68-.35-.96-.48.42-.04.84.04.96.48Z"/>
  <path class="st8" d="M119.76,200.88c-.31-.15-.7-.35-.96-.48l.96.48Z"/>
  <path class="st8" d="M117.6,199.92c-.33-.16-.64-.33-.96-.48.42-.04.84.04.96.48Z"/>
  <path class="st0" d="M107.76,195.12c-.3-.14-.72-.37-.96-.48l.96.48Z"/>
  <path class="st2" d="M406.32,311.04l-.96-.48c.38.17.73.37.96.48Z"/>
  <path class="st2" d="M326.4,441.36c-.45-.19-.72-.37-.96-.48l.96.48Z"/>
  <path class="st12" d="M108,482.88c-.23-.14-.58-.25-.96-.48.44-.04.82.04.96.48Z"/>
  <path class="st12" d="M273.84,246.72c.1.11-.15,1.36-.48,1.2-.35-.6.06-1.64.48-1.2Z"/>
  <path class="st12" d="M336.24,139.2c-.09.08-.9.15-.72-.36.27-.74.97.12.72.36Z"/>
  <path class="st12" d="M299.28,204c-.09.08-.9.15-.72-.36.27-.74.97.12.72.36Z"/>
  <path class="st12" d="M390.24,43.68c-.14-.14.2-.71.36-.71.66,0,0,1.08-.36.71Z"/>
  <path class="st12" d="M324.72,157.68c.07.33-.13.64-.48.72v-.72s.48,0,.48,0Z"/>
  <path class="st0" d="M169.68,92.88c-.51.67.24,1.32.19,1.75s-.86,1.61-.9,2.22c-.02.4.41,1.32.21,1.53-.07.07-.61-.03-.82.25-.27.36-.07,1.17-.71,1.71-.2.17-.59,0-.72.21-.24.4-.14,1.31-.6,1.59-.53.33-1.33-.25-1.44-.13-.02.03,0,.45-.14.69-.84,1.38-1.74,2.04-1.54,3.87l-1.06-.24c-.63.33-.1.79-.19,1.25-.01.08-.6,1.39-.65,1.46-.35.49-1.47.17-.87,1.13.41.66,1.75.09,1.57.95l-2.16.24.96.96c-.34.17-1.82.02-1.93.1-.61.47.38,2.75-1.43,1.82-.04.95-.59,1.86-.79,2.69-.15.61,0,1.63-.21,2.19-.18.51-.95.28-1.13.79-.32.88-.07,2.77-.5,3.52-.05.09-1.44,1.3-1.57,1.38-.44.29-2.15.82-2.43,1.18-.22.27.31.8.04,1.21-.12.19-.57.24-.72.49-.17.27-.09.71-.25.95-.17.25-.68.23-.95.49-1.04.97-.23,2.6-.47,2.89-.25.31-.85.12-1.05.28-.09.07-1.04,1.87-.91,2.11.41.66,1.75.1,1.58.95-.32.06-1.85.18-1.92.24-.51.43.75.5.48.72-.09.07-.49.06-.73.35-.41.51-1.65,2-1.83,2.49-.36.94-.34,1.93-.31,2.93-1.34.23-.09-.53-.96-.96-.04.58-.11,2.46-.63,2.6-.19.05-.54-.25-.81-.09-.6.35-1.72,2.97-2.88,3.14-.1.39.46.72.84.59.5-.16.06-1.17.84-.95.25,1.9-.14,1.88-1.92,1.92l1.19.6c-.23.26-.59.35-.81.63-1.06,1.35-2.46,2.51-3.61,3.83-.19.22-.27.88-.38.94.4-.36,1.08.31.72.72-.23.26-.97-.49-.72-.72-.11.06-.61-.09-.7.01-.15.17.08,1.12-.01,1.5-.07.27-.63.25-.7.54-.06.26.3.69.12,1.32s-1.45,1.59-1.5,1.9c-.09.52.3.66.35,1.09.17,1.47-.88,1.46-1.23,2.36-.19.49.13.85-.04,1.13-.18.3-.66-.05-.85.1-.37.29-.3,2.8-.48,3.5-.35-.05-.36-1.07-.41-1.39-.09-.65.26-2.4-1.03-1.36l.48,1.31c-1.56-.05-.5.94-.83,1.44-.28.43-1.58,1.51-1.91,1.95-.27.35-.92,1.29-1.01,1.66-.14.61.87,1.15.17,2.06-.22.28-.77.19-.74.57l.72.72c-1.24-.22-1.33.54-1.93,1.07-1.16,1.02-.44.44-1.06,1.33-.15.22-.66.24-.95.49-1.19,1.05-.17,2.5-.47,2.88-.25.31-.86.12-1.05.28-.04.04-.16.52-.53.91.06-.54-.13-1.27.04-1.76.12-.35.63-.4.78-.65.44-.71,1.2-1.88,1.52-2.44.17-.3-.04-.85.16-1.16.25-.4,1.06-.09,1.3-.26.12-.08.12-.54.27-.75.11-.16.44-.15.48-.34.17-.76-.32-1.5.05-2.29.27-.58.91-.89,1.26-1.39.29-.41.32-.92.6-1.33.15-.22.6-.27.68-.39.17-.29-.06-.86.16-1.17.17-.24.72-.15.82-.26s.48-2.53.77-2.95c.43-.62,1.23-.14,1.66-.73l-.47-.84c2.51.37,1.46-1.31,1.93-2.75.19-.6.83-1.22.9-1.75.1-.72-.64-1.66,1.01-1.03.03-.34-.07-.74.02-1.07.58-2.1,1.67-3.25,2.94-4.86.15-.19.63-.25.78-.55.25-.46-.22-.93-.12-1.3.1-.4.83-.32,1.06-.63.42-.54.19-2.04.63-2.74.32-.51,1.73-1.44,2.19-2.13.65-.97,0-1.5.29-2.09.24-.47,1.03-.54,1.33-.85.51-.52,2.06-2.97,2.35-3.65.26-.61-.17-1.61,1.02-1.02.11-.87.34-2.08.59-2.91.15-.5.67-.45.73-.89.05-.39-.24-.8-.01-1.24.17-.32.72-.42.96-.74.12-.16,1.41-2.24,1.52-2.44.17-.31-.05-.84.16-1.16.17-.25.77-.18.97-.47.16-.23.08-.67.25-.95.19-.3,1.11-.48.8-.95-.02-.04-.44,0-.46-.14-.15-.82.73-.88,1.07-1.34.25-.34.39-1.1.69-1.35.34-.28,1.03-.24,1.11-.34.12-.16-.08-.68.06-.89.11-.18.87-.21.93-.28.44-.52-.86-.53-.72-1.07,1.44-.5.83-.85,1.07-1.32.2-.37.79-.45.96-.73.35-.59.91-3.52,1.21-3.84.22-.24.67-.17.78-.29.16-.17.33-1.68.88-2.13.26-.21.78-.18.83-.24.35-.38-1.15-2.39.95-2.17.28-.81.61-2.05.93-2.79s1.83-1.66,2.34-3.19c.11-.32-.5-.42-.19-1.12.12-.28,1.61-1.86,1.87-2.02.39-.24.8.06.97-.21.1-.17-.25-.62.22-.99.33-.26.72,0,.86-.09.41-.26-.15-.78.03-1.4.16-.55,1-.43,1.3-2.08.2-1.11-.42-.67.59-1.93Z"/>
  <path class="st0" d="M118.8,181.92c-.17,1.35-.3,2.56-.54,3.9-.04.21-.35.41-.38.59-.06.37.57.57.44,1.03-1.04-.4-1.41,1.2-1.56,1.2-.27,0-.45-1.26-1.09-.84-.45.29-1.44,2.15-.96,2.76-2.02-.59-.74.64-.82.97-.14.59-1.37,2.02-1.91,2.42-.12.55-1.55,1.76-2.07,1.89l3.36-4.2c-1.43-.65.54-1.79,1.06-2.53.18-.25,1.26-1.95,1.32-2.09.31-.68.47-3.55,1.22-1.01.04.04.87-.42.95-.61.32-.73-.29-.51-.53-.65-1.12-.66.33-.92.64-1.39.37-.57.24-.68.85-1.43Z"/>
  <path class="st10" d="M156.12,85.44c.71-.16.82,1.31.23,1.44-.72.15-1.13-1.24-.23-1.44Z"/>
  <path class="st10" d="M106.08,173.04l.6-1.44c.77.53.16,1.44-.6,1.44Z"/>
  <path class="st10" d="M102.6,178.32c.59-.13.8.83.23.96s-.8-.83-.23-.96Z"/>
  <path class="st10" d="M155.04,87.84c.15.11.26.82-.12.96-.67.24-.85-1.64.12-.96Z"/>
  <path class="st10" d="M171.6,59.04c-.06.52-.15,1.13-.72.96v-.96s.72,0,.72,0Z"/>
  <path class="st10" d="M105.36,174.96c-.49.43-.57-.51-.48-.96.66-.2.79.68.48.96Z"/>
  <path class="st10" d="M168,65.52c.24.24-.47.96-.72.72s.47-.96.72-.72Z"/>
  <path class="st10" d="M113.52,160.56c-.08.35-.39.55-.72.48v-.48s.72,0,.72,0Z"/>
  <path class="st10" d="M141.6,111.84v.48s-.72,0-.72,0c.08-.35.39-.55.72-.48Z"/>
  <rect class="st0" x="180.24" y="78.24" width=".24" height="1.2"/>
</svg>