<?xml version="1.0" encoding="UTF-8"?>
<svg id="Layer_1" xmlns="http://www.w3.org/2000/svg" version="1.1" viewBox="0 0 1998.7 365.3">
  <!-- Generator: Adobe Illustrator 29.0.0, SVG Export Plug-In . SVG Version: 2.1.0 Build 186)  -->
  <defs>
    <style>
      .st0 {
        fill: #fff;
      }
    </style>
  </defs>
  <g id="FTc2xk">
    <g>
      <path class="st0" d="M352.7,93.6l-1.8,5.9-104.7,67.8-54.3,177.9L14.6,247.2,56.8,117.9l8.8-1.7-27.9,118.3c39.7,18.8,102.5,75.3,142.9,31.5,20.4-22.1,28.2-61.4,19.5-89.8-10.1-33.3-74.7-67.3-74.8-72.6,0-5.3,10.3-4.1,14.3-2.9,18.4,5.2,81,47,91.8,46.1,40.5-21,77.6-39.8,23.3-75.8-46-30.5-97.1-34.7-145-5.6l-4.3-7.1c1-4.2,68.9-44.3,73.9-45.5s5.5-1.6,8.5,0l164.9,80.9Z"/>
      <path class="st0" d="M582.4,119.7c62.6-8.5,92.6,23.2,85.2,84.7-4.5,37.1-26.7,71-66.3,75.4-12.5,1.4-55.9-.2-58.1-15.3l12.1-132.3c2.3-7.5,19.9-11.5,27.2-12.5ZM583.1,251.9c47.8,14.2,59.8-81.2,37.2-100.6s-24.9-11.8-28.1-2.2l-9,102.7Z"/>
      <path class="st0" d="M210.6,345.2l48.7-162.2c4.4-7.7,66.6-49,75.3-49.8,23.8-2.4,14.2,34.6,11.1,48.1-14.3,63.3-57.4,107-107,145.3s-26.1,20.6-28.1,18.6Z"/>
      <path class="st0" d="M1268.4,277.4h-37s8.4-117.2,8.4-117.2c2.4-22.3-49.8-16.7-51.2-11.2l-11.2,128.3h-37s14.9-146.3,14.9-146.3c29.8-10.8,109.7-21.2,120.3,19,4.3,42.4-7.3,84.8-7.2,127.3Z"/>
      <path class="st0" d="M1103.5,277.4h-37s8.4-117.2,8.4-117.2c2.4-22.3-49.8-16.7-51.2-11.2l-11.2,128.3h-37s14.9-146.4,14.9-146.4c29.8-10.7,109.8-21.2,120.3,19.1,4.3,42.4-7.3,84.8-7.2,127.3Z"/>
      <path class="st0" d="M1979.4,277.4h-37c-3.2-3.2,8-76.9,8.5-89.1,1.8-44.3-4.5-51.7-51.3-39.2l-11.5,128-36.7.3,14.6-146.6c29.5-8.9,98.7-19.8,117.5,11.1,15.4,25.1-7,104-4.1,135.6Z"/>
      <path class="st0" d="M1710.2,265c-38.2-38-14.6-136.6,45.9-143.2,105.3-11.5,85.5,149.3,8.2,158-19.2,2.2-40.1-.8-54.1-14.8ZM1756.7,145.1c-36.2,8.3-41.7,136.7,12,108,25.9-13.8,41-120.2-12-108Z"/>
      <path class="st0" d="M875.2,122.5c63.4-10.8,81.3,36.4,73.9,90.5-6.2,45.5-44,75.8-90.4,65.9-65.4-13.9-52.2-144.8,16.5-156.4ZM862.6,251.1c11.6,9.8,30.1,5.5,39-6.2,13.3-17.6,24.1-90.6-2.7-99.1-49.9-15.8-55.5,89.1-36.3,105.4Z"/>
      <path class="st0" d="M1433.4,201l-98.4,14c-.9,49.6,46.3,42.9,81.1,34.2l4.7,19.7c-60.7,27.2-125.9,10.2-121-66.4,6.7-105.8,149.5-113.7,133.6-1.4ZM1333.8,195.3l65.5-9.8c7-4.7-1.2-38.2-15.8-41-34.9-6.7-47.6,21.1-49.7,50.8Z"/>
      <path class="st0" d="M516.7,262.2c-21.7,21.6-71.1,24.8-95.4,5.3l11.1-24.1c8.5,1.7,16.1,6.8,24.9,7.8,48.7,5.8,49.1-53.8-2.2-44.6-8-34.3,25.5-18.1,37.1-38,16.6-28.5-32.8-23.4-48.5-15.7l-5.7-25.4c31.5-14.5,102-15.8,93.2,34.6-2.5,14.5-13.8,16.8-19.2,28.9,27.2,15.1,25,51,4.7,71.2Z"/>
      <path class="st0" d="M793.2,149.9c-8.5,1.2-15.2-5.6-23.6-5.3-46.2,1.9-53.3,104.4-14.3,110,19.3,2.8,33.8-18,31.2,17.1-38.6,21.3-86.6,4.8-92.2-41.4-6.7-54.8,18.1-117.2,83.3-108.3,20.3,2.8,26.4,9.3,15.6,27.8Z"/>
      <polygon class="st0" points="1666.6 124.6 1652.6 275.7 1615.4 277.3 1629.6 124.6 1666.6 124.6"/>
      <path class="st0" d="M1547.1,277.3c-10.4-35.1-35.6-59.5-20.5-98.2,1.3-3.4,31-49.7,33.4-51.6,5.2-4.3,24.1-3.8,31.3-2.9,4,.5,4.9-1.6,4.2,4.2l-48.2,67.9,39.7,80.6h-39.8Z"/>
      <path class="st0" d="M1478.9,277.3h-39.8l53.6-78.4c1.5-3.4,0-6-1.1-9.1-6.9-19.5-27.2-43.7-35.5-63.8,9.6-1.4,30.3-5,36.7,3.1s24.9,50.7,25,55.7c.2,5.6-1.9,24.8-3.3,30.4-4.5,17.4-30.5,42.7-35.6,62.1Z"/>
    </g>
  </g>
</svg>