<?xml version="1.0" encoding="UTF-8"?>
<svg id="Layer_1" xmlns="http://www.w3.org/2000/svg" version="1.1" viewBox="0 0 500 346.24">
  <!-- Generator: Adobe Illustrator 29.0.0, SVG Export Plug-In . SVG Version: 2.1.0 Build 186)  -->
  <defs>
    <style>
      .st0 {
        fill: #479443;
      }

      .st1 {
        fill: #459143;
      }

      .st2 {
        fill: #56a946;
      }

      .st3 {
        fill: #56a546;
      }

      .st4 {
        fill: #469143;
      }

      .st5 {
        fill: #fae010;
      }

      .st6 {
        fill: #307038;
      }

      .st7 {
        fill: #32763a;
      }

      .st8 {
        fill: #307439;
      }

      .st9 {
        fill: #448d41;
      }

      .st10 {
        fill: #489644;
      }

      .st11 {
        fill: #428b41;
      }

      .st12 {
        fill: #3f863f;
      }

      .st13 {
        fill: #438c41;
      }

      .st14 {
        fill: #509e45;
      }

      .st15 {
        fill: #4d9b45;
      }

      .st16 {
        fill: #2f7339;
      }

      .st17 {
        fill: #33763a;
      }

      .st18 {
        fill: #51a146;
      }

      .st19 {
        fill: #499644;
      }

      .st20 {
        fill: #3a7f3d;
      }

      .st21 {
        fill: #3c813e;
      }

      .st22 {
        fill: #4a9844;
      }

      .st23 {
        fill: #428a41;
      }

      .st24 {
        fill: #3f853f;
      }

      .st25 {
        fill: #3d823e;
      }

      .st26 {
        fill: #377b3c;
      }

      .st27 {
        fill: #2a7339;
      }

      .st28 {
        fill: #458f42;
      }

      .st29 {
        fill: #4f9d45;
      }

      .st30 {
        fill: #4b9844;
      }
    </style>
  </defs>
  <g id="bMdzEs">
    <g>
      <path class="st27" d="M491.14,280.86v9.35l-.38.81h-29.24l-.49-.81c.32.08.79.21.81.46.18,1.73.17,5.78,0,7.51l-.81.57.38-.81h23.54l.49.81.81.47v8.3l-.81.59c-.03.32-.15.8-.38.81-6.62.25-14.95.43-21.49,0-1.38.27-2.23,0-2.54-.81.32.04.78.13.81.36.1.75.14,7.55,0,8.01l-.81.58.38-.81h29.24l.49.81v9.35h-40.68v-45.54h40.68Z"/>
      <path class="st27" d="M366.15,27.62c24.87,59.02,25.19,128.03-.08,186.97-70.27,34.52-156.31,34.37-226.6-.02-24.76-58.83-25-128.1.22-186.83,70.29-34.56,156.08-34.24,226.47-.12Z"/>
      <path class="st27" d="M205.16,311.35v-30.5h10.58v45.54h-10.37c-9.51-10.1-18.16-21.03-27.87-30.9v30.9h-9.97s-.61-.57-.61-.61v-44.93h10.78l27.46,30.5Z"/>
      <polygon class="st27" points="390.26 280.86 390.26 290.21 358.53 290.21 358.53 298.75 382.93 298.75 382.93 308.1 358.53 308.1 358.53 317.05 390.26 317.05 390.26 326.4 347.95 326.4 347.95 280.86 390.26 280.86"/>
      <polygon class="st27" points="341.03 280.86 341.03 290.21 309.71 290.21 309.71 298.75 333.71 298.75 333.71 308.1 309.71 308.1 309.71 317.05 341.03 317.05 341.03 326.4 299.13 326.4 299.13 280.86 341.03 280.86"/>
      <path class="st27" d="M120.55,280.86v17.89h27.26v-17.89h10.58v45.54h-9.97s-.61-.57-.61-.61v-17.69h-27.26v18.3h-10.58v-45.54h10.58Z"/>
      <path class="st27" d="M43.26,269.47v38.02c0,2.54-1.65,8.2-2.93,10.49-6.52,11.72-26.15,9.85-37.35,8.01v-10.57c6.78,2.4,23.33,4.27,27.76-2.54.86-1.33,1.94-4.71,1.94-6.2v-37.21h10.58Z"/>
      <path class="st5" d="M358.42,207.15c-65.76,30.86-145.19,31.08-210.91,0-21.99-54.25-22.16-117.68.11-171.87,65.31-31.21,145-30.84,210.49-.22,22.25,54.59,21.95,117.37.3,172.1Z"/>
      <path class="st27" d="M284.9,276.99c-12.99-11.37-33.39-6.42-49.23-7.52v56.93c17.09-.97,40.44,4.34,52.41-11.25,8.26-10.77,7.15-29.11-3.18-38.16ZM281.31,305.74c-5.38,13.19-23.62,10.43-35.06,10.7v-38.22h18.1c14.64,0,22.24,14.58,16.96,27.52Z"/>
      <path class="st27" d="M432.57,309.11c15.42-4.13,14.24-26.35-1.83-28.26h-33.56v45.54h10.58v-16.67h12.41l13.02,16.67h12.41l-13.01-17.29ZM429.11,299.88h-20.95v-10.17h21.36c.53,0,2.38,1.09,2.83,1.64,1.39,1.7,1.52,5.24,0,6.87-.36.38-2.9,1.65-3.23,1.65Z"/>
      <path class="st27" d="M88.4,281.48c-19.63-6.74-42.9,3.57-38.51,27.11,3.87,20.76,35.35,24.63,47.7,11.13,11.1-12.13,6.71-32.78-9.19-38.24ZM72.04,317.15c-11.9-1.61-16.27-16.77-8.3-24.56,7.55-7.37,27.49-5.38,29.11,7.01,1.85,14.08-8.15,19.26-20.81,17.55Z"/>
      <path class="st26" d="M180.35,30.78c1.2-.31,1.86-.27,1.15,1.01-45.72,46.64-38.09,121.01,15.96,157.44,40.14,27.06,94.84,24.49,131.28-7.93l2.13-.88c1.38.45,3.27.1,5.17,1.14,1.16.63,1.4,1.43,2.15,2.12.13.3.31.77.13.93-7.06,6.13-16.44,12.93-24.97,17.55-74.42,40.33-169.85-11.66-170.2-97.9-.1-26.4,8.3-46.25,23.18-67.57,1.12-.67,1.46-1.14,1-1.43,4.54-1.69,8.37-3.03,13.02-4.47Z"/>
      <path class="st7" d="M167.33,35.25c1.23-.15.79.29.33.94-13.42,19.11-22.27,37.04-23.53,61.05-5.05,95.53,104.67,151.07,181.4,96.34l12.66-9.92c1.7,1.54,2.28,2.47,3.66,4.07.25.24.47.66.28.81-7.99,6.37-16.42,13.07-25.86,18.26-69.66,38.28-162.5-2.27-176.66-81.58l-.75,1.93c-.67-.42-.41-1.54-.41-2.23-.24-19.74,2.21-38.47,6.92-57.54,3.37-10.31,8.9-20.06,14.64-29.28,2.48-1.06,4.83-1.92,7.32-2.85Z"/>
      <path class="st28" d="M321.91,159.27c-1-2.27-1.66-4.17-2.44-6.51l.21-.93c16.98-19.34,21.68-47.61,13.62-72.04-16.19-49.07-76.83-68.32-119.1-39.75l-2.12.49c-.44-.11-1.74-.13-2.43-.21-2.45-.28.92,1.45,1.42,1.85s.73.96,1.01,1.21c.15.29.37.74.2.92-1.14,1.2-8.33,8.06-9.18,8.44h-1.19c-3.22-1.15-6.77-1.36-10.17-1.23,1.05,1.43,2.98,2.01,4.47,2.84l.06,1.45c-18.05,21.94-21.49,50.81-11.29,77.13.16.53-.16.9-.98,1.12-1.49.25-2.99.53-4.47.81-.33-.26-.65-.53-.92-.83-2.35-2.65-4.51-13.98-5.11-18.05-3.4-23.01,3.21-45.93,17.22-63.45-.51-1.33.3-2.26,2.42-2.79,29.95-35.05,85.21-39.38,120.76-9.59,35.07,29.4,40.03,81.71,10.31,116.48-.58,1.36-1.35,2.23-2.3,2.62Z"/>
      <path class="st0" d="M318.25,147.48c-.87-2.61-2.46-6.95-3.66-9.35l.07-1.85c29.43-49.83-17.18-107.91-72.04-94.63l-1.25-.7c-1.28-1.54-5.16-4.73-6.92-5.69-.14-.31-.21-.64-.12-.97.63-2.22,18.91-4.16,20.74-4.24,54.59-2.41,95.52,52.8,72.1,103.67-1.35,2.94-5.74,11.84-7.93,13.27-.31.2-.65.36-1,.5Z"/>
      <path class="st22" d="M315.81,123.49c-1.87-6.14-5.53-12.21-10.17-16.67l-.76-1.51c.72-31.23-29.26-52.62-58.91-45.93.24-2.41.2-4.76-.13-7.05-.32-2.26-.76-4.38-1.63-6.51l.96-.91c40.23-8.42,78.19,22.96,74.34,64.74-.3,3.22-1.16,10.03-2.55,12.76-.25.49-.69.81-1.15,1.08Z"/>
      <path class="st6" d="M139.26,136.5l1.45,1.99c12.88,40.84,47.87,72.98,89.94,81.58,2.44.74,1.59,1.75-.27,1.42-4.59.24-11.31-.96-16.01-1.68-20.76-3.21-41.6-9.57-60.68-18.23-8.29-20.65-13.08-42.84-14.42-65.08Z"/>
      <path class="st12" d="M303.61,25.09c5.43.03,15.29,3.61,20.75,5.29,35.02,29.43,44.42,80.52,21.24,120.91-2.26,3.93-9.41,15.42-12.76,17.27-.36.2-.76.35-1.16.49-2.35-1.35-4.08-2.14-6.1-4.07l-.42-.79c5.61-7,10.99-13.81,15.19-22.41,20.79-42.63,3.34-93.94-38.5-115.88-.22-.98.37-1.24,1.76-.8Z"/>
      <path class="st24" d="M170.18,148.29c9.76,11.16,22.29,19.92,34.58,28.06,32.27,21.27,75.13,21.84,107.06-.91l2.37-.71c2.8.98,5.73,1.92,8.54,2.85-.35.76-.75,1.53-1.39,2.09-5.31,4.62-13.74,9.27-20.16,12.29-41.01,19.28-92.26,8.61-120.96-26.73-2.56-3.15-9.56-12.28-10.01-15.68-.05-.41-.05-.82-.03-1.24Z"/>
      <path class="st13" d="M248.28,19.8c2.97-.37,5.98-.35,8.95,0,2.16,0,4.34-.01,6.51,0l3.66.41c1.08,0,2.17-.01,3.25,0l2.85.41c.67,0,1.37-.05,2.03,0l2.03.41c2.88.3,5.79.86,8.54,1.22,13.77,3.15,26.78,11.8,36.59,21.89,31.6,32.51,32.43,85.35.92,117.6l-.89-.42c-.41-.73-.52-1.37-.81-2.03.96-3.07,3.88-5.53,5.79-8.25,35.56-50.56,5.39-118.52-54.53-128.66-27.76-4.7-55.15,3.94-75.34,23.24-1.33,1.27-3.19,4.26-4.65,5.12-.75.44-1.79.32-1.86.38-.14.13.31,1.12.17,1.64-.22.81-5.2,7.17-6.19,8.8-13.39,22.1-15.64,49.34-5.77,73.32-1.05.2-2.34.21-3.25.41-.59-.46-1.18-.96-1.5-1.64-4.16-8.91-5.7-23.43-5.28-33.24,1.64-38.28,30.3-73.26,68.21-80.19.14,0,.27,0,.41,0,1.19-.31,2.41-.45,3.66-.41,2.16-.07,4.35.04,6.51,0Z"/>
      <path class="st0" d="M223.88,154.8c17.88,10.78,40.7,12.74,60.17,4.13l2.07-.07c2.82,2.78,6.1,5.9,9.36,8.13-.2.33-.41.65-.66.93-2.07,2.3-13.86,6.09-17.53,7.08-18.58,5.01-38.28,2.25-55.29-6.54-9.45-4.88-14.75-9.9-21.93-17.43-.81-.85-2.88-3.24-1.42-3.96,8.34,2.08,16.96,6,25.22,7.73Z"/>
      <path class="st3" d="M278.79,121.46c-6.23-.39-12.45-.54-18.71-.41l.9-.95c23.06-4.11,14.89-39.52-8.44-31.77-16.36,5.44-13.73,29.25,2.97,31.77l.91.94c-9.15.55-20.58-.11-21.57-11.57-.85-9.85,2.98-20.86,5.31-30.31,2.23.12,6.31,1.41,8.3,1.22.79-.08,5.41-2.99,6.34-3.66,19.8-3.56,36.6,16.52,30.22,35.67-1.05,3.16-3.08,7.94-6.21,9.06Z"/>
      <path class="st2" d="M260.08,121.05c-.95.11-2.71.11-3.66,0-19.53-2.17-21.52-29.65-2.12-34.04,23.89-5.41,30.01,31.22,5.79,34.04Z"/>
      <path class="st12" d="M218.18,22.24c1.76-.43,3.28,0,1.09,1.52-41.22,18.06-62.97,67.96-46.63,110.18v2.16c-1.59.39-3.88,1.14-5.42,1.73-.64.25-1.31.11-1.1,1.11l-1.05-.89c-13.86-36.1-5.31-72.95,20.82-101.27,2.02-2.19,9.94-9.45,12.6-10.5.03-.01.08.38-.23-.39,5.96-1.36,13.88-3.71,19.93-3.66Z"/>
      <path class="st16" d="M341.85,187.74c.72.83,1.35,1.59,2.03,2.44-.16.43-.33.85-.55,1.25s-.44.76-.75,1.04c-7.5,6.95-16.67,13.21-25.72,17.97-5.67,2.98-14.71,7.52-20.95,7.8-.06,0,1.03-.18.78.4-17.82,3.2-35.74,4.74-53.92,4.08l-12.39-1.24c.45-.02,1.33.28,1.22-.4-43.61-8.42-79.89-42.07-92.34-84.58-.19-3.17-.37-6.15-.41-9.35-.04-3.52.03-7.05,0-10.57,1.39.84.67,3.28.92,4.97,13.05,86.68,117.55,127.35,187.96,77.09l14.11-10.9Z"/>
      <path class="st25" d="M198.25,25.9c1.1-.13,1.08.28.38.99-2.09,2.09-5.73,4.34-8.11,6.53-25.09,23.02-36.19,57.31-29.01,90.81,1.08,5.02,3.6,10.19,4.6,14.71.34,1.52.14,3.8.49,5,.08.27,3.06,3.76,3.58,4.35,21.05,41.48,70.57,61.07,115.21,48.68,13.76-3.82,26.15-10.67,37.34-19.4.87.29,1.84.48,2.85.81-1.5,2.52-4.95,5-7.54,6.69-35.82,23.37-78.04,26.01-115.03,3.27-57.2-35.16-64.19-116.53-12.48-159.69.42-.35.95-.67,1.43-.87.29-.12.19.65-.22-.27,2.2-.57,4.28-1.12,6.51-1.63Z"/>
      <path class="st19" d="M314.59,138.13c-1.79-3.58-4.68-6.66-6.91-9.96.19-.8,6.75-2.49,7.73-3.27.61-.48.28-.98.4-1.42.67-2.38,1.42-4.82,1.91-7.24,8.22-40.66-24.85-75.33-65.56-71.64-2.65.24-5.28,1.02-7.94,1.21-.62-1.5-1.81-3.64-2.85-4.88,3.49-.24,6.9-1.29,10.38-1.62,44.56-4.25,81.63,35.4,70.86,79.78-1.66,6.85-4.72,12.89-8.02,19.03Z"/>
      <path class="st18" d="M296.29,99.5c-.19-.12-1.5-.65-1.63-.21.97.82,1.41,2.09,2.03,3.05,1.47,6.76-1.06,13.51-4.07,19.66l-1.22.67c-4.16-.69-8.4-.96-12.61-1.22,14.4-15.97,4.24-41.84-16.99-44.21-2.34-.26-4.84.3-7.01-.52,2.06-1.48,5.16-4.13,6.72-6.1.32-.41.79-.52.6-1.22l-19.12,2.44c-.17-.13,1.13-2.87,1.22-3.25l.54-.9c19.23-5.91,40.95,1.54,49.38,21,1.35,3.12,3.25,7.68,2.15,10.8Z"/>
      <path class="st25" d="M324.36,30.37c3.34,1.02,6.48,2.07,9.76,3.25,9.12,7.79,16.13,18.9,20.84,30.1,15.34,36.47,8.13,79.03-18.4,107.75-1.54-.83-3.24-1.49-4.88-2.44,10.52-11.72,18.62-25.65,22.67-40.98,8.4-31.86-.19-65.5-22.46-89.55-2.39-2.58-5.5-4.86-7.73-7.31-.55-.6-1.15-.9.2-.81Z"/>
      <path class="st28" d="M190.93,145.45l1.77,1.24c22.94,34.49,70.85,43.85,106.15,23.18l1.91-.03c1.53.66,3.95,1.37,5.7,2.03-.18.36-.38.71-.62,1.02-1.75,2.28-10.85,6.25-14.07,7.6-26.42,11.11-55.01,8.37-79.29-6.18-.54-1.02-2.15-4.14-2.86-4.67-1.52-1.14-6.84-2.32-9.36-3.66-8.08-4.3-15.5-13.3-19.52-21.35,3.46-.23,6.78.23,10.17.81Z"/>
      <path class="st29" d="M245.84,52.33c.02.11.37.45.42.98.18,1.74-.16,3.74-.02,5.52,30.8-7.42,61.04,15.91,59.39,47.98-1.97-1.9-7.06-5.96-9.36-7.32-2.81-21.06-21.08-34.61-42.1-32.93l-9.97,2.03c1.32-5.31,1.9-10.78,1.63-16.27Z"/>
      <path class="st21" d="M191.74,27.53c1.35-.08.75.21.2.81-2.69,2.98-6.31,5.67-9.16,8.73-43.42,46.52-31.6,119.84,22.67,151.81,35,20.61,78.91,18.78,112.12-4.47,2.75-1.92,5.22-4.19,8.01-6.02.82.27,1.63.54,2.44.81-3.81,4.47-9.44,8.25-14.56,11.36-53.88,32.71-126.83,11.53-151.88-47.13-16.96-39.71-6.54-87.3,26.51-115.09,1.2-.33,2.47-.5,3.66-.81Z"/>
      <path class="st11" d="M303.61,25.09c-.43,0-1.33-.26-1.22.4,47.06,24.29,62.17,84.75,31.65,128.63l-8.47,10.85c-1.31-1.25-1.97-2.08-2.85-3.66,1.99-1.01,3.85-3.69,5.27-5.51,31.38-40.13,20.55-97.76-22.39-124.38-6.16-3.82-12.74-6.61-19.49-9.18,1.94.25,4.12.17,6.24.47,3.69.54,7.71,1.22,11.25,2.37Z"/>
      <path class="st20" d="M184.01,29.56c1.2-.29,1.86-.28,1.15,1.01-37.81,35.68-42.38,94.65-10.08,135.68,37.12,47.15,107.81,52.88,152.89,13.78l1.27-.42c.61.2,1.21.68,1.63.81-15.33,14.76-36.89,24.4-58.03,27.19-70.8,9.34-133.24-50.3-120.43-122.01,3.9-21.83,13.49-37.91,28.14-54.01.55-.6,1.15-.9-.2-.81,1.22-.38,2.39-.85,3.66-1.22Z"/>
      <path class="st0" d="M203.94,66.56l-.46,2.08c-12.97,18.69-14.31,41.62-5.23,62.3v1.09c-2.97.38-5.99.78-8.95,1.22l-.98-.82c-7.93-20.12-7.81-43.13,3.01-62.21,4.5-1.46,7.95-2.57,12.61-3.66Z"/>
      <path class="st11" d="M237.71,20.21c-2.99,1.13-6.14,1.77-9.16,2.84-45.8,16.13-70.52,66.39-52.27,112.24-1.18.25-2.49.53-3.66.81-18.02-43.54,4.43-95.26,47.19-113.45.09-.7-1.16-.4-1.62-.4,6.39-1.48,13-1.69,19.53-2.03Z"/>
      <path class="st1" d="M231.2,34.03c-1.09-.59-1.1-.79-.35-1.74,1.58-2,18.04-4.62,20.96-4.86,58.74-4.86,104.22,55.56,76.89,109.69-2.34,4.65-5.37,10.41-9.64,13.21-.35-1.03-.52-1.97-.81-2.85,6.25-9.05,11.15-18.7,13.3-29.6,10.45-52.85-38.08-96.66-89.79-85.28-2.26.5-5.68,1.08-7.32,2.65-.77-.42-2.35-.91-3.25-1.22Z"/>
      <path class="st1" d="M319.47,152.77c-.22-.68-.18-1.77-.41-2.44,16.06-19.24,20.74-45.55,13.12-69.44-12.46-39.07-55.53-61.2-94.98-50-1.59.45-3.73,1.07-5.22,1.71-.91.4-.94.29-.8,1.42-.22-.08-1.24-.82-1.22-.2-.07.81.82,1.03,1.22,1.42.14.28.3.74.13.85-1.59,1.01-11.92,6.51-13.06,6.72l-1.3-.25c-.92-.48-3.99-1.81-4.88-2.03,38.22-27.52,94.04-14.9,116.56,26.42,14.24,26.14,12.15,59.29-6.15,82.93-.76.98-1.79,2.66-3.02,2.88Z"/>
      <path class="st20" d="M340.63,36.06c2.64,1.88,4.74,4.81,6.61,7.49,6.95,9.96,11.98,19.9,14.59,31.84.37,1.69-.4,1.14-.02.19.03-.07.18-.08.38-.08,1.62,7.36,3.2,14.8,3.66,22.36.36,10.13.33,19.39-2.16,29.7-2.61,10.81-7.06,21.17-12.9,30.63-2.65,4.29-6.23,9.86-9.74,13.38-.56.56-1.31.86-2.05,1.11-.77-.41-1.57-.75-2.44-1.22-.68-.79.04-.92.4-1.41,6.39-8.65,11.8-15.08,16.35-25.15,16.28-36.04,9.72-81.85-18.58-110.06-.19-.19-1.42-1.05-.61-1.22,2.22.8,4.32,1.57,6.51,2.44Z"/>
      <path class="st22" d="M286.12,158.87c-15.78,7.66-35.08,8.22-51.47,2.04-3.65-1.38-8.14-3.27-10.77-6.11,19.22,4.01,38.46-4.24,57.77-1.02,1.41,1.73,2.89,3.53,4.47,5.09Z"/>
      <path class="st20" d="M328.02,179.2c.41.14.82.27,1.22.41-33.61,30.83-85.83,35.51-125.16,12.68-55.35-32.14-68.28-105.09-26.97-154.38,2.21-2.63,4.8-5,7.11-7.53.55-.6,1.15-.9-.2-.81,1.35-.4,2.71-.84,4.07-1.22-.02.8-.49,1.14-1.02,1.62-37.59,33.8-43.67,90.58-14.36,131.88,31.05,43.77,92.1,56.17,138.51,29.22,5.96-3.46,11.35-7.7,16.81-11.86Z"/>
      <path class="st4" d="M196.21,54.36c2.92,1.62,6.91,3.23,7.35,7.07l-15.89,9.2c.46.93,2.86-.15,3.66-.41.82.24,0,1.22-.2,1.63-7.86,16.42-9.93,33.61-4.97,51.32.95,3.39,2.6,6.61,3.14,10.08-1.77.26-3.53.52-5.29.81.46-.6.12-1.13-.09-1.71-8.62-24.8-7.62-47.81,6.83-70.23,1.72-2.67,3.86-5.02,5.46-7.76Z"/>
      <path class="st26" d="M365.85,99.5l.41,2.44c.86,11.99,1.12,23.58.4,35.58-.1,1.61-.4,3.94-.81,5.49l-.49-.08c-3.82,12.57-11.63,24.34-20.26,33.83-1.52-1.96-3.91-2.9-6.1-4.07,13.93-15.68,23.68-36.17,25.98-57.18.57-5.17.39-10.22.45-15.41,0-.69-.26-1.81.41-2.23.03.54-.01,1.09,0,1.63Z"/>
      <path class="st23" d="M314.19,174.73c-27.61,20.58-64.88,24.39-96.15,9.7-4.89-2.3-8.85-5.14-13.28-8.08,3.4.89,7.19,4.33,10.38,5.28,1.17.35.03-1.94-.21-2.43-.4-.97,0-1.31,1-1.05,28.46,15.44,64.59,13.84,91.51-4.45l2.27-.6c1.48.53,3,1.11,4.47,1.63Z"/>
      <path class="st6" d="M343.88,190.18c.97,1.19,8.96,10.91,8.14,11.79-5.99,2.03-11.72,4.81-17.69,6.92-12.28,4.36-24.81,7.45-37.64,9.75l-1.01-.4c18.02-5.36,34.5-15.31,48.2-28.06Z"/>
      <path class="st1" d="M198.66,147.07c.21,1.29,1.24,2.46,2.05,3.44,15.01,18.47,42.14,28.4,65.64,25.78,10.35-1.15,19.9-4.72,29.14-9.3.67.46,1.33.83,2.03,1.22.97.64.82,1.06-.07,1.73-33.02,20.89-82.39,9.35-103.41-22.83l.56-.86c1.28.27,2.86.51,4.07.81Z"/>
      <path class="st9" d="M306.46,171.88c1.09.41,2.15.82,3.25,1.22-22.72,16.48-53.39,20.72-80.05,11.9-4.53-1.5-8.82-3.55-13.11-5.6-.41-.2-1.39-1.02-1.63-.2-.72-1.49-1.68-3.45-2.44-4.88-.11-1.33.22-.69.92-.31,19.84,10.69,36.94,15,59.76,11.16,11.94-2.01,23.1-6.93,33.28-13.29Z"/>
      <path class="st1" d="M194.59,146.26c.79,2.61,3.41,5.45,5.28,7.53,23.06,25.71,66.42,34.7,96.43,15.86.62-.39,1.26-.46,1.21-1.44.97.54,2.24,1.19,3.25,1.63-4.92,2.38-9.68,5.05-14.84,6.92-34.75,12.59-75.33.1-94.99-31.32,1.34.23,2.37.54,3.66.81Z"/>
      <path class="st22" d="M204.76,91.77l1.59.72c-1.76,9.01-1.4,17.61.85,26.52-.88,3.92-1.17,8.15-1.68,12.14-.88.55-1.91.33-2.79.46-.43-.49-.4-.94.22-1.05-5.74-11.28-7.93-25.21-5.46-37.84.06-.32.25-.61.45-.91s.46-.59.73-.86c2.2.21,3.94.43,6.1.81Z"/>
      <path class="st10" d="M196.21,85.67c.66,1.4.88,5.14,2.44,5.29-2.63,12.48-1.3,24.44,3.47,36.18.42,1.03,1.59,2.69,1.78,3.51.22.93-.93.44-1.18.97-1.19.17-2.46.26-3.66.41-6.97-14.04-9.17-32.33-3.53-47.1l.68.74Z"/>
      <path class="st15" d="M207.2,119.02c-.8-.91-1.05-1.77-1.36-2.91-1.16-4.29-1.69-10.33-1.49-14.77.12-2.61,1.07-5.78,1.19-8.22.04-.89-.04-.92-.79-1.34,1.78.31,10.25,1.5,11,2.22.27.26.38.46.42.83.07.76-5.15,11.85-5.9,14.04-1.11,3.21-2.33,6.86-3.07,10.15Z"/>
      <path class="st17" d="M365.85,143.01c.13,5.22-1.17,10.36-2.03,15.45l-1.33,3.16c-4.67,6.31-9.34,12.61-14,18.89l-.94-.09c-.79-1.13-1.68-2.68-2.44-3.66-.2-.97.39-1.24.81-1.83,1.89-2.65,4.15-5.11,6.03-7.8,5.56-7.93,10.65-16.89,13.5-26.15.73-.02.39,1.52.4,2.03Z"/>
      <path class="st0" d="M236.89,45.01c.12.71.17,1.17-.16,1.8-.24.44-7.89,3.67-9.14,4.12l-1.27-.23c-1.85-2.67-6.47-6.64-9.36-8.13l14.24-7.32c2.96,2.9,4.44,5.84,5.7,9.76Z"/>
      <path class="st10" d="M211.67,64.94l.42.84-7.5,11.46c-.57,2.35-1.6,4.21-3.09,5.59-1.88.66-3.69,1.64-5.66,2.07-.08.09.4.73.37.78-.02.04-.56-.18-.79.3-3.57,7.41-2.83,23.44-1.04,31.42,1.13,5.04,3.22,9.72,4.68,14.63-.26.03-.55-.03-.81,0-10-21.31-8.1-46.35,5.7-65.47,2.59-.61,5.04-1.21,7.73-1.63Z"/>
      <path class="st0" d="M212.08,43.38c.11.1.68.09,1.02.39,3.59,3.21,7.06,7.65,7.53,12.62-3.54.35-7,1.25-10.38,2.31-2.45-2.42-5-4.79-8.33-5.96l10.17-9.35Z"/>
      <path class="st22" d="M219,64.12c1.3-.27,2.57-.24,3.79.1-2.14,3.15-4.6,6.13-7.38,8.96-1.55,2.41-3.2,4.68-4.95,6.8-2.97.92-6.02,1.81-8.95,2.85l2.37-5.97,7.8-11.93c2.74-.42,4.4-.84,7.32-.81Z"/>
      <path class="st29" d="M291.4,122.68c2.06-4.37,4.33-9.2,4.83-14.08.21-2.05-.4-4.38.46-6.25,2.74,4.28,5.58,8.77,6.1,14.03.13,1.33.25,8.36-1.4,8.62-.58.09-8.35-2.05-9.99-2.32Z"/>
      <path class="st26" d="M362.19,75.51l-.4,1.01c-2.75-11.06-7.88-21.86-14.31-31.23-2.17-3.16-4.75-6.02-6.84-9.22,2.16.86,10.79,3.75,11.75,5.13,4.33,11.1,7.25,22.69,9.81,34.31Z"/>
      <path class="st15" d="M231.2,65.34l.29.84-8.42,7.81c-.71,1.37-1.39,2.47-2.85,3.14-3.25.93-6.54,1.84-9.76,2.85,2.28-6.32,7.58-10.68,11.8-15.66-.95-.38-2.22-.19-3.25-.2,3.51-.87,9-.4,12.2,1.22Z"/>
      <path class="st16" d="M363.81,158.46c-.73,4.29-1.49,7.98-2.44,12.2-2.93,4.68-6.38,9.04-10.33,13.07l-1.06.34c-.8-1.22-1.61-2.46-2.44-3.66l16.27-21.96Z"/>
      <path class="st6" d="M361.37,170.66c-.69,3.05-1.25,6.09-2.07,9.12-1.16,4.29-2.74,8.48-3.63,12.84-2.4-2.32-3.85-5.73-5.69-8.54,3.96-4.21,7.22-8.93,10.64-13.56.51-.7.84-1.19.75.14Z"/>
      <path class="st30" d="M236.89,45.01c1.37,4.28,1.78,7.41-.04,11.76-1.73-.56-6.83-.1-8.02-.86-.24-.15-1.89-4.29-2.52-5.21,2.92-1.73,6.45-2.6,9.38-4.24.65-.36,1.23-.53,1.2-1.45Z"/>
      <path class="st8" d="M160.01,38.1c.92.39.14,1.2-.15,1.69-5.58,9.46-9.7,16.53-13.75,26.92-.11.27-.39,1.68-.74.67,2.23-9.02,4.62-17.93,8.11-26.56.44-.63,5.34-2.21,6.54-2.72Z"/>
      <path class="st14" d="M220.22,77.13l2.23-3.66,8.75-8.13c3.48,1.76,3.7,6.15,1,8.52-.94.83-9.88,2.67-11.98,3.27Z"/>
      <path class="st28" d="M257.23,19.8c-2.97,0-5.98-.06-8.95,0,2.62-.68,6.33-.68,8.95,0Z"/>
      <path class="st28" d="M267.4,20.21c-1.15,0-2.86.33-3.66-.41,1.15,0,2.86-.33,3.66.41Z"/>
      <path class="st28" d="M241.78,19.8c-.83.03-2.42.34-3.66.41.83-.84,2.51-.25,3.66-.41Z"/>
      <path class="st28" d="M273.51,20.61c-.89,0-2.29.3-2.85-.41.89,0,2.29-.3,2.85.41Z"/>
      <path class="st20" d="M366.26,101.94c-.64-.71-.39-1.6-.41-2.44.72.45.35,1.67.41,2.44Z"/>
      <path class="st28" d="M277.57,21.02c-.65-.02-1.69.25-2.03-.41.92.07,1.58.36,2.03.41Z"/>
    </g>
  </g>
</svg>