<?xml version="1.0" encoding="UTF-8"?>
<svg id="Layer_1" xmlns="http://www.w3.org/2000/svg" version="1.1" viewBox="0 0 500 311.26">
  <!-- Generator: Adobe Illustrator 29.0.0, SVG Export Plug-In . SVG Version: 2.1.0 Build 186)  -->
  <defs>
    <style>
      .st0 {
        fill: #fff;
      }
    </style>
  </defs>
  <g id="mINyh5">
    <g>
      <path class="st0" d="M186.56,103.32c-40.87-16.8-85.43-40.25-115.18-73.55-4.16-4.66-7.35-10.52-11.13-14.9-.5-.58-.56-1.18-1.6-.94-11.28,34.14,18.28,61.39,43.43,79.03s56.91,32.03,85.98,44.77c-.25-5.47-2.32-11.04-2.56-16.66-.26-5.94,1.21-11.83,1.08-17.75ZM344.63,78.93l5.09-24.06-.53-1.08c-47.28-15.03-116.83-22.89-145.66,27.6-8.76,15.34-13.59,40.75-4.53,56.72,12.04,21.22,58.42,33.39,80.34,44.17,14.36,7.07,23.32,14.17,18.58,31.75-9.27,34.39-55.02,35.75-83.81,32.78-16.79-1.73-33.41-6.08-49.56-10.73l-5.11,25.43c7.71,2.08,15.38,4.31,23.22,5.95,58.89,12.34,134.95,11.4,152.32-59.4,13.1-53.41-42.21-60.32-78.1-75.71-19.24-8.25-37.14-17.79-23.9-41.9s41.7-23.8,64.94-21.66c15.94,1.47,31.31,6.18,46.71,10.16ZM452.26,237.77c-8.72.08-17.42.12-26.08-.9-29.81,21.23-65.35,34.41-101.25,41.41-56.93,11.1-122.93,9.46-178.51-7.45-55.7-16.95-136.16-60.28-122.16-130.39,5.39-26.99,25.44-48.65,46.82-64.61l-10.75-13.04C22.38,88.74-7.61,131.47,5.68,179.55c7.81,28.23,28.18,50.57,51.32,67.48,72.07,52.67,180.92,62.31,266.8,47.08,46.06-8.17,92.83-25.66,128.46-56.34Z"/>
      <path class="st0" d="M269.89,9.98c35.81,1.48,75.2,8.85,109.04,20.9,65.03,23.18,140.36,80.07,110.72,158.57-.55,1.44-2.88,7.59-3.65,8.23-2.14,1.75-21.69,2.37-22.98,1.08,22.7-34.15,14.06-75.22-12.74-104-31.22-33.53-80.53-52.9-124.88-61.33-71.32-13.57-148.68-8.41-215.66,19.99-1.76.35-4.76-2.46-6.31-3.65s-7.13-5.52-8.02-6.69c-.52-.68-.65-1.15-.53-2.01,27.14-11.02,55.36-19.54,84.28-24.7,17.63-3.15,36.74-5.68,54.48-6.4,11.42-.46,24.83-.47,36.25,0Z"/>
      <path class="st0" d="M502.67,202.16v1.13c-12.97,31.62-54.53,29.6-82.9,25.93-26.67-3.46-52.06-12.59-76.82-22.55,3.27-11.51,2.71-24.05-2.26-35.03,25.33,9.35,50.52,19.35,76.79,25.95,27.49,6.91,57.28,11.68,85.19,4.57Z"/>
      <path class="st0" d="M344.63,78.93c-15.39-3.98-30.77-8.69-46.71-10.16-23.24-2.14-52.24-1.48-64.94,21.66s4.66,33.65,23.9,41.9c35.88,15.39,91.19,22.31,78.1,75.71-17.36,70.8-93.42,71.74-152.32,59.4-7.83-1.64-15.51-3.87-23.22-5.95l5.11-25.43c16.14,4.65,32.76,9,49.56,10.73,28.8,2.97,74.54,1.6,83.81-32.78,4.74-17.58-4.22-24.68-18.58-31.75-21.92-10.78-68.3-22.95-80.34-44.17-9.06-15.97-4.23-41.38,4.53-56.72,28.83-50.49,98.38-42.63,145.66-27.6l.53,1.08-5.09,24.06Z"/>
      <path class="st0" d="M452.26,237.77c-35.63,30.68-82.4,48.17-128.46,56.34-85.88,15.23-194.73,5.59-266.8-47.08-23.14-16.91-43.51-39.26-51.32-67.48-13.3-48.08,16.7-90.8,54.66-116.75l10.75,13.04c-21.38,15.97-41.43,37.62-46.82,64.61-14,70.1,66.46,113.43,122.16,130.39,55.57,16.92,121.57,18.56,178.51,7.45,35.9-7,71.43-20.18,101.25-41.41,8.65,1.02,17.36.97,26.08.9Z"/>
      <path class="st0" d="M186.56,103.32c.13,5.92-1.33,11.81-1.08,17.75.24,5.62,2.32,11.19,2.56,16.66-29.07-12.73-59.95-26.5-85.98-44.77S47.36,48.08,58.64,13.94c1.04-.25,1.1.35,1.6.94,3.78,4.38,6.96,10.24,11.13,14.9,29.76,33.3,74.32,56.75,115.18,73.55Z"/>
    </g>
  </g>
</svg>