<?xml version="1.0" encoding="UTF-8"?>
<svg id="Layer_1" xmlns="http://www.w3.org/2000/svg" version="1.1" viewBox="0 0 500 500">
  <!-- Generator: Adobe Illustrator 29.0.0, SVG Export Plug-In . SVG Version: 2.1.0 Build 186)  -->
  <defs>
    <style>
      .st0 {
        fill: #f36e2c;
      }

      .st1 {
        fill: #eb7c4f;
      }

      .st2 {
        fill: #eb7d4f;
      }

      .st3 {
        fill: #faa327;
      }

      .st4 {
        fill: #f3915d;
      }

      .st5 {
        fill: #e2452a;
      }
    </style>
  </defs>
  <g id="vjLVpK">
    <g>
      <path class="st3" d="M254.04,478.2c-.75-.32-.74-.68,0-1.08-.74-1.69,1.51-5.25,2.74-7.11,69.55-90.69,139.17-181.19,208.85-271.52l3.38-1.16c-1.38-1.37-.78-1.69,1.08-1.08,9.42,29.11,20.28,57.84,28.89,87.24,1.36,6.13-1.04,11.63-4.64,16.4l-240.3,178.31Z"/>
      <path class="st3" d="M32.58,197.33c1.12-.77,2.39-.33,3.24.68,69.59,90.58,139.26,181.24,208.99,272,1.82,2.44,2.74,4.81,2.74,7.11.61.32.59.69,0,1.08L7.26,299.89c-3.61-4.78-5.99-10.29-4.67-16.42,8.72-29.36,19.49-58.11,28.91-87.22,1.33-.91,1.84-.41,1.08,1.08Z"/>
      <path class="st5" d="M158.97,195.17l-.19,1.08-99.99-.59c-9.47.31-18.56.15-27.29-.48,18.07-55.9,35.95-111.89,54.27-167.72,2.45-10.07,15.3-10.55,18.94-1.1l54.26,168.82Z"/>
      <path class="st5" d="M470.09,195.17l-.19.63c-41.82.54-85.62.55-127.28-.63l54.24-168.83c2.84-8.23,14.4-9.21,18.2-1.37,18.63,56.64,36.68,113.48,55.03,170.2Z"/>
      <path class="st2" d="M158.97,195.17h183.65c.94.31.93.67,0,1.08,1.43,1.52.83,2.07-1.08,1.08l-1.82,1.11c-56.18.25-113,.36-170.48.31l-9.19-1.43-6.72,1.43c-40.07.12-79.69,0-118.86-.36l-1.89-1.06-1.08-1.08c.11-.33-.11-.75,0-1.08h127.47Z"/>
      <path class="st1" d="M470.09,195.17c.11.33-.11.75,0,1.08l-1.08,1.08-3.93,2.13c-40.4-.35-80.79-.69-121.17-1.04l-1.3-2.17v-1.08h127.47Z"/>
      <path class="st4" d="M249.71,478.2c.58-2.01,1.57-2.01,2.16,0,.73-1.49,1.45-1.85,2.16-1.08v1.08c-.61,1.72-1.9,2.39-3.76,2.22l-2.72-2.22v-1.08c.3-1.32,1.02-.96,2.16,1.08Z"/>
      <path class="st0" d="M469.01,197.33l-214.97,279.79c-.71.22-1.54.98-2.16,1.08l-1.21-.74c28.78-93.27,58.25-186.44,88.41-279.51l2.46-.62,1.08-1.08,126.39,1.08Z"/>
      <path class="st0" d="M160.05,197.33l2.57.95c30.05,92.83,59.46,185.75,88.23,278.76l-1.14,1.16c-.65-.12-1.45-.84-2.16-1.08L32.58,197.33c1.12-1.79,4.1-1.08,5.93-1.1,40.51-.5,81.3,1.1,121.55,1.1Z"/>
      <path class="st5" d="M341.54,197.33l-89.66,280.87c-.55.09-1.62.1-2.16,0l-89.66-280.87c58.11,0,117.08-1.71,175.56-1.1,1.83.02,4.81-.69,5.93,1.1Z"/>
    </g>
  </g>
</svg>