<?xml version="1.0" encoding="UTF-8"?>
<svg id="Layer_1" xmlns="http://www.w3.org/2000/svg" version="1.1" viewBox="0 0 1370.7 272.9">
  <!-- Generator: Adobe Illustrator 29.0.0, SVG Export Plug-In . SVG Version: 2.1.0 Build 186)  -->
  <defs>
    <style>
      .st0 {
        fill: #1876bc;
      }
    </style>
  </defs>
  <g id="u3XkMP">
    <g>
      <path class="st0" d="M103.3,25.1v91.4c1.4.4,1-.4,1.4-.8,27-30.3,53.8-60.8,81.2-90.6h72.3l-95,109.2,96.3,114.1c.2.2,1.2-.8,1.2-.9V53.3l63-28.1v234.3h-133.5c-29.4-34.3-58.4-69-86.9-104.1v104.1h-63.9c0,0-.9-.8-.9-.9V26c0,0,.8-.9.9-.9h63.9Z"/>
      <path class="st0" d="M1220.2,44.5c-11-5.4-26.9-6-32.8,6.8-1.2,2.7-3.5,11.3-3.5,14v19.1h49.6v-31.2l54.5-27.5v58.7h41.8v40.6h-41.8v76c0,2.3,2.3,8.8,3.5,11,7.5,13.4,26.3,8.7,38.2,6.5s1-.5,1.6.3l1.4,39.9c-23.9,5.8-61.6,8.8-81.6-8.1-12.9-10.9-17.2-26.6-18.8-43v-82.6h-48.4v133.5c0,0-.8.9-.9.9h-56.6V125h-35.1v-40.6h35.1c-.9-30,3-62.4,33.9-75.3,15.7-6.6,41.7-7.9,58.4-4.5.7.1,1.1.2,1.5.9v39Z"/>
      <path class="st0" d="M523.5,90.5l-57.7,5.4c-1.1-.4-1.9-5.7-2.5-7.2-6.9-17.2-25-24.2-42.5-19.5-11.6,3.1-19.7,16.6-11.6,27.1,7.3,9.4,38.4,14,50.8,17.6,42.6,12.3,77.6,31.5,70.7,82.9-8.4,63.2-81.1,78.7-133.7,63.6-33.4-9.6-54.4-36.6-57.5-71.1l59.9-5.4c3.4,23.7,19.2,38.8,43.9,36.9s37.5-33,12.6-46.5c-13.6-7.4-32.7-9.8-47.7-14.6-35.2-11.4-66.1-32-60.1-74.1,8.8-62.1,95.8-73.1,141.8-47.5,20.2,11.3,32.2,29.2,33.7,52.5Z"/>
      <path class="st0" d="M725,90.5l-58.7,5.4c-1.6-11.8-10.2-22.9-21.8-26.3-13.8-4.1-36-1.6-37.5,16.4-1.5,18.5,30.1,21.2,42.9,24.7,46.9,12.9,90.7,29,81.5,88.2-9.8,63.2-87.5,77.7-139,59.5-29.8-10.5-49.5-37.8-51.4-69.2l58.9-5.4c1.3.5,1,3.2,1.4,4.7,6,22.2,20.9,34.5,44.6,32.1,20.1-2,33.9-23.5,19.2-40.2-10.3-11.7-38.2-15.5-53.1-20.1-29.6-9.2-60.3-24.9-63.1-59.8-6.1-76.7,102.6-93.9,151.9-56.2,15,11.5,22.1,27.7,24.3,46.3Z"/>
      <path class="st0" d="M931.1,108.3c30.8-36,97.4-37.3,132.3-6.6,36.4,32,38.9,99.5,7,135.3-32,35.9-96.7,38-132.3,6.4-35.9-31.9-37.7-99.2-7-135.1ZM998.5,120.3c-50.5,4.3-40.2,125.1,15.1,101.6,34.1-14.5,31.9-105.7-15.1-101.6Z"/>
      <path class="st0" d="M840.7,132.8c-4.5-14-18.9-19.9-32.8-16.6-11.4,2.7-16.4,17.1-6,24.2,8.4,5.7,36.4,7.5,47.9,10.2,24.2,5.7,45.7,19,48.3,46.1,5.4,57.2-55.7,75.2-101.8,66.7-26.2-4.8-51.5-23.3-56.2-50.7l54.1-6c3.1,6.5,6,12.7,11.9,17.2,13.4,10.2,43.8,5.3,40.5-15.6-1.2-7.9-10.2-10.5-16.7-12.4-25.8-7.4-60.8-7-76.4-32.6s-10.2-44.9,4.4-61.9c19.6-22.9,64.8-25.3,91.8-17.4,20.9,6.2,36.6,21.5,42.8,42.4l-51.9,6.3Z"/>
    </g>
  </g>
</svg>