<?xml version="1.0" encoding="UTF-8"?>
<svg id="Layer_1" xmlns="http://www.w3.org/2000/svg" version="1.1" viewBox="0 0 500 500">
  <!-- Generator: Adobe Illustrator 29.0.0, SVG Export Plug-In . SVG Version: 2.1.0 Build 186)  -->
  <defs>
    <style>
      .st0 {
        fill: #fefeff;
      }

      .st1 {
        fill: #077ebb;
      }
    </style>
  </defs>
  <g id="SvWHc0">
    <g>
      <path class="st1" d="M447.25,496.17H52.45c-3.74-1.1-7.59-1.65-11.31-2.88-16.71-5.49-30.29-19.62-35.09-36.56-.86-3.03-1.13-6.17-2.16-9.14V52.32C7.62,26.1,28.45,5.68,55.1,3.76l389.52-.03c27.77,1.8,49.97,23.85,51.69,51.69l-.03,389.52c-1.47,25.86-23.16,48.76-49.04,51.22ZM112.47,72.18c-35.09,2.68-52.81,44.65-30.18,71.73s62.28,18.66,74.05-12.48c11.22-29.68-12.16-61.68-43.87-59.26ZM428.02,427.89l.02-154.62c-1.66-41.87-19.53-77.82-63.11-87.41-32.24-7.09-64.9.9-86.94,25.89l-7.71,10.33v-31.26h-70.69v237.07h70.69l-.02-131.54c1.59-21.48,11.24-41.07,34.06-45.28,34.53-6.37,49.81,16.58,50.61,48.17l-.02,128.65h73.09ZM152.96,190.82h-73.57v237.07h73.57v-237.07Z"/>
      <path class="st0" d="M428.02,427.89h-73.09l.02-128.65c-.8-31.58-16.08-54.54-50.61-48.17-22.82,4.21-32.47,23.8-34.06,45.28l.02,131.54h-70.69v-237.07h70.69v31.26l7.71-10.33c22.04-24.99,54.7-32.98,86.94-25.89,43.58,9.59,61.44,45.54,63.11,87.41l-.02,154.62Z"/>
      <rect class="st0" x="79.38" y="190.82" width="73.57" height="237.07"/>
      <path class="st0" d="M112.47,72.18c31.7-2.42,55.09,29.57,43.87,59.26-11.77,31.13-52.58,38.18-74.05,12.48-22.63-27.09-4.9-69.05,30.18-71.73Z"/>
    </g>
  </g>
</svg>