<?xml version="1.0" encoding="UTF-8"?>
<svg id="Layer_1" xmlns="http://www.w3.org/2000/svg" version="1.1" viewBox="0 0 500 500">
  <!-- Generator: Adobe Illustrator 29.0.0, SVG Export Plug-In . SVG Version: 2.1.0 Build 186)  -->
  <defs>
    <style>
      .st0 {
        fill: #fff;
      }
    </style>
  </defs>
  <g id="xp1Sg5">
    <g>
      <path class="st0" d="M255.71.49c-3.52,5.42-7.86,10.48-12,15.44-3.69,4.42-18.09,22.53-21.41,24.51-3.75,2.24-15.88,3.98-21.26,5.7-176.29,56.37-163.82,296.05,8.33,345.6,179.24,51.59,313.08-150.49,189.3-291.13l-2.19-52.21c48.49,34.66,83.72,88.18,96.52,146.56,40.82,186.22-129.97,347.83-313.58,294.61C50.05,452.08-25.57,317.63,8.2,186.74,36.96,75.27,140.37-2.37,255.71.49Z"/>
      <path class="st0" d="M322.3,23.64c5-1.52,7.74,1.45,8.3,6.27,1.98,17.13.38,38.4.93,55.97.31,9.89.7,19.95,1,29.95.84,28.13,2.77,56.6,3.08,84.76.66,59.95-52.41,99.91-107.88,69.95-44.56-24.07-43.51-73.72-16.35-111.23,23.81-32.88,53.39-65.76,79.24-97.46,4.67-5.72,27.76-37.02,31.68-38.21Z"/>
    </g>
  </g>
</svg>