<?xml version="1.0" encoding="UTF-8"?>
<svg id="Layer_1" xmlns="http://www.w3.org/2000/svg" version="1.1" viewBox="0 0 2862.2 287.8">
  <!-- Generator: Adobe Illustrator 29.0.0, SVG Export Plug-In . SVG Version: 2.1.0 Build 186)  -->
  <defs>
    <style>
      .st0 {
        fill: #fff;
      }
    </style>
  </defs>
  <g id="zoPckJ">
    <g>
      <rect class="st0" x="636" y="6.8" width="9.8" height="270.8"/>
      <polygon class="st0" points="234.8 200.5 328.1 200.5 290.6 131.3 291.2 128.8 308.3 99.5 383.8 229.8 383.8 59 535.8 59 535.8 91.7 417.1 91.7 417.1 127.3 518.7 127.3 518.7 160 417.1 160 417.1 230.8 146.8 230.8 146.8 111.2 90.4 183 34.9 111.7 34.9 230.8 2.1 230.8 2.1 59 36.6 59 90.8 129.3 144.6 59 179.5 59 179.5 230.3 281.7 53.2 299.1 82.9 299.7 85.5 234.8 200.5"/>
      <path class="st0" d="M784.1,58l62.3,146.4,63.5-146.4h26.6v172.7h-17.1V77.1l-65,152.9c-.4.8-.9.7-1.6.8-4.1.5-9-.4-13.2,0l-65.2-153.7v153.7h-17.1V58h26.9Z"/>
      <path class="st0" d="M2851.4,230.8h-16.1v-77.8c-.6-51.5-69.9-51-69.9.5v77.4s-16.1,0-16.1,0v-75.9c1.2-51.8-68.4-54.6-69.9-2.4v78.3s-16.6,0-16.6,0v-127.8h16.6v14.1c19.1-26.7,62.7-20.8,78,6.8,8.9-13.3,22.1-22.8,38.6-23.9,35.1-2.4,57.4,22.7,55.5,56.8v73.9Z"/>
      <path class="st0" d="M2157.4,58v172.7h-16.1v-22c-1.1-.3-.8.3-1.1.6-11.6,13.5-23.3,22.8-42.1,24.3-43.4,3.5-78.7-27.7-76-72,3.6-58.7,81.4-84.7,118.2-37.4.3.4,0,.9,1.1.6V58h16.1ZM2086,114.8c-34.4,2.8-55,37.2-45,69.5,13,42,72.3,47.3,94,9.2,20.8-36.3-6.9-82.2-49.1-78.7Z"/>
      <path class="st0" d="M1490.3,172.7h-116.1l-.5,1c1.6,21.4,20.2,41,41.2,44.7,22.1,3.9,45.8-7.9,53.9-29.1h17.6c-7.8,23.7-31,42.2-56,44.4-75.3,6.7-101.7-94.7-36.7-126.9,47.2-23.4,100,14.9,96.6,66ZM1473.7,158.1c-3.4-17.2-14.5-32.8-30.9-39.6-30.9-12.7-64,7.3-68.8,39.6h99.7Z"/>
      <path class="st0" d="M1093,208.8c-.9-.2-.9.3-1.4.8-9.6,10.5-14.6,16.7-29,21.3-37.7,11.9-79.8-10.7-87.6-49.9-9.3-46.8,27.3-84.2,73.8-81s31.8,10.3,43.1,24.8c.3.4,0,.9,1.1.6v-22.4h16.1v127.8h-16.1v-22ZM1037.6,114.8c-33.6,2.8-54.3,35.4-45.8,67.4,10.4,39.2,62.7,49.9,88.9,19.5s3.4-90.7-43.1-86.9Z"/>
      <path class="st0" d="M1806.5,125.4v-22.4h16.1v127.8h-16.1v-22c-1.1-.3-.8.2-1.1.6-39.5,50.9-121.7,17.8-118.2-46.7,2.6-47.3,55.4-77.5,97.6-56.4,9,4.5,15.6,11.3,21.7,19.1ZM1751.2,114.8c-33.3,2.8-54,35.4-45.6,67.2,11.9,44.7,74.6,50.5,95.8,9.8,18.9-36.3-9.1-80.4-50.2-77Z"/>
      <path class="st0" d="M2423.4,119.2c31.3-31.2,82.8-23.2,104.8,14.3,32.9,56-27.6,121.6-86.1,94.2-42.3-19.8-51.7-75.6-18.7-108.6ZM2465.2,114.8c-24.6,2.3-43.7,24.8-45.3,48.9-3.2,48.2,55.4,75.5,88,38,30.5-35.1,4.1-91.3-42.6-86.9Z"/>
      <path class="st0" d="M1988.8,230.8h-16.6v-74.9c-3.4-55.2-75.7-54.5-79.7-1.5v76.9s-16.6,0-16.6,0v-127.8h16.6v16.1c12.7-18.5,36.3-23,57.3-17.4,23.3,6.2,36,25.6,38.5,48.9l.5,79.8Z"/>
      <polygon class="st0" points="2374.9 58 2374.9 73.7 2304.5 73.7 2304.5 136.1 2372 136.1 2372 151.7 2305.2 151.7 2304.5 152.5 2304.5 230.8 2287.4 230.8 2287.4 58 2374.9 58"/>
      <polygon class="st0" points="1193.6 58 1193.6 102.9 1224.4 102.9 1224.4 118.1 1193.6 118.1 1193.6 230.8 1177.5 230.8 1177.5 118.1 1150.6 118.1 1150.6 102.9 1177.5 102.9 1177.5 58 1193.6 58"/>
      <polygon class="st0" points="1296.3 58 1296.3 102.9 1327.1 102.9 1327.1 118.1 1296.3 118.1 1296.3 230.8 1280.2 230.8 1280.2 118.1 1253.3 118.1 1253.3 102.9 1280.2 102.9 1280.2 58 1296.3 58"/>
      <path class="st0" d="M1587.1,100v17.1c-14.4,1.3-27.9,8.6-33.7,22.3-1,2.4-3,8.7-3,11.2v80.3h-16.6v-127.8h16.6v18.5l5.9-9.5c7.4-8.9,19.6-11.8,30.8-12Z"/>
      <path class="st0" d="M2629,100v17.1c-16.3,1.7-30.4,10.6-34.8,27s-1.3,4.6-1.3,5.5v81.2h-16.6v-127.8h16.6v18.5l5.4-9c7.4-9.1,19.4-12.3,30.8-12.5Z"/>
    </g>
  </g>
</svg>