<?xml version="1.0" encoding="UTF-8"?>
<svg id="Layer_1" xmlns="http://www.w3.org/2000/svg" version="1.1" viewBox="0 0 500 229.06">
  <!-- Generator: Adobe Illustrator 29.0.0, SVG Export Plug-In . SVG Version: 2.1.0 Build 186)  -->
  <defs>
    <style>
      .st0 {
        fill: #ca2e29;
      }
    </style>
  </defs>
  <g id="XQDCW5">
    <g>
      <path class="st0" d="M377.2,2.41l-4.54,37.63c.79.21.91-.33,1.36-.68,6.38-4.82,12.23-10.98,18.63-15.85l11.78-1.6-26.2,24.25,11.9,23.35,7.37-7.14c1.59-9.34,2.04-18.96,4.02-28.18l16.39-14.04,1.3.37,17.47,21.99-22.47,12.53c-.59.77-1.44,7.3-1.17,8.27.1.36,5.26,4.66,6.23,3.14l19.42-10.98,3.94-29.61,15.18-13.43,17.43,21.49-20.93,11.77c-.59.83-1.14,6.98-.65,7.98.16.33,3.73,3.28,4.43,3.11l22.36-12.62c.91-.13.58.04.67.66.18,1.31-.24,4.77-1.11,5.7l-28.39,16.56c-.49.25-.86.2-1.35-.02-.96-.44-4.46-4.23-5.7-5.22-.52-.41-1.57-1.32-2.18-1.29l-31.05,17.06-1.92-.14-9.76-8.37-16.37,15.83-12.67-24.46-3.86,27.65-12.03-8.96c-2.25,1.53-14.66,16.78-15.79,16.6-1.33-.21-8.52-7.71-10.5-9.03-.43-.29-.78-.55-1.35-.46-.95.15-9.64,14.25-11.61,15.25-.53.27-.76.21-1.15-.23l-9.04-8.22c-.37-.37-.78-.52-1.3-.39-1.46.38-11.37,15.54-12.85,15.79l-11.67-9.45-13.72,17.18-15.1-12.3,4.62-35.38c4.94-6.78,10.05-13.48,15.58-19.79l11.05,4.91c.15-.7-.24-2.78.05-3.13.52-.61,13.87-2.69,15.83-3.22l-5.33,42.5c.01.72,2.69,3.44,3.28,3.29,2.37-3.33,5.46-6.3,7.31-9.94l4.77-38.08,15.84-2.76-5.01,39.2c-1.19,1.44,2.19,4.51,2.96,4.32.55-.14,6.63-8.14,6.85-9.04l4.77-37.17,15.84-3.21-5.33,41.14c-.11.79,1.45,1.84,2.01,1.88.72.06,6.97-7.77,8.33-8.78l.7-2.02,8-64.32,14.44-1.9ZM463.41,33.24c.29-.4-1.44-2.43-1.82-2.93-1.4-1.81-3.16-3.82-4.98-5.23l-1.36,12.24,8.16-4.09ZM414.86,46.39c.39.4,8.13-4.01,9.08-4.77.17-.72-6-7.38-7.04-8.37l-2.04,13.14ZM271.92,55.92c-1.19,13.4-3.19,26.8-4.96,40.16-.09.87,3.05,3.29,3.37,3.28.58,0,6.07-6.87,6.45-7.97l4.13-31.12c-.14-.61-8.57-4.79-9-4.34Z"/>
      <path class="st0" d="M63.63,57.73l19.34-16.29c.61-.11,2.6,2.13,3.12,2.68,1.61,1.7,4.72,6.22,6.33,7.29.42.28.72.59,1.29.38l21.96-18.5,1.29.38,10.41,11.37.24,2.48c-4.8,33.86-7.16,68.11-11.86,101.97-.1.69-.21,3.33-1.07,3l-13.61-9.97-1.14-1.59,10.42-86.66c.26-.97-2.12-3.33-2.85-3.27-1.61.14-10.54,9.35-12.87,10.5-4.45,33.74-8.18,67.71-12.01,101.58-.08.25-.44.72-.62.75-.9.18-12.77-9.67-14.74-10.75,3.06-29.79,6.81-59.53,10.46-89.25.53-1.13-2.1-3.89-2.89-3.77-.88.13-13.14,10.74-13.38,11.59-4.95,34.44-7.52,69.35-12.81,103.73-.09.6.3.81-.66.68l-13.87-10.17-.93-1.83,11.84-97.71c-14.4,6.21-28.43,13.47-42.64,20.19l-1.83-.24L66.12,31.43l-2.49,26.29Z"/>
      <path class="st0" d="M181.15,35.97l-10.23,83.41,4.51,3.15,6.52-8.46,5.3-44.12c.45-.65,13.77-3.37,15.49-3.58.73-.09.71-.1.66.66l-5.82,47.96,4.68,4.4,4.74-6.59,5.92-47.13.77-1.05,15.57-3.71-5.94,45.57c-.21,1.43,5.34,5.74,6.1,5.59.71-.14,3.27-3.44,3.46-4.25l5.97-47.99c.42-1.29,11.21-2.74,13.1-3.46l-6.47,47.26-20.13,22.08c-.41.17-.71-.04-1.06-.2-2.77-1.22-7.21-7.11-10.21-8.86-.47-.27-.6-.56-1.29-.38-1.49.38-12.16,16.34-14.19,18.57-1.32.09-12.1-10.31-14.02-11.84-.37-.37-.78-.52-1.3-.39-1.37.36-12.57,17.85-13.75,18.06l-14.4-10.8-14.09,18.07-13.77-11.14,7.22-55.65c.24-.74,1.12-.8,1.74-.98,4.52-1.33,9.91-1.71,14.53-2.93l-6.77,48.32c.05.86,3.6,3.78,4.44,3.3,1.96-4.02,6.72-7.73,7.66-12.07l9.2-78.54,15.88-2.27Z"/>
      <polygon class="st0" points="153.47 52.74 151.6 68.09 135.78 70.88 138.02 55.21 153.47 52.74"/>
      <path class="st0" d="M471.46,5.69c6.5-1.35,11.35,4.95,7.17,10.33-4.52,5.82-14.59.45-11.08-6.99.73-1.54,2.2-2.99,3.91-3.34ZM472.84,6.58c-6.62.91-5.71,11.46,1.2,10.79s5.71-11.73-1.2-10.79Z"/>
      <path class="st0" d="M497.45,74.96l-170.4,86.58,10.21-20.18-.64-.64-192.08,71.52-1.04-.58,12.24-23.14-.67-.22L4.87,225.99l-1.6-.28,203.57-78.17.64.64-9.07,18.6.67.68,177.52-60.67c.5-.11,1.31-.4,1.03.58-1.21,4.26-5.11,9.56-6.58,13.83-.21.61-.64,1.61.42,1.33l125.98-47.56Z"/>
      <path class="st0" d="M471.13,8.31c1.92.07,5.4-.66,5.38,2.04-.01,1.78-1.64,1.8-1.75,2.28-.17.7,1.66,1.9,1.36,2.93-1.93-.1-1.44-2.85-3.4-3.18-1.72-.29.46,3.64-1.59,3.18v-7.25ZM472.04,11.48c4.36.6,4.35-2.88,0-2.27v2.27Z"/>
    </g>
  </g>
</svg>