<?xml version="1.0" encoding="UTF-8"?>
<svg id="Layer_1" xmlns="http://www.w3.org/2000/svg" version="1.1" viewBox="0 0 939.9 274.7">
  <!-- Generator: Adobe Illustrator 29.0.0, SVG Export Plug-In . SVG Version: 2.1.0 Build 186)  -->
  <defs>
    <style>
      .st0 {
        fill: #fff;
      }
    </style>
  </defs>
  <g id="KxuI4z">
    <g>
      <path class="st0" d="M77.9,50.2c8-6.9,10.2,2.4,15,7.2.6-5.7-.6-15.1,7.8-14.1,3.4.4,5.5,9.2,7.9,11.4.9-4.6,1.5-13.4,7.9-13s5,12.2,6.8,13c1.5-2.7,3.8-10.9,7-11.4,8.9-1.5,7.6,7.4,7.7,13.5,1.3.3,1.3-.4,1.9-1.1,2.3-2.7,4.3-8.7,8.6-8.4,8,.6,5,9.3,4.5,15,2.8-.1,2.5-2.8,2-4.8h2.7c0,0,1.4-3.8,1.4-3.8l6-.2c.5,2.4,5.5,3,5.9,5.2l-2.4,9.6c3.8-.8,6.7-6.1,10.9-4.4,7.2,2.9,1.2,11.3-.6,16,4-.7,9.8-6.2,13.6-3.7,6.5,4.3-.5,11-3.4,15.3,6.1-.4,13.9-5.9,16.1,2.7s-6.3,8.3-7.9,10.9c5,.3,12.9-3.4,14.7,3.4s-6.6,6.9-9.2,10.9c2.8,0,12,.2,13.3,2.7,3.8,7.2-5.2,10-10.6,11.6-.2,1.8,0,1.1,1,1.3,3.6.8,11.3,1.5,11.9,5.9,1,7.1-7,7.5-12.3,8.5-1.5,1.3,4.8,3,5.2,3.3,3.9,2.1,7.9,4,4.9,9.2s-9.6,3.2-12.9,3.1c-.4,1.6.3,1.1.9,1.6,3.4,2.7,9.7,4.8,8.4,10s-9.8,3.5-14.7,3.4l6.1,6.5c2.6,2.6,2.6,4.9.3,7.8-3,3.8-10,.1-14-.6-1.1,1.1,7.6,8.2,5.6,12.8-3.2,7.3-10.9.9-15.9-.5-.6.6,6.7,10,3.4,13.9-5.1,6-10.4-2-15.7-3.7,1.3,3.9,4.8,11.2,1,14.3-6.3,5.1-13-7.5-14.7-6.1,1.2,4.5,1.9,9.1.7,13.6l766.3-.7v13.6H13v-12.6l1-1h13c.2,0,.7.6,1.4.7l.4-1.4c-10.9-2.3-3-7.2.3-11.6s4.1-7.1,6.3-10.8,3-3.3,3.4-4.2c.7-1.3-.8-2.1-.9-3.2-.6-3.8,4.9-8.2,6-10.8s0-1.2-1-1c-3.5.8-9.5,4.4-12.7,1.7-5.9-5.1,2-10.7,5.5-14.3.1-2.2-1.4-.3-1.7-.3h-10.9c-6.6-8,2.6-10.1,7.2-15l-12.5-2c-3.4-6.5.5-8.7,5.7-11.3s4.6-.4,4.1-2.4c-6.8-1.6-14.6-1.4-12.1-10.8l12.1-4.6c-1.8-2.5-7.9-1.4-8.9-2-5.2-3.2-3.6-21.2,5.5-16.7,1.2-1.1-3.9-2.8-4.1-5.1s2.1-5.8,3-5.8h10.2c.3,0,1.8,1.9,1.7-.3-2.4-2.5-8.8-7-7.9-10.6,1.9-7.8,9.1-3.4,14.2-2.6s.2-1.9-.8-3.4c-1.8-2.7-5.1-6.1-3.4-9.3,4-7.7,14.9,1.6,15.6.9-1.5-4.6-8.2-14.2-.2-16.2s11.7,6.8,12.5,6c-.7-4.1-4.7-10.6-1.4-14,5.5-5.8,10.1,2.5,14,5.8,2.2.1.3-1.4.3-1.7v-10.9ZM130.6,46.6c-1.7.9-3.4,8.7-4.6,10.1s-3.4.9-4.6.5c-4.1-1.2-.6-14.3-7.2-12.1-2.5,5.5-.2,14.4-8.8,12.1-.8-2.1-3.8-10.7-5.9-10.8-2.9,0-2.9,3.4-3.1,5.8s.2,4.7-.1,7c-7.6,4.8-7.4-4.8-11.8-7.4-7.4-4.4-1.2,11.1-3.6,13-4.7,3.7-6-1.1-9.1-3.8s-3.8-3.1-4.4-3c-4,2.8-.2,8.9.9,12.6,0,1.6-3.4,4.1-5,3.6s-9.6-9.5-11.8-4.7,6.5,9.9,3.6,13.4-8.7-2.2-12.7-3c-6.7-1.2,2.3,10.9,4,11.8-2,10.5-10.5-1.1-16,3.6-.2,5.7,12.1,8.3,6.6,14s-13.4-2.4-13.6,2.1,3.1,2.8,4.3,3.4c4-2.9,11.7-4.6,15.3-7.6s3.9-6.3,5.6-8.7c59.9-82.2,181.8-10.3,142.5,77.4-21.8,48.6-83.9,63.1-125.9,30.7-4.4,3-7.7,8.2-11.3,12.4.8,1,.9,1.1,2.1.7,4.1-1.2,9-10.1,13-4.2s-3.1,10.5-1.8,12.6c2.1,3.4,7.2-3,9-4.8s.9-1.8,1.1-1.9c1.5-.9,5.5.6,5.9,2.4l-.6,11.3,1.9,1c4.4-.2,6.4-13.4,12.8-8.8s-.3,12.2,3.5,13.1,4.8-10.4,7.5-10.9c6.3-1.2,4.8,2.4,6.2,6.8s1.3,7.2,4.5,5l3-11.2c6.7-3.3,5.9.9,7.9,5s2.8,6.2,5.9,4.4c1.4-2.7-.2-11.6,2-12.8,6.3-3.4,7.2,5.4,11.1,8.6,7.6,1.4.3-11.5,3.8-14,5.5-3.9,9.1,7.8,13.5,6.7s-2.4-10.9-.9-13.2c4.5-7.1,10.9,5.4,15.1,3.4s-5.8-10.7-2.3-14.6,9.9,4.1,14.6,2.6c2.8-6-9.6-10-4-15.3,2.7-2.5,12.2,3.5,13.8,1.3,3.6-5-11.5-8.9-6.2-15,1.9-2.2,12.6,1.7,13.6-1.4s-7.1-6.5-9.2-8.4l.4-5.4,12.9-1.8c2.1-4.9-10.6-6.6-11-8.3-1.8-7.4,7.4-5.9,11.9-8.3.8-1.1.9-3-.4-3.7-2.3-1.2-10.9-2.2-11.4-3.6s-.3-4.4,0-4.9c.6-.9,14.6-4.1,10.1-8s-14.7,2.9-13.5-7c2.1-1.6,11.7-4.8,9.2-8.3-4.1-1.8-8.7.2-12.9,0-4.3-5.8-.2-5.7,2.6-8.9s6.3-8.3-1.9-6.6-8.7,4.9-10.5-.9c-.9-2.8,6.2-7.9,5.8-11.8-1.2-4.7-9.9,2.8-11.9,2.9s-4.6-2.5-4.3-4.3,8.5-13.5,1.3-11.8-8,10.1-13.6,3.4l1.3-5c-2.5.7-5.7-1.8-7.3-1.9s-3.8,4-7.4-.1l-.2-12.6c-3.5-2.5-6.7,7.2-8.5,8.6s-4.7.7-5.8-1.2l-1.5-11.7c-.3-.3-2.7-.2-3.2,0ZM163.7,56.2c-1.2-.5-2.6-.3-3.8-.1l-2.1,5.4c2.8.2,7.6,3,9.2-.7s-1.7-3-2.6-3.4-.6-1-.7-1.1ZM158.3,78.6c-.6-1-13.3-6.7-15.4-7.5-34.9-12.5-74.1,1.8-93,33.2,6.9,0,12.7-4.8,19.2-7.1,6-2.1,5.8-1.9,11.4-5s9.7-3.5,13.5-3.5c5.8,0,6,3,12.7.3s10.5-5.5,9.7-9.1l1.3-.5-1.4-.3c-.6-1.8,1-1.2,1.7-2s-.2-1.7.5-2.6c1.4-1.6,7.6-4.1,9.8-4.2,8.4-.4,15,11.8,13.3,19.3l-2,.5-1.2,3.3-.7-2-2.4,4.1c2.6-.4,5.1-1.1,7.8-.6s3.3,1.9,4.7,1.8c2-.1,5.2-2.2,8-1.2-1.2-3.9,4.3-14,2.6-16.9ZM142.1,110.5c9.1,0,16.9-1.8,24.9-6.1,1-1.6,0-16-.5-18.6s-3.6-3.2-5-5.2c-.4.3-.8.6-.9,1.1-.6,1.9-2.2,9.7-2.2,11.5s1.1,4.4,2.1,6.5c-1.6,0-2.3-1.5-3.9-1.9-4.7-1.1-7.4.4-7.7,5.3-2.4-2.6-2.2-5-6.5-5.5s-6,.9-10,2.4-1.8-.3-2.7,0-1.6,1.9-3.3,2.3c-4.1.9-6.6-3.1-8.4-6,1.1-.9,4.4,3.9,5.5,4.4,2.7,1.3,3.9-.6,6-1.5s3.8.4,4.3-3.9c-2.4,0-5.7.2-6.8-2.4,2.6.4,5.4,2.6,7.9.7s.8-4.4-1.5-4.7-1.6,1.1-2.6,1.2-8.6.6-9.1,0c1.2-5.8-3.4-9.6-3.5-2l-1.7-2-10.6,6.5,2.1,2.6,7.4,4.5c-4.7,0-11.5-2.9-15.5-5.3s-1.5-2.1-2-2.2c-1-.3-10.4,1.1-12,1.6-4.7,1.3-6.2,4.5-9.7,7.3l-.7-2.1c-6,1.1-11.7,3.2-17.2,6s-10.4,6.8-11.2,6.2l.7-2.7c-.5,0-1,0-1.6.1-6,1.1-16.4,8.9-22.3,10.5s-3.6-1.1-5.3,1.5c-2.1,3.1-1.2,6.3-.5,9.7l2,.6c3.6-2.4,3.2-7.4,7.1-10,10.6-.7,20.7-2.4,29.3-9l.3,2.7c5.6-1.8,12.9.2,17.7-3.7l-3.4-3.1c5.1,2,17.6.7,21.6-2.9s2.1-5.4,4.3-6.6c-.2,2.1,2.2,5.8,1,7.5s-3.2-.3-.3,3.7,6.9,6.5,7.9,7.1c3.1,1.6,8.4.8,11.2,4.5-2.5.8-4.6-1.4-7.1-1.7s-4.8.3-7.2.7c1.9,5.7.8,11.7-1.1,17l2.9,5.4c5.3-1.7,10.5,3.7,15.3-1l-1.4-.7,1.4-2.4-6.1.3,5.5-3.4c.3-3.3,2.7-6,0-8.9l-10.9,4.5c-.8-6,8.2-4.7,10.1-7.7s.2-2.1.7-3,1.7-1.7,2.1-2.7c.7-2,0-5.6,2.9-7-1.2,3.2-.3,6.2-.7,9.1s-1.3,3.1-1.4,4.8,1,4.9,1.1,7.1c4-2.9.9-6.9,1.1-10.8,8.3-2.1,15-8.8,18.4-16.4l1.4.3-1.4,5.8ZM133.2,218.1c51.3-10.7,77.8-70,49.5-115.1-1.8-2.8-10.5-14.7-12.9-15.7s-.8.8-.7,1.4c.3,2.9,1.9,16.1.4,17.3-5.5,1.6-9.9,5.2-15.7,6.2-4,.7-13.5.3-16.6,1.7s-5.4,6.7-8.1,7.3c.5,6.4-2.9,11.2-3.4,17.6s-.2,9.9,1.1,12.6,9.2,7.4,11.3,9.2c4.1,3.4,8.8,6.7,12.3,10.9s6.7,9.8,6.8,10.9c.3,2.9-4.6,10.6-6.4,13.3s-5.8,8.7-8,11.1c-3.1,3.6-7.7,6.2-9.5,11.2ZM60.6,188.6c.6-.6.7-2,1.5-2.9,4.5-4.7,7.2-9,11.3-13.3s7.8-5.8,8.9-7.5,1.2-4.9,2.3-7.2c2.6-5.2,6.9-6.1,8.2-13s-.5-2.4-.4-3.1c.3-1.5,2.9-1.3,2.5-5.4s-2.5-14.8-3.5-17.6-4.3-7.6-5.1-7.9c-4.7-1.6-14.7,4.1-19.9,5.1-3.9.8-8.7,0-11.1.5s-8.4,5.7-13,5.5c-6.2,17-3.9,37.3,3.5,53.7s8.1,15.5,10.4,15.3c1.1-.8,3.6-1.4,4.4-2.1ZM37.6,122.7c-7.1-.7-10.8,1.5-13.7,7.8l5.8,3.1.2,5.4c-.4.7-18.1,2.6-10.7,7.1s7.5,1.7,10.6,2.7v5.9c0,0-10.8,5.3-10.8,5.3l.8,2.9,11.8.9c6.5,6.6-5.8,8.4-7.4,12.2-2.9,6.5,10.4,1.8,12.3,2.2s1.9,1.7,2.2,2.5c1.4,4.3-1.5,3.9-3.5,6.1s-5.3,5.2-3.4,6.8c3.5,2.9,11-3.6,13.7-1.4,5.4,4.5-4.5,9.3-4.1,14.3,4.1-4.3,6.6-9.4,10.5-13.9-15.4-19.3-21.1-46.1-14.3-69.9ZM119.5,145.9c-3.1.4-9.7-2.6-12-2.5s-1.6,1-2.6,1c-2-.2-7.6-4.6-10-2.2,3,0,7.9,3.3,10,3.6s2.2-.6,3.1-.4c3.1.7,9.7,4.4,11.4.6ZM102.4,162.2c1.4-.3,3.5-1,4.4-2.1s4.8-7.9,5.1-8.6c2.3-5.4-2-2.9-4.4-3.3s-10.8-5.3-12.6-4.1l-.7,1.7c5.2-.2,9.1,3.2,10.2,8.2l-4.4-3.4c-.9,1.9-6.2,5.1-6.9,6.1s.3,1.7.1,2.3c-1,3.3-2.8,2.3-4.5,3.6-2.7,2-10,8.2-11.7,10.8s-1.3,1.9-.3,2.4c3.4-3.4,9.1-7.8,13.9-8.6s-3.1,4.1-3.8,4.7c-1.4,1.3-2.5,3.7-4.4,4.8-4,2.3-10,1.4-12.9,6.2,3.2,1.2,6.2-1,9.2-1.7,1,.5.2,1.2-.4,1.7-1.6,1.4-5.9,2.5-8.1,3.5s-1.4,1.6-2.6,2.2-5.2.7-6.2,1.7c-1.6,1.6-1.3,12-5.3,14.2-.3-3.4,0-7.3,1.7-10.2-.5-.4-7.8,3.7-8.3,4.4-.9,1.3-.3,2.8-.8,3.7s-1.8.8-2.6,1.8c-1.6,2.1-2.1,5.1-3.4,6.9s-3.2,1.4-3.9,4.4,1.5,11.5,2.6,12.2,3.9-.7,5.1-1.4c1.1-3.6,6.2-8.6,7.4-11.4s.2-2.8.7-4.1c2.1-4.7,16.8-8.5,21.5-14.6s1-3.5,1.7-4.4,2.2-.8,3.1-1.7,1-3.2,2.3-4.5,8.6-3.9,11.5-6.2,4.2-3.9,5.2-5,2.5-2.9,1.7-3.7l-8.2,6.8c-.4-3.6,5.1-6.4,6.1-10.2l4.4-2.4-2-2.4ZM125,151.3l-.7-3.4c-6.6,1.1-6,5.2-8.7,10s-3.5,3.2-3.5,5.6l3.4,1.1c2.6-4,4.8-8.5,5.6-13.2h4ZM118.1,149.3c-4.1-.8-3.2,2.6-4.5,5.4s-4.2,3.8-3.7,6.9l4.1-4.4,4.1-7.9ZM136.4,162.4l-12.8-6.3c3.4,6.1,11.4,7.5,16.9,12.1s1.9.8,1.5,2.2c-2.1-1-4.5-1.6-6.6-2.6s-12.2-7.4-13-7.5c-1.6-.3-3,3.4-3.6,4.7,1.5-.3,12.6,5.9,10.9,7.5-3.6-1.6-7.5-4.4-11.6-3.7,4.7,3.6,10.6,4.8,16.2,6.3,1.4.4,3,0,4.4.3,3.6.9,7.8,3.1,11.4,4.3l1.3-1.5-.2-1.6c-2.7-1.7-4.1-5.4-6.1-7.3s-7.3-3.2-8.8-6.8ZM116,220c3.6-6.9,6.5-14.6,10.2-21.5s2.7-4.9,3.9-6.3,5.8-3.9,5.8-5.8c0-3.2-13.3-8.3-16.1-9.9s-5.8-3.6-8.2-6c-2,1.8-5.7,3-7.5,4.6-7.3,6.3-13.2,15.1-23.2,19.1l-10.6,10.5c12.6,10.2,29.5,15.6,45.6,15.2ZM148.2,180.6c-6.6-2.9-13.6-3.2-20.5-4.8,6.9,5.6,13.7,8.4,15,18.4-5.1,1-1.6-5.8-7.5-1.7s-4,3.7-4.2,6.1.8,3.4.6,4.6-2.2,2.8-2.7,4.1-2.5,11.5-4.6,9.3c1-2.2,2.1-3.8-.3-5.4-2.3,2.5-3.5,5.6-4.4,8.8,12.5-.1,9.9-.9,12.6-10.2s3.6-5.9,6.3-7.4,5.1-.9,6.4-2.4,3-5.2,3.2-5.7c.6-1.5.8-3.4.9-4.9,2.1-1.1.8,2.9,2,1.7s3-5.5,3.3-6.9,0-.8-.9-.9c-2.1-.3-6.1,1.1-7.2.4-2.8-1.9,1.8-1.7,2.1-3.1ZM79.9,224.9l-10.6,8.1c-9.6-2.6-3.6-9.6-3.4-16.3-3.9,2.6-9.3,8.9-14,5.4-3.7,6.4,3.3,8.5,6.5,12.2s1.1,2.8,1.6,3.2c.8.5,16.1-1.5,18.8.2l.9-.9v-11.9ZM36.9,218.1c-1.6-.3-1.1,0-1.5.9-2.5,4.6-2.6,12.6,4.3,10.7-4.2-2.7-2.4-7.2-2.7-11.6ZM32.8,231l-1.7-5.4-3.8,5.4h5.5ZM43.7,235.1c2.3-1.4,9.1-.9,7.9-4.8s-11.4,2.3-15.2,2.7-4.6-.8-7.1-.6c.5,3.4,6.5,3,8.9,2.4s4.9-3.9,8.2-3.1l-2.7,3.4ZM94.9,230.4c-.9-1.1-6,7-5.5,7.5l6.1-.7-.7-6.8ZM41.7,237.8c2.7.7,19.8,5.9,15.1-1.7s-7.3-.6-10.8.2-4.8-.7-4.3,1.5Z"/>
      <path class="st0" d="M254.1,109.1l36.5,85.2,35.5-85.2h22.9v114.5h-19.8v-73.6l-30.4,72.9c-1.2,1.4-14.1.6-16.7.3l-32.1-73.9v74.3h-19.8v-114.5h23.9Z"/>
      <path class="st0" d="M571.6,138.4c.5.5-1.1,6.9,1,6.1s4.8-3.9,7.2-5.1c12.8-6.5,31.2-4.4,38.3,9.2h1c11.9-17.6,45-17.7,53.7,2.9s2.6,7,2.6,8.3v63.7h-17.8c-.9-18,1.2-37,0-54.9-.4-6.4-1.1-13.5-8.2-15.7-9.3-2.9-19.2-.2-22.9,9.2-1,2.6-2.4,8.7-2.4,11.2v50.1h-18.4v-58.2c0-.3-.9-4.3-1.1-5-2.6-8.4-10.4-9.3-18.1-7.4s-12.7,9.4-13.5,17.2c-1.4,14.5.5,32.1,0,47,0,2,.2,5.2-1,6.4h-18.1v-85.2h17.8Z"/>
      <path class="st0" d="M767,205.8v17c-9.9.5-20.4,3.4-26.3-6.8-19.6,19-63.5,11.6-58.9-22,3.4-24.6,36.1-20.2,52.6-24.5s4.7-4.8,3.8-9.5c-2.2-10.8-30.9-11.4-33.7,2.2-.6,2.9.5,6.1-1.3,8.2h-18.1c-2.2-27.7,22.8-37.6,46.7-34,9.7,1.5,19,5.5,23.3,14.9s2.4,6.7,2.4,7.2v47.7c0,2.4,8.1-.4,9.6-.3ZM738.3,184c-9.2,3.6-43.9,1.1-36.8,18.7s25.4,7.1,32.3-.3,4.5-6.5,4.5-7.8v-10.6Z"/>
      <path class="st0" d="M377,138.4v57.6c0,1.1,1.7,6,2.4,7.2,3.9,7.3,16,7.9,22.9,5.1,5.8-2.4,12.3-12.3,12.3-18.4v-51.4h19.1v85.2h-17.8l-.3-6.8c-12.5,11-35.4,13.3-48.1,1.7s-9.6-14.6-9.6-21.1v-58.9h19.1Z"/>
      <path class="st0" d="M923.7,187.4c1.3.3.4,4.4.2,5.6-7.8,47.6-77,43-81.1-6.6-2.6-31.8,18.6-55.6,51.4-49.9,18.2,3.2,28.3,15.9,29.9,33.9-.7-.2-1.5.7-1.7.7h-13.7c-.2,0-3.3-.5-3.4-.6-2.4-14.9-14.4-22.2-28.8-16.5-21.4,8.5-20.5,48.8,2.5,55,12.1,3.3,23.3-3.7,25.8-15.9s-.5-4.3,1.2-5.6h17.8Z"/>
      <path class="st0" d="M793.6,115.2v22.1l1,1h16v15.3l-1,1h-16v51.4c0,4.4,14,.6,17.1,1.7v14c0,.2-.8,2.3-1.1,2.4-12.3.3-29.4,3.4-33.9-11.7s-1.1-4.6-1.1-5v-52.8h-13.3l-1-1v-15.3h14.3v-23.2h19.1Z"/>
      <path class="st0" d="M499.9,115.2v22.1l1,1h16v15.3l-1,1h-16v51.4l.9,1.5c2.2,1.7,12.8-.7,16.2.2l-.7,16.3c-9.3-.2-21.5,2.7-29.3-3.7s-5.1-8.7-5.5-14.3c-1.1-16.7.9-34.6,0-51.5h-13.3l-1-1v-15.3h14.3v-23.2h18.4Z"/>
      <rect class="st0" x="442.6" y="109.1" width="19.1" height="114.5"/>
      <rect class="st0" x="524.5" y="138.4" width="19.1" height="85.2"/>
      <rect class="st0" x="818.2" y="138.4" width="19.1" height="85.2"/>
      <polygon class="st0" points="524.5 132.3 524.5 109.1 542.6 109.1 543.6 110.1 543.6 131.2 542.6 132.3 524.5 132.3"/>
      <polygon class="st0" points="818.2 132.3 818.2 109.1 836.3 109.1 837.3 110.1 837.3 131.2 836.3 132.3 818.2 132.3"/>
      <path class="st0" d="M193.1,216.8c4.9-.8,6.1,7.2,1.2,8.1s-6.7-7.2-1.2-8.1Z"/>
    </g>
  </g>
</svg>