<?xml version="1.0" encoding="UTF-8"?>
<svg id="Layer_1" xmlns="http://www.w3.org/2000/svg" version="1.1" viewBox="0 0 500 369.93">
  <!-- Generator: Adobe Illustrator 29.0.0, SVG Export Plug-In . SVG Version: 2.1.0 Build 186)  -->
  <defs>
    <style>
      .st0 {
        fill: #fff;
      }

      .st1 {
        fill: #77b944;
      }
    </style>
  </defs>
  <g id="QQ8SIQ">
    <g>
      <path class="st0" d="M2.48,275.98c18.37.23,36.81-.48,55.14.39,21.75,2.39,31.61,14.21,32.72,35.76l-.02,51.28h-24.38l.02-45.09c-1.16-14.59-5.3-20.72-20.32-21.47-4.55-.23-12.73-.51-17.06,0-.39.05-1.33.18-1.33.6v65.96H2.48v-87.43Z"/>
      <path class="st0" d="M487.35,366.9v.39h-3.1c.67-.75,2.11-.3,3.1-.39Z"/>
      <path class="st1" d="M163.85,33.81c0-10.44,0-20.9,0-31.34h219.8v232.12h-219.8v-26.86s1.93-.22,1.93-.22c.93-.31,1.89-.59,2.87-.58,11.57.08,22,.14,33.6-1.13,26.91-2.96,54.48-10.06,80.04-18.78,25.82-8.81,52.83-19.98,73.66-37.35l-2.72-2.03c-12.19-7.14-24.2-14.1-36.03-20.87-28.29,24.74-60.7,48.57-98.04,58.67-16.35,4.42-36.24,6.9-53.08,4.94-.39-.04-.76-.21-1.14-.38s-.75-.41-1.1-.65l-.77-.36v-18.53l.77-.46,2.34-.41c54.09,6.92,100.03-33.56,134.75-70.69-25.64-30.04-60.25-54.33-99.54-62.05-12.12-2.38-22.41-2.48-34.63-2.44-1,0-1.97-.28-2.92-.59Z"/>
      <path class="st1" d="M163.85,33.81c.96,5.67.96,11.35,0,17.02-.69.41-1.42.84-2.23.96-12.24,1.8-22.25,3.47-33.99,7.88-19.05,7.16-35.5,17.95-49.6,32.6-1.07,1.11-8.71,9.61-8.51,10.25,1.73,5.57,4.86,12.06,7.47,17.35,16.8,34.01,45.9,62.63,84.63,68.38l2.22,1.09.77.26v17.08l-.77.45c-58.41-5.51-104.59-47.1-127.38-99.55-.59-1.35-3.44-7.75-3.39-8.6.04-.69.7-1.11,1.14-1.53,3.52-3.44,7.61-6.73,11.43-9.85,32.16-26.31,76.06-50.66,118.21-53.78Z"/>
      <polygon class="st0" points="120.31 275.98 140.63 344.46 160.75 275.98 185.91 275.98 157.86 363.04 122.62 363.44 93.81 275.98 120.31 275.98"/>
      <rect class="st0" x="196.35" y="275.98" width="24.77" height="87.43"/>
      <path class="st0" d="M356.56,275.98v87.43h-24.19s-.58-.54-.58-.58v-86.27s.54-.58.58-.58h24.19Z"/>
      <path class="st0" d="M488.54,344.24c-16.94-2.68-20.54,19.41-4.66,23.04h.39c1.06-.15,2.1-.28,3.1-.39,13.84-1.27,13.74-20.66,1.18-22.65ZM484.1,364.08c-8.91-1.24-9.17-15.82.06-17.28,13.19-2.09,13.74,19.19-.06,17.28Z"/>
      <path class="st0" d="M319.15,306.23c-8.42-40.11-51.75-28.23-81.99-30.27-.44-.04-1.2.17-1.33.6v86.27c0,.32.94.68,1.33.6,35.68-2.54,80.57,12.63,83.43-38.11.35-6.23-.16-13-1.44-19.1ZM295.04,330.63c-4.89,15.81-20.72,14.93-34.45,14.89v-49.52h16.06c2.29,0,8.32,2.27,10.38,3.55,9.56,5.93,11.06,21.22,8.01,31.08Z"/>
      <path class="st0" d="M434.16,276.36l-32.53-.4-35.01,87.46h24.19l5.57-15.24.61-.26,39.82.08c2.57,4.73,3.18,10.67,5.86,15.42h26.12l-34.62-87.06ZM401.83,331.5l15.29-40.62,14.9,40.62h-30.18Z"/>
      <path class="st1" d="M163.85,153.35c-.96-21.14-.97-42.3,0-63.45,3.17-1.07,7.61.38,10.87,1.46,8.48,2.79,13.86,8.09,18.94,15.18,3.83,5.35,7.2,11.19,10.35,16.92l28.82-24.2c-17.01-19.04-41.34-30.28-67.07-26.96l-1.91-.58c0-6.96,0-13.93,0-20.89,8.64-.61,16.66-.56,25.23.89,29.7,5,57.4,24.74,75.71,47.98-9.36,12.47-20.5,24.51-32.66,34.3-19.24,15.48-43.14,27.72-68.29,19.35Z"/>
      <path class="st1" d="M163.85,71.72c.76,6.05.76,12.13,0,18.18l-1.47.65c-10.61-.7-20.66,3.3-28.96,9.72-1.31,1.01-8.73,7.55-8.74,8.14-.01.91,2.86,7.31,3.56,8.83,6.97,15.28,18.22,28.8,34.29,34.81l1.33,1.29v16.64c-33.93-5.92-58.52-33.3-68.35-65.2,18.01-18.28,42.74-30.25,68.35-33.06Z"/>
      <path class="st0" d="M488.54,356.68c.18-.78,2.63-.55,2.7-3.54.11-4.75-6.84-3.99-10.08-4.04v12.77h2.71v-5.42c2.3-.26,2.9,4.4,4.26,5.22.79.47,2.18.09,3.09.19.51-.45-2.86-4.44-2.68-5.18ZM483.87,354.45v-3.1c5.76-.71,5.77,3.8,0,3.1Z"/>
    </g>
  </g>
</svg>