<?xml version="1.0" encoding="UTF-8"?>
<svg id="Layer_1" xmlns="http://www.w3.org/2000/svg" version="1.1" viewBox="0 0 1078.6 441.3">
  <!-- Generator: Adobe Illustrator 29.0.0, SVG Export Plug-In . SVG Version: 2.1.0 Build 186)  -->
  <defs>
    <style>
      .st0 {
        fill: #3e4748;
      }

      .st1 {
        fill: #70bf4d;
      }
    </style>
  </defs>
  <g id="lAXNCC">
    <g>
      <path class="st0" d="M6.8,116.3L186.3,13.1l179.2,103.2.3.7-.2,91.5-88.9,52-160.5-92.8,2.7-2,67.3-38.7,80.3,46,2.3-.6,17.9-10.6c.4-.3-.2-.6-.5-.8-2.3-1.5-5.2-3-7.6-4.4-30.5-17.9-61.8-34.8-92.3-52.8L6.8,208.1v-91.7Z"/>
      <path class="st1" d="M365.8,323.9c-60,33.8-119.6,68.8-179.6,102.9L6.8,323.9v-92.5c.1,0,88.6-51.6,88.6-51.6l160.9,92.7-70,40.6-80.7-46.3-19.8,11.1v.9c0,0,100.1,57.2,100.1,57.2.7.1,9.4-5.1,10.8-5.9,55.9-31.9,111.2-65,167.1-97.1l2-.8v91.7Z"/>
      <path class="st0" d="M1073,181.8h-32.1c-7.8-17.4-21.7-32.3-40.6-37.4-39.2-10.4-79.1,13.2-88.8,52.2-13.3,53.3,22,104.9,79.5,98.8,22.2-2.4,41.6-18,49.3-38.8h32.8c-9.4,32-35.6,56.1-68.1,63.5-69.9,16-126.5-30.2-126.5-101.2,0-69.7,54.7-116.1,124-101.7,33.7,7,61.3,31,70.7,64.4Z"/>
      <path class="st0" d="M810.1,46.1v72.4h45.3v26.1s-.6.6-.6.6h-44.6v174.9h-30.2v-174.9h-45.3v-26.7h45.3V46.1h30.2Z"/>
      <path class="st0" d="M681.2,136.8c-33.7-29.3-94.4-30-125.9,3l-8.6,10.6v-31.9h-30.2v281.3h30.2v-112c8.7,12.1,20,22.4,33.8,28.5,17.4,7.7,38.7,8.6,57.3,5.4,85.2-14.9,105-131.3,43.5-184.9ZM608.6,294c-83.9-5.1-85.6-147.1.6-152.8,44.2-2.9,75.1,27.9,77.2,71.2,2.4,47.8-28.3,84.6-77.8,81.6Z"/>
    </g>
  </g>
</svg>