<?xml version="1.0" encoding="UTF-8"?>
<svg id="Layer_1" xmlns="http://www.w3.org/2000/svg" version="1.1" viewBox="0 0 500 383.25">
  <!-- Generator: Adobe Illustrator 29.0.0, SVG Export Plug-In . SVG Version: 2.1.0 Build 186)  -->
  <defs>
    <style>
      .st0 {
        fill: #f99c27;
      }

      .st1 {
        fill: #fcbc84;
      }

      .st2 {
        fill: #f37421;
      }

      .st3 {
        fill: #f069a2;
      }

      .st4 {
        fill: #dc4426;
      }

      .st5 {
        fill: #fff;
      }

      .st6 {
        fill: #f15722;
      }

      .st7 {
        fill: #febf10;
      }

      .st8 {
        fill: #c82026;
      }

      .st9 {
        fill: #f78e1e;
      }

      .st10 {
        fill: #ef3b24;
      }

      .st11 {
        fill: #e02526;
      }

      .st12 {
        fill: #f05023;
      }
    </style>
  </defs>
  <g id="VcZMkB">
    <g>
      <path class="st5" d="M196.39,338.07v-58.41l-1.21,1.45-34.74,56.96h-23.2v-75.57c0-.93-16.9-1.59-18.41-1.95v-8.67l.89-.53,32.22-7.44h13.28v60.53c1.95-2.4,3.49-5.18,5.11-7.82,10.72-17.48,21.2-35.12,31.72-52.71h22.66v70.8l23.3-31.05.06-36.05c.33-2.51,6.9-5.44,9.22-6,17.69-4.29,26.52,16.09,16.58,29.31-16.3,22.99-34.45,44.66-51.46,67.15h-26.03Z"/>
      <path class="st5" d="M336.98,251.7c-14.84,2.54-22.06,13.98-23.68,28.19-2.78,24.38,9.94,48.34,37.76,40.22,6.69-1.95,12.81-5.57,19.21-8.24v16.81c-4.06,2.21-8.65,4.21-13.02,5.75-30.7,10.84-68.65,5.82-77.4-30.41-9.52-39.4,23.37-67.26,61.16-62.55,14.73,1.84,34.26,12.73,27.4,30.49-4.92,12.76-22.01,11.39-31.43,4.69v-24.96Z"/>
      <path class="st7" d="M427.28,49.22c15.58,0,31.17,0,46.75,0,0,23.12,0,46.26,0,69.38-15.45.96-30.94.98-46.39,0-.72-.1-1.08-.33-1.05-1.07-.19-5.76-.34-11.72-.35-17.61-.02-15.31.15-30.62.33-45.92,0-.8.12-1.59.24-2.39s.29-1.59.47-2.39Z"/>
      <path class="st2" d="M409.22,21.26c.99,9.3.97,18.66,0,27.96-30.56.93-61.15.89-91.71.43.47,15.31.48,30.63-.36,45.94.69,7.66.7,15.35,0,23.01l.71.25v45.34l-.71.43c-.1.31-.22.3-.35,0l-.03-142.16c-.21-.42.38-1.11.38-1.2,30.67-1.07,61.41-1.16,92.07,0Z"/>
      <path class="st12" d="M474.02,118.6l.71.25v45.34l-.71.43c-15.58.02-31.17,0-46.74,0l-.71-.25v-45.34l.71-.43c.07-.32.19-.3.35,0,15.46,0,30.93-.02,46.39,0Z"/>
      <path class="st8" d="M224.72,164.98c30.53-.43,62.06-.36,92.64-.11.03,0-.15.19-.4.44l-.17,22.33h-92.07s0-22.65,0-22.65Z"/>
      <path class="st0" d="M409.22,21.26c-30.68-.06-61.39.05-92.07,0,.1-6.13-.07-12.28,0-18.41h91.54c.39,0,.51.86.55,1.22.57,4.88-.03,12.03-.02,17.19Z"/>
      <path class="st11" d="M409.22,118.6l.71.25v45.34l-.71.43c-11.33,0-22.67,0-34,0h-.71l-.71-.25v-45.34l.71-.43c.1-.31.22-.3.35,0,11.45-.7,22.9-.7,34.35,0Z"/>
      <path class="st3" d="M474.02,118.6c7.78.01,15.59,0,23.37,0v46.02c-7.78,0-15.59-.01-23.37,0v-46.02Z"/>
      <path class="st10" d="M427.28,118.6v46.02c-6.01,0-12.05,0-18.06,0v-46.02c6.01-.7,12.05-.7,18.06,0Z"/>
      <path class="st1" d="M409.22,21.26c6.01.01,12.05,0,18.06,0,0,9.32-.01,18.65,0,27.97-6.01.69-12.05.7-18.06,0,0-9.32.02-18.65,0-27.96Z"/>
      <path class="st6" d="M316.79,164.62h.35c19.12-.7,38.25-.69,57.37,0,.24,0,.47,0,.71,0l-58.08.35-.35,22.66v-22.66s-92.07,0-92.07,0c.37-.59,1.34-.35,1.94-.36,30.02-.37,60.11,0,90.13,0Z"/>
      <path class="st5" d="M114.84,276.76c-3.26-19.44-16.8-35.95-37.98-34.63-10.69.67-19.79,7.06-28.85,12.05v-12.39h-10.45c-11.95,4.24-24.46,7.11-36.3,11.5v8.67h15.58v105.13l-14.16,3.54v8.85h60.55v-8.85l-15.23-3.72v-29.56c9.52.42,18.53,1.27,27.98-.52,29.17-5.52,43.61-31.65,38.84-60.08ZM76.99,313.08c-6.44,10.2-17.7,12.01-28.98,11.57v-63.01c10.36-1.93,21.62-2.19,28.68,6.91,8.11,10.47,7.2,33.6.3,44.53Z"/>
      <path class="st9" d="M427.28,49.22c.02,22.25-.79,45.3-.01,67.45.02.67-.03,1.34.37,1.93-.12,0-.24,0-.35,0-6.01,0-12.05,0-18.06,0-.97-23.12-.95-46.26,0-69.38,6.01,0,12.05,0,18.06,0Z"/>
      <path class="st6" d="M409.22,49.22c.02,23.12,0,46.26,0,69.38-11.44,0-22.91,0-34.35,0l-.71-.32c.03-7.43-.17-14.76-.61-21.98h-55.97s-.44-.71-.44-.71c0-15.45,0-30.92,0-46.37,30.69.02,61.39-.01,92.07,0Z"/>
      <path class="st8" d="M374.52,118.6v46.02c-19.12,0-38.25,0-57.37,0v-46.02l.25-.71h56.68l.44.71Z"/>
      <path class="st4" d="M317.15,95.6h57.37s.35,23.01.35,23.01h-57.72c0-7.66,0-15.35,0-23.01Z"/>
    </g>
  </g>
</svg>