<?xml version="1.0" encoding="UTF-8"?>
<svg id="Layer_1" xmlns="http://www.w3.org/2000/svg" version="1.1" viewBox="0 0 1878.1 455.5">
  <!-- Generator: Adobe Illustrator 29.0.0, SVG Export Plug-In . SVG Version: 2.1.0 Build 186)  -->
  <defs>
    <style>
      .st0 {
        fill: #f8982b;
      }

      .st1 {
        fill: #fff;
      }

      .st2 {
        fill: #f8972a;
      }

      .st3 {
        fill: #f8982a;
      }
    </style>
  </defs>
  <g id="BUEaV8">
    <g>
      <path class="st2" d="M1357.9,35.4l45,153.6,30.4-107.1-10.9-45c-.4-.5.6-1.5.8-1.5h69.6l41.7,156.5,45-156.5h35.5c-.1,2.9-1.2,5.8-2,8.5-17.7,59.8-36.4,123-56.6,181.9-6.3,18.5-13.2,25.5-33.9,26.3-29.1,1-43.2-11.7-51-38.3-7.7-26.3-12.6-54.1-19.8-80.6-2.1,1.7-2.6,5.8-3.4,8.5-7.1,24.7-16.2,77.8-31.8,95.8-23.6,27.2-71.9,14.7-78.9-21.2-16.8-60.3-34.4-120.5-50.6-181h70.7Z"/>
      <path class="st2" d="M973.8,35.4v75.3h48.6V36.5c0,0,1-1.1,1.1-1.1h70v214.5h-71.1v-107.2h-48.6v107.2h-71.1V35.4h71.1Z"/>
      <path class="st2" d="M18.4,36.5c.2-.8,1.7-1.2,2.5-1.1,35.5,1.2,72-1.5,107.4,0,44,1.9,77.1,26.4,73.6,73.6s-16.3,36.9-38.9,45.9c-.7.3-1.2-.4-1,1.1l60.9,93.8h-79.8l-48.6-104c-.2-1.4,0-.9,1.1-1.1,15.5-1.9,26.2-3.4,32.3-19.9s2.7-53.6-23.8-58.9c-2-.4-14.7-2.1-14.7.2v183.7H18.4V36.5Z"/>
      <path class="st2" d="M541.5,142.6V36.5c0,0,1-1.1,1.1-1.1h34.5v191.6c0,2.8-2.9,11.7-4.5,14.4-5.9,10.2-19.1,11.8-29.8,9.7-14-2.8-18.5-12.9-25.5-23.8-23.8-36.9-45.2-77.4-69.9-113.5-.4-.7.1-1.3-1.6-.9v136.9h-35.5V64c0-16.9,15.1-28.8,30.8-30.1,19.2-1.6,31.6,4.3,43,19.3,19.8,26,35.7,58.9,54.5,86.1.8,1.2,1.5,2.7,2.9,3.2Z"/>
      <path class="st2" d="M854.1,35.4v31.9h-54.8c-1.7,0-7.6,1.5-9.3,2.3-9.7,4.1-11.8,17.9-5.9,26,7.9,10.8,35.8,13.9,48.8,17.9,27.7,8.6,41.9,25.4,43.7,54.9,2.8,45.8-23.8,78.4-70,81.6h-84.5v-31.2c19.2-.5,38.5.7,57.7,0s15.4-.4,20.7-1.8c14.4-4,19.9-26.2,9.8-36.6-9.1-9.4-36.7-13.1-49.7-17-25.4-7.6-45.6-21.3-47.9-50-4.1-51.7,27.2-75.9,75.8-77.9,21.7-.9,43.9.7,65.7,0Z"/>
      <path class="st2" d="M379.7,67.3h-64.9c-4.1,0-8.2,5.9-9.3,9.5s-1.2,5.5-1.2,6v44.6h67.5v31.9h-67.5v46c0,5.4,5.3,10.8,10.4,12.1s6.7,1.3,8.1,1.3h59.8v31.2h-115.7c-15.3,0-32-18.8-32.9-33.8.6-44.1-3.6-91.6-.8-135.4,1.9-30.4,22.5-43.9,51.1-45.3s62.3,1.2,92.9,0c.7-.2,2.5.5,2.5,1.1v30.8Z"/>
      <rect class="st2" x="616.2" y="36.1" width="71.1" height="213.7"/>
      <path class="st1" d="M318.4,349.1l15.6,53.6,16.3-53.6h19.2c-.4,4.3-2.2,8.6-3.6,12.7-8,23.6-16.6,52.5-26.5,75-7,16-14.7,16.4-31.5,14.5v-15.2c9.1,1,15.7-.7,16.3-11-8.7-25.4-18.5-50.4-26.5-76h20.7Z"/>
      <path class="st1" d="M523.3,422.3h-19.6v-49.6c0-1-2.6-5.6-3.7-6.5-4.6-3.8-15-2.5-19.2,1.8s-4,6.7-4,7.6v46.7h-19.6v-73.2h18.1v10.9c8.4-13.9,29-16.8,41-5.8s6.9,9.8,6.9,13.4v54.7Z"/>
      <path class="st1" d="M1094.2,422.3h-19.6v-48.9c0-.3-1.3-3.7-1.5-4.3-4.3-7.5-17.9-6.4-22.7.3-1.1,1.5-3.3,7.4-3.3,9v43.8h-18.9v-73.2h18.1v10.9l5.8-6.9c13.4-12.1,42.1-3.6,42.1,15.9v53.3Z"/>
      <path class="st1" d="M606.7,422.3h-18.9v-46.7c0-.4-1-4.6-1.3-5.2-3.4-9.4-19.3-7.8-24,.3s-2.3,5.9-2.3,6.4v45.3h-19.6v-72.5h18.9v9.4c8.7-14.3,32.8-16,42.8-2.5,1.1,1.5,4.4,7.9,4.4,9.4v56.1Z"/>
      <path class="st1" d="M721.7,349.1c2.7.8,13.3,47.7,16,53.6,3.2-5.1,13.9-53.6,16.7-53.6h19.2l-25.5,73.1h-19.9c0,.1-26.9-71.6-26.9-71.6-.6-.4.7-1.5.8-1.5,4,0,16.9-.8,19.6,0Z"/>
      <path class="st1" d="M882.4,329.6v19.6h11.6v14.5h-11.6v42.4c0,3.4,9.2,2.5,11.6,2.5v14.5h-19.2c-4.9,0-11.9-6.1-11.8-11.4l-.2-48c-.4-.4-7.3.4-9,0s-1.1-11.4-.9-13.7c1-1.5,7.8-.3,9.8-.7v-19.6h19.6Z"/>
      <rect class="st1" x="267.2" y="323.8" width="19.6" height="98.5"/>
      <path class="st1" d="M925.9,349.1v73.2h-19.6v-72.1c0,0,1-1.1,1.1-1.1h18.5Z"/>
      <path class="st1" d="M439.2,422.3h-19.6v-72.1c0,0,1-1.1,1.1-1.1h17.4c0,0,1.1,1,1.1,1.1v72.1Z"/>
      <path class="st1" d="M1145,322.3c1.8,4.9,3.4,10.5,5.5,15.2s0,1.9,1.4,1.4,5.1-16.7,6.5-16.7h10.5v28.6c0,1.6-8,1.6-8,0v-17l-6.6,18c-2,0-5.2.9-6.3-1.1l-6.6-18.4v19.6h-7.3v-29.7h10.9Z"/>
      <rect class="st1" x="419.6" y="323" width="19.6" height="18.1"/>
      <path class="st1" d="M925.9,323v18.1h-18.5c0,0-1.1-1-1.1-1.1v-15.9c0,0,1-1.1,1.1-1.1h18.5Z"/>
      <path class="st1" d="M1120.4,328.8v23.2c-1.5-.1-8,.6-8-1.1v-22.1h-8s0-6.5,0-6.5h23.6c1.2,0,1.8,5.3.4,6.2s-8,0-8,.3Z"/>
      <path class="st2" d="M1644.1,33.2v219.5h216.9V33.2h-216.9ZM1745.1,146.8c1.5,3.6,13.1,3.8,14.9-.7l.9-33.6c37.1,1.1,97.9,29.8,72.7,75.8-1.9,3.4-11.3,16.3-15,16.2-.7,0-9.6-6.3-11.5-7.4-20.5-11.2-44.5-17.5-68-15.1v-69.2c.4-1.1,3.9-1.5,4.3-1.1,2.2,2-.8,29.2,1.6,35ZM1707,199.6c11.6-5.2,24.4-8.6,37.1-9.3,23.1-1.3,47.9,6.8,66.9,19.7-31.1,17.1-77.8,18.1-109.7,2.3-1.3-.6-6.5-3.2-7.1-3.8-.7-.7-1.1-.7-.4-1.8.7-1,11.2-6.3,13.2-7.1ZM1694.9,195.9v-73.2h.7v73.2h-.7ZM1702.9,191.5v-72.5h2.2v71.4c0,.5-1.6,1.4-2.2,1.1ZM1712.3,187.9v-71.7c0-.1,2.2,0,2.9-.7v71.7c0,.1-2.4.7-2.9.7ZM1721,185v-69.9c0-1.1,3.3-1.3,4.4-1.1v70.3c0,.2-3.7.9-4.4.7ZM1730.5,182.8v-70.3h4.4v70.3h-4.4ZM1850.2,243.8h-194.8c0,0-1.1-1-1.1-1.1V45.2h87.8l1.5,57.2c-33.1.3-76.2,14.5-84.8,50.4-9.9,41.2,29.2,67.7,64.5,75.3,38,8.2,98.2,1.4,118.4-36.8,27.7-52.5-36.7-87.2-80.6-88.1l1.5-58h87.8v198.5Z"/>
      <path class="st2" d="M1250.1,61.2c-8.5-19.2-20.5-28.6-42.4-27.3-28.6,1.8-36.8,25.1-44,48.7l-53.5,167.2h32.3l13.9-39.2h73.5c0,0,11.6,39.2,11.6,39.2h71.1l-62.5-188.6ZM1166.1,170.9l27.2-86.9,26.5,86.9h-53.7Z"/>
      <path class="st1" d="M164.6,362.1c-10.1-17.7-35-20.3-46.8-2.9v-9.4h-18.9v100.7h19.6v-37c1.8,1.4,2.6,3.7,4.4,5.4,7.4,6.9,21.2,6.9,29.9,2.5,18.7-9.6,21.2-42.6,11.7-59.3ZM139,405.2c-25.7,8.5-28.3-39.7-8.4-43.1,4.6-.8,10.3.4,13.7,3.7,8.6,8.4,7.8,35.1-5.3,39.4Z"/>
      <path class="st1" d="M207.4,352.8l-6.2,7.2v-10.1h-18.1v100.7h18.9v-37c12.9,17.9,38.9,12.9,47.5-6.5,13.4-30.2-5.2-74.5-42-54.3ZM211.5,405.4c-14.8-5.6-13.7-40,2.6-42.8,28.5-4.8,25.2,53.3-2.6,42.8Z"/>
      <path class="st1" d="M83,413.2c-1.7-15.2,2.4-35.1-.9-49.8-3.9-17.1-32.5-18.3-45.7-13.4-10.4,3.9-14.2,12.7-15.8,23h18.9c.5,0,.3-5.5,4-8,5-3.3,18.8-3.1,19.9,4,.7,4.7-.3,6.4-4.6,7.7-13.5,4-32.6.2-38.8,17.1-10.8,29.6,26.8,40.5,44.1,20.5l1.5,8h21c0-4.1-3.1-4.4-3.6-9.1ZM63.4,399.2c0,.2-1.8,3.1-2.2,3.6-7.3,9.8-27.8,9.7-22.7-6,2.7-8.2,18.7-6.1,24.8-10.3v12.7Z"/>
      <path class="st1" d="M651.6,347.9c-26,3.1-36.2,29.4-29,52.5,10,32.4,61,32.1,70.5-.2,8.8-29.7-9.3-56.2-41.5-52.3ZM662.7,406.2c-21.9,4.4-27.5-21-19.3-35.9,4.8-8.7,19.4-10.1,26.3-3.3,8.8,8.8,7.9,36.3-7,39.3Z"/>
      <path class="st1" d="M844,413.2c-1.5-13.2,3.4-45.6-3.3-55.4-7.9-11.6-31.3-12.2-43.3-7.9-10.2,3.7-14.3,12.9-15.8,23h18.9c.4,0,1.2-5.3,3.3-7.3,4.6-4.3,19.5-3.9,20.6,3.3.6,4.1-.1,6.2-4,7.5-15.4,5.1-39.3-.1-40.9,24.3-1.8,26.7,31,30.1,45.7,13.4l1.5,8h21c0-4.1-3.1-4.4-3.6-9.1ZM824.4,398.9c0,.2-1.8,3.1-2.2,3.6-5.8,7.9-23.3,11-23.3-2.2,0-12.9,17.7-9.2,25.5-14.1v12.7Z"/>
      <path class="st1" d="M971.5,347.9c-26.7,3-37.4,31.1-28.7,54.3,11.9,31.5,62.1,29.3,70.4-3.9,7.3-29.3-10.7-53.9-41.8-50.4ZM993.8,393.5c-2.6,10.7-10.2,14.6-20.9,12.8-17.6-3-19.2-43.5,4.3-43.7,16.7-.2,19.7,17.8,16.6,30.9Z"/>
      <path class="st3" d="M1596.8,201.5c-31.6,3.4-28,51.2,4.1,49.8,33.8-1.5,30.8-53.6-4.1-49.8ZM1603.1,247.2c-27.8,3.6-31.5-37.5-7-41,28.8-4.2,31.7,37.8,7,41Z"/>
      <path class="st3" d="M1742.8,147.7c7,4.5,11.7,4.1,18.9.3,10.9,24.3-29.7,24.3-18.9-.3Z"/>
      <path class="st0" d="M1604.1,228.8c0-.8,6.6-1.7,7.2-7.3.4-3.3-2.2-8.3-5.4-9-4.1-.9-11.1.7-15.6,0v28.3h4.4v-12.3c1.4.2,3.9-.5,4.9.2,1.2.7,5.3,10.3,7,11.5,1.4,1.1,3.2.6,4.8.7.7-.6-7.3-11-7.2-12ZM1594.7,224.2v-8.7c4.8.2,13.9-1.8,11.5,6-1.1,3.7-8.4,2.5-11.5,2.7Z"/>
    </g>
  </g>
</svg>