<?xml version="1.0" encoding="UTF-8"?>
<svg id="Layer_1" xmlns="http://www.w3.org/2000/svg" version="1.1" viewBox="0 0 500 500">
  <!-- Generator: Adobe Illustrator 29.0.0, SVG Export Plug-In . SVG Version: 2.1.0 Build 186)  -->
  <defs>
    <style>
      .st0 {
        fill: #f5ab1c;
      }

      .st1 {
        fill: #fff;
      }
    </style>
  </defs>
  <path class="st0" d="M332.38,230.96c9.29-9.57,18.36-19.4,27.55-29.09,1.68-1.58,3.94-2.08,6.14-2.27,13.83-1.22,29.41.99,43.44,0,1.38-.13,3.55,1.63,3.55,2.95,0,2.73-25.71,25.71-28.49,30.43-35.8,32.56-68.23,74.33-105.54,104.83-26.25,21.46-45.25,10.89-66.7-9.06-37.75-35.11-75.08-74.57-110.68-111.98-2.72-2.85-10.84-9.66-12.35-12.24-2.08-3.54.37-4.63,3.56-4.92,10.59-.95,31.53-.93,42.14,0,6.16.54,11.3,7.32,15.52,11.67,23.16,23.81,45.7,48.38,70.23,70.88,12.96,11.89,25.52,28.26,43.7,14.54,13.25-10,29.25-26.86,41.47-38.8,9.01-8.8,17.71-17.9,26.47-26.93Z"/>
  <path class="st0" d="M316.35,82.08c32.19,31.78,63.23,64.72,95.08,96.83,1.76,1.62,2.09,3.7-.12,5.09l-46.54.14c-2.03.1-4.35-1.3-5.79-2.62-6.92-6.33-13.7-15.44-20.38-22.34-20.69-21.37-43.18-44.41-65.4-64.06-8.39-7.42-15.98-15.99-28.35-12.14-6.26,1.95-14.51,10.17-19.57,14.73-29.76,26.84-57.16,56.46-84.85,85.38-1.28.8-2.67.91-4.13,1.05-14.17,1.33-30.34-1.06-44.73,0-6.53-.88.21-7.11,2.28-9.43,15.11-16.95,33.21-33.48,49.24-49.8,20.25-20.61,40.21-41.86,61.15-61.84,16.66-15.9,31.56-33.62,57.31-26.83,15.58,4.11,42.45,33.63,54.81,45.84Z"/>
  <path class="st0" d="M259.01,279.17c-.48-1.11-.65-2.26-.74-3.47-.81-11.07-.81-29.12,0-40.18.67-9.07,6.93-11.45,12.67-17.1,5.51-5.43,12.58-11.72,17.47-17.48,7.41-8.71,4.74-12.5-1.94-20.08-4.55-5.16-10.05-9.42-14.92-14.21-2.61-2.57-11.15-10.31-12.28-12.96-.58-1.37-.87-3.33-.99-4.83-1.13-13.25.91-28.05,0-41.47.81-6.03,5.97-.23,8.46,1.96,20.65,18.28,43.83,41.98,62.48,62.45,20.75,22.79,9.89,29.89-7.77,48.55-19.13,20.21-39.73,39.47-59.87,58.59l-2.56.23Z"/>
  <path class="st0" d="M242.77,105.15v46.92c0,1.02-2.4,4.22-3.22,5.19-7.57,8.98-19.92,17.43-27.54,26.83-4.13,5.1-5.18,9-.95,14.55,7.24,9.5,20.22,18.95,28.5,27.82,2.07,2.22,2.95,4.1,3.23,7.12,1.29,13.75-1.04,29.45,0,43.41.07,2.2-1.38,2.79-3.26,1.91-.5-.23-6.96-6.35-8.12-7.42-14.74-13.66-29.08-28.64-43.02-43.07-6.86-7.11-24.51-22.61-26.91-31.34-3.44-12.49,7.24-21.6,14.91-29.8,16.29-17.44,35.33-36.44,52.76-52.74,3.63-3.4,7.5-6.99,11.44-9.86l2.17.48Z"/>
  <path class="st1" d="M477.78,446.84v-48.54h13.6v66.01h-16.51l-36.6-45.61-2.57-2.28v47.89h-13.6v-66.01h15.86c13.55,15.93,25.93,32.98,39.82,48.54Z"/>
  <path class="st1" d="M54.69,398.3c15.09,1.53,25.24,15.25,19.66,30.01-2.83,7.49-7.06,8.13-13.34,11.27-.62.31-1.04-.17-.81,1.09l18.77,23.63h-17.16c-1.3,0-12.96-17.11-15.64-19.32-3.93-3.24-10.28-2.61-15.12-2.68-2.21-18,15.01-8.89,25.07-12.81,5.97-2.32,7.15-11.64,2.8-16.02-.93-.93-4.39-2.89-5.52-2.89h-28.81v52.74c0,.07-.9.97-.97.97h-13.92v-65.04c0-.07.9-.97.97-.97h44.02Z"/>
  <path class="st1" d="M391.02,464.31h-15.54l-24.28-50.46-11.98,25.23h15.21c3.77,0,7.79,8.45,8.74,11.65h-26.22c-5.14,0-8.72,9.54-10.03,13.59h-15.54l31.79-64.97c.46-1.01,1.23-.97,2.16-1.07,2.04-.24,12.61-.24,13.64.68l32.04,65.37Z"/>
  <path class="st1" d="M171.87,398.3l24.92,50.47,23.64-50.47h14.57l-30.74,65.37c-1.83,1.63-11.92.07-14.93.69l-32.02-66.06h14.57Z"/>
  <rect class="st1" x="266.07" y="398.3" width="14.24" height="66.01"/>
  <path class="st1" d="M126.23,398.3v66.01h-14.24v-65.04c0-.07.9-.97.97-.97h13.27Z"/>
</svg>