<?xml version="1.0" encoding="UTF-8"?>
<svg id="Layer_1" xmlns="http://www.w3.org/2000/svg" version="1.1" viewBox="0 0 500 100.3">
  <!-- Generator: Adobe Illustrator 29.0.0, SVG Export Plug-In . SVG Version: 2.1.0 Build 186)  -->
  <defs>
    <style>
      .st0 {
        fill: #0e9a9b;
      }

      .st1 {
        fill: #099a9a;
      }
    </style>
  </defs>
  <g id="QMOGly">
    <g>
      <path class="st1" d="M476.89,8.4l16.18,2.89v14.03c-8.44-2.62-18.93-5.92-27.7-3.01-4.72,1.57-6.53,6.4-2.72,9.95,12.56,7.54,32.44,10.51,36.23,26.89v7.84c-1.27,3.29-2.08,6.27-4.35,9.08-9.28,11.48-27.98,11.47-41.42,9.84-3.71-.45-7.41-1.23-11.05-2v-14.85c8.76,2.4,18.83,5.09,27.95,3.67,5.06-.79,9.27-2.78,8.04-8.73-.65-3.14-5.78-5.16-8.47-6.43-10.24-4.84-26.85-8.95-28.66-22.24s5.53-22.21,18.47-25.56l6.31-1.36h11.2Z"/>
      <path class="st1" d="M37.22,8.4l16.18,3.09v13.82c-8-2.6-16.86-5.28-25.33-3.53-5.89,1.22-10.36,6.72-4.26,10.89,9.78,6.68,28.23,9.43,33.74,21.31,2.41,5.2,2.35,12.58.07,17.82-8.01,18.35-38.86,16.12-54.83,12.1v-14.85c2.74.81,5.48,1.67,8.29,2.27,6.68,1.43,16.45,2.88,22.93.52,5.75-2.09,6.66-7.75,1.68-11.39-9.18-6.69-25.83-8.05-32.14-19.19-1.16-2.06-1.41-4.02-2.42-6.05v-8.25c.99-2.17,1.37-4.15,2.57-6.31,2.67-4.8,7.05-7.39,11.95-9.56l10.36-2.69h11.2Z"/>
      <path class="st0" d="M208.52,9.64l18.67,47.86,20.11-47.86h25.92v75.51h-20.32v-52.4l-22.59,53.26c-2.02-.37-12.03.57-12.88-.44l-21.36-52.4v51.99h-15.35V10.26s.58-.62.62-.62h27.17Z"/>
      <polygon class="st1" points="385.84 9.64 412.18 59.98 412.18 9.64 427.11 9.64 427.11 85.15 403.05 85.15 376.51 34.4 376.51 85.15 361.58 85.15 361.58 9.64 385.84 9.64"/>
      <path class="st0" d="M346.64,9.64v13.62h-33.6v17.33h29.45v12.38h-29.45v17.74h34.84v14.44h-55.58V10.26s.58-.62.62-.62h53.71Z"/>
      <path class="st1" d="M166.21,9.64v13.62h-33.39s-.62.58-.62.62v16.09s.58.62.62.62h28.83v12.38h-29.45v17.74h34.84v14.44h-55.17V9.64h54.34Z"/>
      <rect class="st1" x="71.23" y="9.64" width="21.15" height="75.51"/>
    </g>
  </g>
</svg>