<?xml version="1.0" encoding="UTF-8"?>
<svg id="Layer_1" xmlns="http://www.w3.org/2000/svg" version="1.1" viewBox="0 0 804.2 500">
  <!-- Generator: Adobe Illustrator 29.0.0, SVG Export Plug-In . SVG Version: 2.1.0 Build 186)  -->
  <defs>
    <style>
      .st0 {
        fill: #758188;
      }

      .st1 {
        fill: #294c71;
      }

      .st2 {
        fill: #5d7591;
      }

      .st3 {
        fill: #c9cdd0;
      }

      .st4 {
        fill: #aeb4b9;
      }

      .st5 {
        fill: #8697aa;
      }

      .st6 {
        fill: #2a4d71;
      }

      .st7 {
        fill: #677d97;
      }

      .st8 {
        fill: #294d71;
      }

      .st9 {
        fill: #98a0a6;
      }
    </style>
  </defs>
  <g id="Vqs0pm">
    <g>
      <path class="st1" d="M213,20.9c.7.2.7.5,0,.8-30.7,10.4-55.7,22.7-81,43.4C-12.4,183.4,28.6,413.4,202.7,477.5c3.4,1.2,7.9,1.6,10.3,4.1-87.3-9.6-163.9-68.8-193.7-151.4C-29.3,195.9,54.1,50.2,193.5,23.4c6.5-1.2,12.9-1.9,19.5-2.6Z"/>
      <path class="st0" d="M433,127c1,1.1.6,1.5-.8.8-14.1-16.1-27.7-28.8-46.1-40.3-52.8-32.9-112.6-34.5-171.8-19.1-48.8,12.7-96.7,39.1-126.5,80.3-1.2-.6.2-1.9.5-2.6,1.1-2.5,3-5.6,4.4-8,39.3-67.3,113.7-110,192-110.1,27.1,0,56.3,14.2,78.8,28.7s54,43.6,69.5,70.3Z"/>
      <path class="st0" d="M433.8,373.2l-7.9,12.6c-24.7,34.9-62.1,64.4-101.9,80.1-20.8,8.2-34.1,8.9-56.4,7.1-76-6.2-147.5-52.1-180.9-120.8,10.3,13.3,21.3,25.8,34.5,36.4,55.5,44.4,145.2,66.2,214.4,47.8,38.4-10.2,72.6-33.3,98.2-63.3Z"/>
      <path class="st1" d="M82.8,285.7l12.4-21.6c2.1-.6,2.9,1.4,4.4,2.2,5.8,3.2,17.5,8.8,23.9,6.4s4.1-3.3,1.9-5.9c-2.5-3-11.9-4.3-15.9-5.7-15-5.4-25.2-13.5-22.5-31,4.2-26.8,39.2-29.5,59.4-19.7,2,1,8.9,4.7,8.4,6.8l-11.1,19.1c-6.1-5.4-17.3-9.3-25.4-7.6-2.7.6-3.9,2.5-2.2,4.9s15.7,5.2,19.6,6.7c33.9,13,21.6,53.4-11.4,56.3-15.6,1.4-28.3-3.3-41.4-10.8Z"/>
      <polygon class="st1" points="283.9 205.9 300.9 257 318.7 205.9 349.3 205.9 315.9 294.9 287.7 295 253.3 205.9 283.9 205.9"/>
      <path class="st1" d="M288.9,424.3c5.5-2.1,11.4-3.5,17-5.8,36.6-15,68.8-43.1,88.5-77.3,3.7-6.5,6.7-13.3,10.3-19.9h39.1c-25.2,59.3-82,98.1-146.1,103.7-2.7.2-5.5-.2-8.1,0-1.1.4-1.4.3-.8-.8Z"/>
      <path class="st1" d="M295.1,77.4c50.8.2,103.5,32.9,132.4,73.3,6.3,8.9,12.9,19.4,16.4,29.7h-39.1c-3.6-5.9-6.1-12.3-9.6-18.3-22.7-39.9-61.2-71.2-105.5-83.9.8-1.1,2.6-1.4,5.4-.8Z"/>
      <polygon class="st1" points="235.4 205.9 235.4 271.7 265.7 271.7 265.7 295 206 295 206 205.9 235.4 205.9"/>
      <polygon class="st1" points="416 239.2 416 261.7 383.4 261.7 383.4 272.5 419.1 272.5 419.1 295 354.8 295 354.8 239.2 416 239.2"/>
      <path class="st1" d="M723.6,205.9c15.9,23.8,33.3,46.7,50.4,69.7v-69.7h12.4v89h-12l-52.3-70.5v70.5h-11.6v-89h13.2Z"/>
      <path class="st1" d="M597.3,205.9v37.2h46.9c0,0,1.2-1.1,1.2-1.2v-36h12.4v89h-12.4v-41.8h-48v41.8h-13.2v-89h13.2Z"/>
      <rect class="st1" x="164.2" y="205.9" width="28.7" height="89"/>
      <polygon class="st8" points="573.3 205.9 573.3 216 548.5 216 548.5 295 535.3 295 535.3 216 510.5 216 510.5 205.9 573.3 205.9"/>
      <rect class="st1" x="354.8" y="205.9" width="62.8" height="23.2"/>
      <rect class="st6" x="677.1" y="205.9" width="13.2" height="89"/>
      <path class="st7" d="M295.1,77.4c-1.7,0-4.4-.6-5.4.8-.9-.3-3.1-.3-3.1-1.5l8.5.8Z"/>
      <path class="st3" d="M85.9,350.7c-1.4-.6-2.4-2.5-2.3-3.9,1.4.6,2.4,2.5,2.3,3.9Z"/>
      <path class="st9" d="M433,127c.6,1,2,1.6,1.5,3.1-1.2-.2-1.7-1.6-2.3-2.3l.8-.8Z"/>
      <path class="st2" d="M213,20.9c.4,0,2.3-1.8,3.1-.4,0,.4-2.3.9-3.1,1.2v-.8Z"/>
      <path class="st4" d="M433.8,372.4l2.3-2.3c.3,1.5-.9,2.6-2.3,2.3Z"/>
      <path class="st5" d="M289.7,425.1c-.3,0-1.7,1.4-3.1.8-.3-.9,1.3-1.1,2.3-1.5l.8.8Z"/>
      <path class="st1" d="M491.3,262.1c21-14.9,21.1-46.6-6.6-54-2.7-.7-9.3-2.1-11.8-2.1h-43v89h29.4v-29.4c1.1.2,2.9-.4,3.8.1,1.4.9,11.8,26.1,14.5,29.3h32.9l-19.2-32.9ZM459.4,243.9v-15.5h12.8c.6,0,3.8,4,4.1,5.2,2.3,10.2-9.8,10.6-16.9,10.3Z"/>
    </g>
  </g>
</svg>