<?xml version="1.0" encoding="UTF-8"?>
<svg id="Layer_1" xmlns="http://www.w3.org/2000/svg" version="1.1" viewBox="0 0 3181.9 500">
  <!-- Generator: Adobe Illustrator 29.0.0, SVG Export Plug-In . SVG Version: 2.1.0 Build 186)  -->
  <defs>
    <style>
      .st0 {
        fill: #fff;
      }
    </style>
  </defs>
  <g id="KDwtNB">
    <g>
      <path class="st0" d="M356,209.5H85v51.8h212.3c28.9,2.1,62.5,14,66,47.2,1.6,15,1.7,56.2-3,69.7-7.8,22.4-29.5,30-51.4,32.2H68.5c-25.9-2.4-49.5-13.2-58-39.3-.7-2.2-2.4-5.8-.2-7.2h286.4v-54.9H69.6c-21.6,0-47.4-17-52.1-38.8-3.2-14.3-2.5-53.5,1.6-67.6,8.4-29.1,39.9-34.9,66.4-36.2,71.2-3.5,143.7,1.7,214.9,1.2,23.9,3.2,49.6,17.3,55.7,42.1h0Z"/>
      <path class="st0" d="M540.2,317.3v92.9h-74.1v-244h262.1c40.5,1.7,83,13.4,86.3,60.7.9,13.8.9,37.7-3.3,50.7-9.8,30.8-42.8,37.8-71.4,39.8h-199.6,0ZM540.2,271.9h189c5.2,0,15.1-4.9,17.7-9.8,5.2-10.1,5.4-39.8-5-47.2-2.8-2-13.7-5.2-17-5.2h-184.7s0,62.3,0,62.3Z"/>
      <path class="st0" d="M1634.9,209.5h-276.3v154.3h274.7l1.2,2.2c-6.8,30.1-27.7,42.3-57.3,44.3-75.9,5.2-157.5-4-234,0-27.5-2.2-55.3-15.1-59.7-45.1,2.7-49-4-102.6-.1-151,2.3-29.3,28-43.7,54.7-46.9,73.6.6,151-4.8,224.3-1.2,22.3,1.1,48.2,5.5,62.9,23.9,4.7,5.8,7.5,12.4,9.6,19.6h0Z"/>
      <path class="st0" d="M2156.8,410.3c101.9-102.4,228.2-180.9,360.3-238.9,201.5-88.6,421-131.5,640.7-145.6l8,1.1c-93.8,7.6-187,24.7-277.8,48.7-226.6,59.9-446.5,167.6-612,334.8h-119.1,0Z"/>
      <polygon class="st0" points="1958.9 248.6 1958.9 290.9 1810.7 290.9 1810.7 363.8 2064.8 363.8 2064.8 410.3 1735.5 410.3 1735.5 248.6 1958.9 248.6"/>
      <path class="st0" d="M1059,315.2l-74.2-103.1.6-2.6,40.8-50.2,4.2-2.7,186.3,253.5h-87.3l-39.2-52.8h-226c-.4-1.9.8-2.1,1.6-3.2,10.4-13.5,25.6-26.2,37.1-39.1h156.1Z"/>
      <polygon class="st0" points="2068.9 209.5 1735.5 209.5 1735.5 166.3 2067.3 166.3 2068.9 167.8 2068.9 209.5"/>
      <path class="st0" d="M2610,410.3h-117l-102.1-74c-1.2-1.8,6.9-7.5,8.6-8.8,5.5-4.5,47.2-35.6,50.2-35.5l160.4,118.3h0Z"/>
      <polygon class="st0" points="2281.2 166.3 2365.4 227 2301.3 266.6 2165.3 166.3 2281.2 166.3"/>
    </g>
  </g>
</svg>