<?xml version="1.0" encoding="UTF-8"?>
<svg id="Layer_1" xmlns="http://www.w3.org/2000/svg" version="1.1" viewBox="0 0 445.63 61.83">
  <!-- Generator: Adobe Illustrator 29.0.0, SVG Export Plug-In . SVG Version: 2.1.0 Build 186)  -->
  <defs>
    <style>
      .st0 {
        fill: #fff;
      }
    </style>
  </defs>
  <g id="KDwtNB">
    <g>
      <path class="st0" d="M51.76,29.34H14.06v7.2h29.54c4.02.29,8.7,1.95,9.18,6.56.22,2.09.23,7.82-.42,9.69-1.08,3.11-4.11,4.17-7.15,4.48H11.77c-3.6-.33-6.89-1.84-8.07-5.47-.1-.31-.34-.81-.03-1h39.84v-7.64H11.92c-3.01,0-6.59-2.37-7.25-5.4-.44-1.99-.35-7.44.22-9.41,1.17-4.05,5.55-4.86,9.24-5.04,9.9-.48,19.99.24,29.89.17,3.33.45,6.9,2.41,7.75,5.86Z"/>
      <path class="st0" d="M77.39,44.33v12.93h-10.31V23.32h36.46c5.63.23,11.55,1.87,12,8.45.13,1.92.12,5.25-.46,7.05-1.36,4.28-5.95,5.26-9.93,5.53h-27.77ZM77.39,38.01h26.29c.73,0,2.1-.68,2.46-1.37.73-1.4.75-5.54-.69-6.57-.39-.28-1.91-.73-2.36-.73h-25.7v8.67Z"/>
      <path class="st0" d="M229.68,29.34h-38.44v21.46h38.22l.16.3c-.94,4.19-3.85,5.88-7.97,6.16-10.56.73-21.91-.55-32.55,0-3.83-.31-7.69-2.1-8.3-6.27.38-6.81-.56-14.27-.02-21.01.32-4.07,3.89-6.08,7.61-6.52,10.24.08,21-.67,31.21-.17,3.1.15,6.71.77,8.75,3.32.66.81,1.05,1.72,1.33,2.72Z"/>
      <path class="st0" d="M302.29,57.27c14.18-14.24,31.75-25.16,50.12-33.24,28.03-12.33,58.57-18.3,89.13-20.26l1.11.15c-13.05,1.06-26.01,3.44-38.65,6.77-31.52,8.33-62.11,23.32-85.14,46.58h-16.57Z"/>
      <polygon class="st0" points="274.75 34.78 274.75 40.66 254.13 40.66 254.13 50.8 289.48 50.8 289.48 57.27 243.67 57.27 243.67 34.78 274.75 34.78"/>
      <path class="st0" d="M149.56,44.04l-10.32-14.34.08-.36,5.68-6.98.58-.37,25.92,35.27h-12.15l-5.45-7.35h-31.44c-.06-.26.11-.29.22-.44,1.45-1.88,3.56-3.64,5.16-5.44h21.72Z"/>
      <polygon class="st0" points="290.06 29.34 243.67 29.34 243.67 23.32 289.84 23.32 290.06 23.54 290.06 29.34"/>
      <path class="st0" d="M365.33,57.27h-16.27l-14.21-10.29c-.17-.25.96-1.04,1.19-1.23.77-.62,6.56-4.95,6.98-4.94l22.31,16.46Z"/>
      <polygon class="st0" points="319.59 23.32 331.3 31.77 322.39 37.28 303.47 23.32 319.59 23.32"/>
    </g>
  </g>
</svg>