<?xml version="1.0" encoding="UTF-8"?>
<svg id="Layer_1" xmlns="http://www.w3.org/2000/svg" version="1.1" viewBox="0 0 2010.9 345.3">
  <!-- Generator: Adobe Illustrator 29.0.0, SVG Export Plug-In . SVG Version: 2.1.0 Build 186)  -->
  <defs>
    <style>
      .st0 {
        fill: #c6282d;
      }
    </style>
  </defs>
  <g id="t3EjdC">
    <g>
      <path class="st0" d="M1470.8,179.2l51.6-152.1c11.2-9,55.9-10,65.3,5l44.8,147.1,44.8-152.4c6.2-7,47.7-7.2,57.7-5.4,7,1.3,8.6,6.9,8.1,13.2-1.2,14.7-11.2,42.4-15.4,58.3-16.7,62.9-34.7,141.3-56.3,201.2-1.7,4.7-4.3,13.6-7.9,16.5-9.4,7.5-54,8.9-60.9-1.7l-47.6-164-5.3,6.5-47.5,157.5c-8.3,12.1-57.2,11.6-65.5-7.4-7-16-14.1-48.6-19.6-67.2-16.5-56.7-34.5-117.8-48.4-175-2.7-11-6.6-21.9-5.6-33.5,1.4-5.9,59-8.4,66,2.1l41.9,151.2Z"/>
      <path class="st0" d="M723.1,197.6c-19-2.9-40.5-21.4-43.1-41-2.4-17.9-2.8-79.4,0-96.8,3.2-20.9,30.7-37.9,51-38.4l196.6.7c17.9,4,18,35.4,10.6,48.6s-9.3,8.6-10,8.6h-173.4l-3.9,3.9v53.9c2.6-.9,5.7,2.6,6.6,2.6h141.9c18.6,0,40.6,22.8,43.1,41s2.8,79.6,0,96.8c-3.8,24.3-29,36.5-51,38.4-63.4,5.5-135-3.8-199.3-.7-24.6-5.5-17.1-57.3-.6-57.3h176.1l3.9-3.9v-52.6l-3.9-3.9h-144.5Z"/>
      <path class="st0" d="M1947.7,315.8c-17.4-3.7-15.7-55.4-22.8-69.1s-2.3-4.5-6-4.5h-110c-6.1,1.4-10.3,63.1-23.9,71.2-6.6,3.9-54.1,4.4-58.7-.8l-1.7-6.8,69.7-274.8c3.7-5.7,15.4-8.7,22.1-9.5,22.9-2.6,74.1-2.2,97.4-.1,19.3,1.7,20.7,7.2,26.2,23.8,26.4,79.6,38.8,170.9,63.7,251.7,3,4.8-1.3,19-5.9,19-12.9,0-39.2,2.3-49.9,0ZM1825.5,179.2h78.8l-20.8-90.2c-3.7-6.1-25-5.3-31.8-3.1-10.6,5.1-21.7,78.6-26.3,93.3Z"/>
      <path class="st0" d="M1126.5,79.3v222.1c0,19.8-68.3,19.8-68.3,0V79.3h-69.6c-18,0-22.5-53.6-2-57.1h211.7c23,4.2,20.1,57.1-2.1,57.1h-69.6Z"/>
      <path class="st0" d="M1312.3,27.5c3.9,3.9,5.6,13.3,6.1,18.8,7.2,79.1-5.5,169.3-.3,249.6-2.7,29.4-69.4,28.8-70.8-2.4l.2-252.2c.9-25.4,54.1-24.5,64.8-13.9Z"/>
      <path class="st0" d="M413.7,137.8c5,5,4.8,54.4.8,60.7-1.6,2.6-4.6,3.1-7.3,3.7l-259.9-1.8c-8.9-6.3-12.7-62.9,5.5-65.8l247.1-.2,13.7,3.4Z"/>
      <path class="st0" d="M13.5,315.8c-12.1-3.5-11.5-56.6-4-64.4l14.4-4,246.6.7c6.6,1.5,10.1,5.4,11,12.2.7,5.6-.3,40.9-1.3,46.3-.6,2.9-4.5,9.3-6.5,9.3H13.5Z"/>
      <path class="st0" d="M547,21.5c2.6.7,5.9,6.2,6.5,9.3,1.3,6.9,1.3,42.9,0,49.9s-10,9.2-17,9.3l-248.7-1.3c-7.5-1.6-7.2-9.6-7.8-15.8-.7-8.3-2.4-51.4,6.7-51.4h260.2Z"/>
    </g>
  </g>
</svg>