<?xml version="1.0" encoding="UTF-8"?>
<svg id="Layer_1" xmlns="http://www.w3.org/2000/svg" version="1.1" viewBox="0 0 988.8 296.1">
  <!-- Generator: Adobe Illustrator 29.0.0, SVG Export Plug-In . SVG Version: 2.1.0 Build 186)  -->
  <defs>
    <style>
      .st0 {
        fill: #fff;
      }
    </style>
  </defs>
  <g id="k8Dqmr">
    <g>
      <path class="st0" d="M377.7,128.5c-.4-.4-.3-7-3.3-9.7-9.6-8.7-37.7-1.8-26.6,10.1,6.3,6.8,33.9,8.7,44.6,14.4,19.7,10.4,17.4,37.9-.3,48.9-23.4,14.5-76.3,8.2-75.3-27.8h25c1.2,13.9,13,17.6,25.4,15.9,12.1-1.7,17.1-14.1,3.6-20.4-20.4-9.4-61.3-5.9-50.5-42.4,8.5-28.8,73.4-28.7,82,3,.4,1.4,1.9,8,0,8-3.4,0-23.6.9-24.5,0Z"/>
      <path class="st0" d="M452.6,101.6v18h-16v50.4c0,9.1,9.3,7.3,16,7.5v19h-23.5c-5.3,0-15.8-6.3-16.3-12.7l-.3-80.7,1-3,23-24.4v24.5c0,.1,1.4,1.5,1.5,1.5h14.5Z"/>
      <path class="st0" d="M515.6,98.6v25.9c-8.1-1.7-20.1.1-24.8,7.6s-3.2,6.8-3.2,7.8v53.9c0,.1-1.4,1.5-1.5,1.5h-23c-.1,0-1.5-1.4-1.5-1.5v-93.3h24v15c3.4-2.2,4.7-6.1,7.5-9,6-6.1,14.1-8.4,22.5-8Z"/>
      <path class="st0" d="M634.5,101.6h16v18h-16v50.4c0,.5,1.5,5.6,2,6,2.4,2.2,10.6,1.1,11,1.5s1,5.5,1.9,7.6c1.4,3.5,3.4,7.3,6.2,9.8.1.3-2.3,1.5-2.5,1.5h-26c-5.5,0-15.4-7.2-15.4-13.6l.4-82.2,22.5-25v25.9Z"/>
      <path class="st0" d="M954.8,116.9c-11.5-11.5-43.9-7.3-39.2,12.7,4.3,18.2,54,10.3,58.3,35.6,7.5,43.8-74.3,45.1-72.7,1.3,2.6.5,9.2-.9,11.1.4s2.8,8.7,4.1,10.9c10.7,17.5,51.1,13.4,45.6-10.6-4.2-18.1-55.5-7.5-58.6-36.2-3.9-35.7,53.4-41.4,65.9-11.9.8,1.8,3.7,10,2,11-12.7,2.4-9.2-.5-12.8-8.2s-2.7-4.1-3.6-4.9Z"/>
      <path class="st0" d="M817.3,130.5c-2.3-.5-9.5.7-10.9-.1s-2.7-9.3-5.1-12.3c-8.3-10.4-37-10.6-39.7,4.2-1.6,8.9.9,13.1,8.8,16.7,16,7.4,48.3,6.1,49.9,30,1.3,19.2-15.4,28.3-32.4,29.5s-38.9-8.7-41.5-32c2.1.4,11-.6,11.9,0s1.9,7.5,2.9,9.6c6.5,13.2,26.5,15.4,38.5,9.1,9.6-5,12.2-18.6,2.4-25-13.9-9-48.9-5.6-52.4-26.5-7.6-44.5,67.7-44.4,67.7-3.3Z"/>
      <path class="st0" d="M860.3,181.4l29-76.3c2.3-3.1,9.3-1,12.9-1.6l-44.9,118.3-12,.4,9.5-26-35.4-92.7c3,.5,10.7-1.2,12.5,1l28.5,76.8Z"/>
      <path class="st0" d="M243.6,99.7L123.5.9,4,101.1l55.9,46.9L4,194.9l120.2,100.2,119.4-98.8v-2.7l-54.7-45.6,54.7-45.6c.4-.7.4-2,0-2.7ZM67.4,155.5c3.5-.1,36.1,29.8,41.5,33.9H27c5.1-3.8,37.8-33.8,40.4-33.9ZM118.9,276.7L27,199.8h91.9v76.8ZM118.9,181.3L27,104.5h91.9v76.8ZM118.9,94.5H27L118.9,17.7v76.8ZM128.9,275.6v-76.8h91.9l-91.9,76.8ZM220.8,188.3h-91.9v-76.8l91.9,76.8ZM180.4,140.4l-40.5-34.9h80.9l-40.5,34.9ZM128.9,94V17.2l91.9,76.8h-91.9Z"/>
      <path class="st0" d="M740.5,187.8c-3.3-6.4-.2-48.6-1.1-59.8-1.2-16.2-7.5-23.8-23.2-27.7-24.9-6.1-58.3-.5-57.7,31.2h24c-1.1-16.4,30.5-17.2,31.8-4.3,1.1,11.6-23.8,10.8-32,12.5-13,2.8-25.2,9.6-26.8,24.1-4.1,37.5,36.3,43.9,58.5,21.5,1.9,0,1.4,10,4,10h26.5c1.2-4.1-2.6-5.1-3.9-7.6ZM713.4,164.9c0,.3-2.3,5.4-2.8,6.2-6.3,10.1-30.3,13.9-30.3-3.2,0-15.5,23.1-11.9,33.1-17.5v14.5Z"/>
      <path class="st0" d="M601.2,188.2c-5.2-10.5.1-52.1-1.8-67.1-2.8-21-31.6-24-48.4-22.5-19.3,1.7-31.1,13.6-32.5,32.9h25c.6,0-.1-7,5-10.4,8.3-5.5,31.3-3.1,25.3,11.2-2.7,6.4-38.4,5.1-49.8,16.2-12.3,11.9-11.1,35.8,3.8,45.1,15.6,9.8,35.1,3.6,47.6-8.2l2,10h27c1.6-5.2-2-4.7-3.3-7.2ZM572.7,166.5c-5.7,12.9-33.5,15.8-31.9-2,1.2-14,24.3-11.9,33.7-16.7-.1,6.3.8,12.7-1.8,18.6Z"/>
    </g>
  </g>
  <path class="st0" d="M983.7,109.1c0,3.3-2.6,6-6,6s-6.1-2.6-6.1-6,2.7-5.9,6.1-5.9,6,2.6,6,5.9ZM973,109.1c0,2.6,1.9,4.7,4.6,4.7s4.5-2.1,4.5-4.7-1.9-4.8-4.5-4.8-4.6,2.1-4.6,4.7ZM976.7,112.1h-1.4v-5.9c.5-.1,1.3-.2,2.3-.2s1.6.2,2.1.4c.3.3.6.7.6,1.3s-.5,1.2-1.2,1.4h0c.6.3.9.7,1.1,1.5.2.9.3,1.3.4,1.5h-1.5c-.2-.2-.3-.8-.5-1.4-.1-.6-.5-.9-1.2-.9h-.6v2.4ZM976.7,108.8h.6c.8,0,1.4-.3,1.4-.9s-.4-.9-1.3-.9-.6,0-.8,0v1.7Z"/>
</svg>