<?xml version="1.0" encoding="UTF-8"?>
<svg id="Layer_1" xmlns="http://www.w3.org/2000/svg" version="1.1" viewBox="0 0 500 500">
  <!-- Generator: Adobe Illustrator 29.0.0, SVG Export Plug-In . SVG Version: 2.1.0 Build 186)  -->
  <defs>
    <style>
      .st0 {
        fill: #e32439;
      }

      .st1 {
        fill: #e31f38;
      }
    </style>
  </defs>
  <g id="Z8J6YA">
    <g>
      <path class="st1" d="M410.2,63.89c.89,1.02-5.35,8.38-6.45,9.56-10.58,11.44-25.44,20.19-39.68,26.28-1.06.14-.55-.15-.72-.7-.89-2.87-.96-5.76-2.29-8.71-5.3-11.78-21.33-14.32-32.83-15.44-9.41-.91-18.99-.94-28.43-.95l-49.22,274.79-49.17-274.52c-.8-1.18-25.12.33-28.49.68-12.17,1.26-28.02,3.88-32.83,16.87-.87,2.35-.97,5.14-1.77,7.31-.2.54.27.79-.75.66-1.68-.21-8.8-3.96-10.78-5-10.69-5.63-23.7-14.72-31.3-24.14-.79-.97-4.79-5.85-4.06-6.69,12.68-5.15,25.35-10.33,38.46-14.35,23.49-7.2,53.86-13.79,78.39-14.8,1.92-.08,6.13-.44,7.42.7l35.11,42.78,35.37-43c1.01-.84,5.56-.54,7.16-.48,29.51,1.19,66.78,10.07,94.51,20.19,7.55,2.75,14.81,6.2,22.34,8.97Z"/>
      <path class="st1" d="M425.97,34.74c-1.86,4.86-3.94,9.78-6.44,14.34-.65,1.19-2.88,5.71-3.81,5.73-21.69-9.3-44.14-16.87-67.16-22.23-63.11-14.71-134.35-14.57-197.39.48-22.51,5.37-44.33,12.95-65.66,21.79l-9.35-19.42c-.04-.61.32-.82.75-1.12,1.05-.73,5.94-2.29,7.59-2.92,35.45-13.63,76.02-23.35,113.81-27.65,77.34-8.8,155.63,2.46,227.67,31.01Z"/>
      <path class="st1" d="M278.29,448.6c-.02,3.18-7.28,9.56-9.8,9.56h-35.13v10.04h44.92v30.11h-56.87c-.29-3.43,9.27-10.04,11.71-10.04h35.13v-10.51h-44.45v-29.15h54.48Z"/>
      <path class="st0" d="M113.89,448.13c.83,3.72-6.86,10.51-9.8,10.51h-16.49v39.67h-10.04v-39.67h-16.49c-3.09,0-10.36-6.82-9.8-10.51h62.61Z"/>
      <polygon class="st1" points="434.57 468.2 434.57 498.31 425.01 498.31 425.01 478.24 389.65 478.24 389.65 498.31 380.09 498.31 380.09 468.2 434.57 468.2"/>
      <path class="st1" d="M315.57,448.6v40.14h43.49c.33,2.55-6.02,9.56-7.89,9.56h-45.16v-49.7h9.56Z"/>
      <path class="st0" d="M195.61,448.13c-1.34,6.05-5.91,10.07-12.17,10.53-11.34.84-23.82-.58-35.27-.13-4.26-.72-9.86-5.89-9.91-10.4h57.35Z"/>
      <path class="st0" d="M195.61,488.27c-.59,4.07-4.79,9.21-8.96,9.92-12.33-.7-26.51,1.33-38.62.14-4.47-.44-9.48-5.53-9.77-10.06h57.35Z"/>
      <path class="st0" d="M195.61,468.2c-1.35,4.89-4.99,8.66-9.91,9.92-11.76-.46-24.59,1.01-36.23.13-5.43-.41-10.21-4.69-11.21-10.06h57.35Z"/>
      <path class="st1" d="M436,448.6c-1.64,5.13-5.1,9.16-10.73,9.58-12.1.91-25.43-.62-37.66-.13-3.88-.66-8.38-5.55-8.96-9.44h57.35Z"/>
    </g>
  </g>
</svg>