<?xml version="1.0" encoding="UTF-8"?>
<svg id="Layer_1" xmlns="http://www.w3.org/2000/svg" version="1.1" viewBox="0 0 500 147.52">
  <!-- Generator: Adobe Illustrator 29.0.0, SVG Export Plug-In . SVG Version: 2.1.0 Build 186)  -->
  <defs>
    <style>
      .st0 {
        fill: #0a509f;
      }
    </style>
  </defs>
  <g id="pF0Bqi">
    <g>
      <path class="st0" d="M203.23,111.42c-15.28,16.58-46.93,17.3-63.9,2.9-19.48-16.53-18.34-52.66,3.22-66.94,14.68-9.73,40.3-9.67,54.85.27,20.04,13.7,21.9,46.34,5.83,63.77ZM183.06,100.12c15.19-13.71,6.82-42.21-14.84-40.81-14.2.92-22,16.1-18.83,29.07,3.67,15.01,21.48,22.74,33.67,11.73Z"/>
      <path class="st0" d="M262.67,42.65c9.9,1.06,18.36,9.61,20.45,19.1,2.68,12.17-2.12,21.2-11.89,27.95-.42.29-1.04.15-.9.7l21.26,31.62h-24.89l-15.95-23.6-1.94-2.49v25.7s-.38.4-.4.4h-21.39V42.65h35.65ZM248.81,77.89c3.85-.47,8.5-.07,11.82-2.58,3.53-2.66,3.9-9.58.11-12.18-1.5-1.03-5.71-2.2-7.49-2.2h-4.44v16.95Z"/>
      <path class="st0" d="M298.05,122.02l27.04-79.11,24.23-.28,27.84,79.39h-21.26l-5.01-14.22-26.34-.06-5.24,14.28h-21.26ZM329.8,91.35h15.88l-8.2-22.87-7.67,22.87Z"/>
      <path class="st0" d="M120.74,42.65v21.53h-22.33v57.85h-23.68v-57.85h-23.27s-.4-.38-.4-.4v-20.72s.38-.4.4-.4h69.29Z"/>
      <path class="st0" d="M394.78,42.65l13.46,20.45.63-.45,13.09-20h25.43c-.68,1.48-1.71,2.88-2.63,4.23-8.48,12.49-17.19,24.82-25.62,37.34v37.8h-21.26v-37.8c-8.59-12.32-17.22-24.65-25.62-37.07-.93-1.38-2.21-2.94-2.63-4.5h25.16Z"/>
      <path class="st0" d="M499.31,23l-.33.89-28.87,40.28h-26.77c-.08-.43.04-.62.26-.95.72-1.12,1.78-2.48,2.58-3.6,8.83-12.3,18.07-24.3,26.89-36.61h26.23Z"/>
      <path class="st0" d="M56.7,23l-.25.96c-9.64,13.41-19.1,26.95-28.94,40.21H1l.31-1.17c9.65-13.35,19.64-26.55,29.02-40h26.37Z"/>
    </g>
  </g>
</svg>