<?xml version="1.0" encoding="UTF-8"?>
<svg id="Layer_1" xmlns="http://www.w3.org/2000/svg" version="1.1" viewBox="0 0 1352.3 500">
  <!-- Generator: Adobe Illustrator 29.0.0, SVG Export Plug-In . SVG Version: 2.1.0 Build 186)  -->
  <defs>
    <style>
      .st0 {
        fill: #ec2429;
      }
    </style>
  </defs>
  <g id="_x34_QdTn3">
    <g>
      <path class="st0" d="M402.6,27.5l24.1,2.7c72.3,11.1,125.7,56.6,122.4,134.1-.8,17.4-5.2,40.4-12.2,56.3-.3.8-2.6,5.5-2.9,5.7s-1.1.2-1-.3c1.9-7.3,4.1-14.6,5.5-22,22.3-120.4-117.4-179.8-216.3-156.6l-5.1,1.4c47.1-.3,99,10.3,135,42.3,41.4,36.8,50.2,88.7,38.1,141.4-2.9,12.8-7,26.1-13.4,37.5-.6-.4-.2-1.6-.1-2.2,1.1-7.8,4.9-17,6.5-25.2,7.6-39-1.5-78-26.1-109.1-42-53.1-120.9-73.7-186.3-66.5-12,1.3-16.3,3.5-26.6,9.3-44.7,25-91.1,71.3-100.2,123.5-15.2,87.2,44.3,144.2,124.8,159.8,54.3,10.6,114.5,8.7,160.5-25.1l20.8-16.3c.4.4-1.7,2.8-2.1,3.4-9.4,12-24.6,26.5-37.4,34.5,0-.7.2-1.3-.7-1-2,.7-4.7,3.1-6.7,4.2-70.1,38.4-177.5,54.4-246,5-50-36-59.4-95.9-41-152.4,17.2-52.7,58.6-94.1,102.2-126.2l18.8-12.6c-12.7,2.3-25.5,6.4-37.5,11-64.5,24.7-136.8,84.1-147.7,155.9-10.9,71.6,24.6,128.4,89.4,156.5,80.5,35,178.7,21.1,250.6-27.3,6.4-4.3,12.1-9.1,18.6-13.3-.2,1.4-3.6,4.1-4.9,5.2-54.4,45.2-106,74.9-177.6,85.6l-28.7,3.2h-28.5l-30.7-3.8c-59.3-10.4-112-47.1-124.3-108.7-1.1-5.5-1.5-11.2-2.7-16.7.4-8.2-.5-16.8,0-24.9,7.5-113.5,132.2-211.9,235.4-238.2,9.3-2.4,19.5-3.4,28.5-5.8s16-6.7,23.4-9.3c23.4-8.2,49.8-13.9,74.5-15h28Z"/>
      <path class="st0" d="M1341.6,288.7v18.2l-87.7,1.3v16.4h84.4s3.3,1,3.3,1v18.2l-2.8,1.1h-84.9s0,16.6,0,16.6h84.4s3.3,1,3.3,1v18.2l-2.8,1.1-106.7-.3c-1.1-.9-1.6-2.2-1.6-3.6l.3-88.6.8-1.3,107.2-.3,2.8,1.1Z"/>
      <path class="st0" d="M805.9,344.7h-42.8c-.6,0-1.2-2.1-1.3-2.8-.3-2.2-.3-14.9.4-16.2s.5-.9,1-1.1l65.2.4.9,2.9-.3,52.7c-.7.8-1.6.9-2.6,1-3.5.4-15.3.5-18.6-.1s-1.4-5-2.2-5.1c-4.9,1.3-9.7,2.7-14.7,3.5-31.9,5.1-86.5,2.9-91.5-38.5-3.7-30.7,15.1-47.3,43.5-52,25.7-4.3,67-2.8,84.7,19.3s3.6,4.3,1.9,6-13.8,6-15.7,6.6c-5.2,1.7-5.8-2.4-9.5-5.3-13.3-10.5-53.3-10.4-68.3-4-18.1,7.7-18.6,36.5-1,44.8s51.2,6.6,64.6,0c.9-.5,6.4-4,6.4-4.5v-7.5Z"/>
      <path class="st0" d="M856.8,380.3c0,.2-.8.9-1,1-1.2.6-16.6.5-19,.3s-2.8,0-3.1-1.5l.2-91.3.7-.9c22.3.2,45.5-1.2,67.8-.3,16.5.7,51.7,3.7,54.6,24.8,3,21.8-19.5,28.8-36.7,31l40,33.7c2.3,2.6,1.6,4.2-1.8,4.5s-24.5.5-26.6-.4l-43.5-36.5h-31.4v35.6ZM856.8,324.5h56.3c4.6-.6,20.6-1.8,21-8.1.4-5.5-14.5-7.6-18.4-8s-10.4-.3-15.6-.5c-12.1-.5-29.9-1.9-41.5-.6-.5,0-1.8.2-1.8.8v16.4Z"/>
      <path class="st0" d="M1106.3,287.7c20.7.6,42.1-1,62.7-.1s57.3,10.5,59.4,41.8c2.8,40.6-28.9,50.9-63.1,52.2-19.6.8-39.4-.4-58.9-.3l-1.3-1.8-.3-88.6c0-1.1.3-2.9,1.4-3.3ZM1128.3,361.4c19.1-1.5,43.3,3.2,61.4-3.2,21.7-7.7,21.7-39.6,0-47-18.5-6.3-42-1.9-61.4-3.3v53.5Z"/>
      <path class="st0" d="M1044,288.3l58.8,91c0,1.6-.8,2.1-2.3,2.3-6.2.8-14.3-.6-20.7-.1-2-.6-8.6-12.7-10.5-14.9l-1-.5h-68.6s-1.5.5-1.5.5c-1.9,2.2-8.5,14.4-10.5,14.9-3.4-.3-20.8,1-22.3-.5s2.3-6.4,3.3-8.1c17.6-28.6,37.3-56,55-84.7.4-.5.9-.5,1.5-.6,3.7-.4,12.3-.3,16.1,0s1.9,0,2.7.7ZM1012,345.8h43.6l-22.1-33.7-21.5,33.7Z"/>
      <path class="st0" d="M589.9,288.2l-.2,3-62.1,90.2-.7.2c-5.7-.6-12.7.7-18.2,0s-1.3-.1-1.8-.8c-18.7-28.1-38.7-55.3-57.3-83.4-1.2-1.8-7.1-9.1-3.2-9.8,7.8.3,15.8-.6,23.4.5,13.4,18.9,26.1,38.3,39.2,57.3s5.2,8.2,7.2,10.4.5,1,1.2.9l47.5-68.8c3-.2,24.1-.8,24.8.3Z"/>
      <path class="st0" d="M593.9,287.6h20.8c0,0,.8.7.8.8v91.9c0,0-.8.9-1,1-1.1.5-16.2.5-18.4.3s-2.9-.2-3.3-1.4v-91.1c.1,0,1.2-1.5,1.2-1.5Z"/>
      <path class="st0" d="M690.7,343.2c-1,.2-1.8.5-2.8.5-19.9,1.6-41.7-1.2-61.8,0-2.1-.1-2.2-1.1-2.3-2.8-.3-2.6-.4-11.2,0-13.5s.5-1.4,1.4-1.7l64.5.2c.2.1,1,.9,1,1v16.4Z"/>
    </g>
  </g>
</svg>