<?xml version="1.0" encoding="UTF-8"?>
<svg id="Layer_1" xmlns="http://www.w3.org/2000/svg" version="1.1" viewBox="0 0 500 121.67">
  <!-- Generator: Adobe Illustrator 29.0.0, SVG Export Plug-In . SVG Version: 2.1.0 Build 186)  -->
  <defs>
    <style>
      .st0 {
        fill: #3b7fc2;
      }

      .st1 {
        fill: #fff;
      }

      .st2 {
        fill: #ee2b2c;
      }
    </style>
  </defs>
  <path class="st2" d="M1.39,10.88c8.51-.21,17.73-.21,26.32,0,.27-.13.94,0,1.22.17l41.36,41.38c.47.05,5.86-5.57,6.56-6.44L43.83,12.98c-.86-1.02-.63-2.46.87-2.1,8.58-.21,17.89-.21,26.56,0l1.11.61c6.63,6.38,13.23,12.81,19.78,19.3l19.96-19.79c.25-.12.53-.22.79-.11,8.58-.21,17.89-.21,26.56,0,1.07.15,1.15,1.25.36,1.92l-68.54,68.56-.85.37L.43,12.32v-.96c.07-.51.51-.64.96-.48Z"/>
  <path class="st1" d="M442.38,108.75l.48.28v5.44s13.84.09,13.84.09l1.24.41v.24h-15.79c.18-1.92-.24-4.25,0-6.11.02-.19.01-.36.25-.35Z"/>
  <path class="st1" d="M484.49,114.97v.24h-7.66c-.01-.2.19-.36.24-.48l.63-.36c2.07.17,4.15.2,6.24.1l.55.5Z"/>
  <path class="st0" d="M135.08,31.97c.35-.1.65-.06.92.19l13.28,13.28.24.72-21.3,21.55,34.42,34.51c.19.62-.1.97-.67,1.16h-26.82s-21.4-21.18-21.4-21.18l-21.41,21.2-.65-.08-13.62-13.7.08-.65,56.95-56.99Z"/>
  <polygon class="st1" points="373.71 10.88 381.25 38.88 381.96 37.2 389.5 10.88 396.68 10.88 404.93 39.12 412.71 10.88 421.32 10.88 409.63 51.9 401.01 52.01 393.21 24.52 385.42 52.03 376.85 52.01 365.09 10.88 373.71 10.88"/>
  <path class="st1" d="M204.78,10.88l7.54,28.24,8.26-28.24h7.18l8.26,28.24,7.54-28.24h8.85l-11.75,41.13c-1.26-.13-8.24.35-8.71-.21l-7.89-27.04-8.13,27.3c-1.23-.22-7.66.33-8.15-.25l-11.84-40.92h8.85Z"/>
  <path class="st1" d="M300.73,62.09v16.27c4.33-5.99,14.89-5.52,18.23,1.27.25.51,1.15,3,1.15,3.39v20.46h-7.9v-17.35c0-.14-.55-1.7-.67-1.96-1.96-4.06-8.18-3.71-10.06.31-.19.41-.75,2.03-.75,2.36v16.63h-7.9v-41.4h7.9Z"/>
  <path class="st2" d="M156.44,10.88h26.56c1.01.46.8,1.24.12,1.92l-25.35,25.37-.72.24-14.02-14.02.24-.72,12.45-12.45c.2-.25.43-.3.72-.34Z"/>
  <path class="st1" d="M230.62,62.09v7.42h-11.72v33.62s-.33.36-.36.36h-8.26v-33.98h-11.96v-7.42h32.3Z"/>
  <path class="st1" d="M353.37,103.48h-7.9v-16.63c0-.55-.59-2.38-.91-2.92-2.23-3.77-8.04-3.38-9.9.49-.13.26-.68,1.82-.68,1.96v17.11h-7.78s-.36-.33-.36-.36v-28.24s.33-.36.36-.36h7.78v3.83l2.17-2.25c4.69-3.22,12.37-2.39,15.49,2.65.52.84,1.72,3.63,1.72,4.5v20.22Z"/>
  <path class="st1" d="M477.08,114.73c1.41-3.82,2.57-7.75,4.01-11.56l-10.11-27.68-.12-.96h7.78l6.22,18.43,6.22-18.43h7.78c.06.73-.26,1.37-.48,2.04-4.2,12.89-9.75,25.46-13.88,38.4-2.43-.15-5.06.31-7.42-.24Z"/>
  <path class="st1" d="M288.28,85.54h-7.78c-.91-2.65-2.82-4.46-5.74-4.56-8.4-.31-9.32,13.39-2.47,15.64,3.36,1.1,7.17-.31,8.09-3.9h8.14c-1.37,9.59-12.45,13.41-20.74,9.85-10.89-4.68-11.21-21.57-.65-26.81,8.02-3.97,20.68-.33,21.15,9.78Z"/>
  <polygon class="st1" points="314.61 10.88 314.86 11.69 314.84 52.04 306.71 52.04 306.71 10.88 314.61 10.88"/>
  <rect class="st1" x="392.37" y="62.09" width="7.9" height="41.4"/>
  <path class="st1" d="M293.07,23.32v4.31l1.2-1.79c.75-1.05,2.91-2.52,4.18-2.52h4.79s.36.33.36.36v5.98s-.33.36-.36.36h-5.74c-.78,0-2.63,1.49-3.1,2.17-.4.59-1.33,3.07-1.33,3.69v16.15h-8.14v-28.71h8.14Z"/>
  <rect class="st1" x="424.91" y="23.32" width="8.14" height="28.71"/>
  <path class="st1" d="M433.05,10.88c.55,2.64.09,5.62.24,8.37h-8.61v-8.37h8.37Z"/>
  <path class="st1" d="M459.61,74.53v2.87c-4.37-4.74-13.29-3.96-17.59.47-5.09,5.24-5.17,16.86-.12,22.15,4.35,4.56,13.1,5.48,17.71.83v4.43c0,1.09-2.02,3.42-3.29,3.41l-13.94.06v6.22c5.09-.25,10.5.33,15.55,0,3.13-.21,6.29-1.58,8.1-4.23.36-.52,1.48-3.04,1.48-3.55v-32.66h-7.9ZM453.26,96.85c-9.16.31-9.73-15.02-1.12-15.97,10.18-1.13,10.7,15.65,1.12,15.97Z"/>
  <path class="st1" d="M340.93,10.88v15.31c-5.28-5.55-15.34-3.95-19.24,2.41-4.02,6.54-3.07,18.12,4.1,22.19,4.7,2.67,11.35,2.53,15.14-1.63v2.87h7.9V10.88h-7.9ZM335.72,45.77c-10.68,1.56-10.79-14.35-2.99-15.67,10.55-1.79,11.07,14.49,2.99,15.67Z"/>
  <path class="st1" d="M458.65,10.88v15.31c-4.46-5.13-13.69-4.06-17.95.83-4.51,5.18-4.71,15.44-.47,20.82,4.25,5.37,13.65,6.68,18.42,1.32v2.87h7.9V10.88h-7.9ZM453.69,45.51c-10.78,1.67-10.9-14.52-2.99-15.67,10.62-1.55,10.73,14.47,2.99,15.67Z"/>
  <path class="st1" d="M499.57,39.24v-3.83c0-6.74-6.41-12.07-12.81-12.56-20.99-1.59-21.04,31.24.73,29.68,5.79-.42,11.22-4.35,12.07-10.3h-7.54c-.23,0-1.17,2.52-2.99,3.23-4.79,1.86-9.6-.74-10.29-5.86h20.46s.36-.33.36-.36ZM478.99,34.25c.48-7.48,12.08-7.44,12.44,0h-12.44Z"/>
  <path class="st1" d="M247.37,93.67c-.09,0-.37,1.09-.72,1.55-1.49,1.97-4.22,2.29-6.52,1.97-3.33-.46-5.29-3.21-5.68-6.4h20.58c1.06-6.97-2.44-14.32-9.62-16.1-11.96-2.96-20.85,6.16-18.26,18.02,3.12,14.28,24.79,15.3,28.12.95h-7.9ZM247.13,85.67h-12.44c.37-7.7,12.07-7.66,12.44,0Z"/>
  <path class="st1" d="M369.83,74.36c-9.78,1.17-14.74,11.69-11.31,20.51,5.12,13.17,26.24,11.67,29-2.58,2.22-11.45-6.51-19.27-17.69-17.93ZM372.86,97.04c-9.31.31-9.9-15.05-1.12-15.97,10.27-1.08,10.74,15.65,1.12,15.97Z"/>
  <path class="st1" d="M424.73,74.84c-11.77-3.27-22.23,5.66-19.56,17.88,2.5,11.42,18.01,14.91,25.88,6.85,7.66-7.83,4.37-21.77-6.33-24.73ZM420.23,97.03c-9.35.31-10.06-15.03-1.12-15.97,10.26-1.08,10.74,15.65,1.12,15.97Z"/>
  <path class="st1" d="M263.83,22.92c-9.68.88-15.24,9.73-12.94,19.02,3.52,14.21,26.05,14.15,29.38-.19,2.56-11-5.23-19.85-16.44-18.83ZM267.05,45.52c-10.88,1.59-11.07-14.41-2.99-15.67,10.72-1.68,11.31,14.46,2.99,15.67Z"/>
</svg>