<?xml version="1.0" encoding="UTF-8"?>
<svg id="Layer_1" xmlns="http://www.w3.org/2000/svg" version="1.1" viewBox="0 0 722.82 500">
  <!-- Generator: Adobe Illustrator 29.0.0, SVG Export Plug-In . SVG Version: 2.1.0 Build 186)  -->
  <defs>
    <style>
      .st0 {
        fill: #fbc8b3;
      }

      .st1 {
        fill: #ed2124;
      }

      .st2 {
        fill: #fffcfb;
      }
    </style>
  </defs>
  <g id="lCMg1C">
    <g>
      <path class="st1" d="M333.84,2.43c16.92-.14,33.91-.11,50.83,0,48.24.33,96.46,1.51,144.48,3.86,30.34,1.49,61.05,2.55,91.06,7.28,49.81,7.85,74.81,33.56,84.17,82.7,8.36,43.91,10.14,93.5,10.67,138.25.12,10.29.12,20.66,0,30.95-.54,46.48-2.15,101.23-12.42,146.45-11.39,50.14-43.05,69.34-91.79,75.63-62.49,8.06-131.59,8.72-194.68,9.46-9.29.11-18.61-.11-27.91,0-.93,0-2.46-.35-3.03.56h-46.41c-.57-.92-2.1-.55-3.03-.56-9.48-.1-18.98.12-28.46,0-47.96-.57-97.16-1.75-145.02-4.98-59.73-4.03-121.69-5.53-139.9-74.48-10.84-41.04-12.62-96.16-13.42-138.82-.15-7.73.69-15.64-1.1-23.21v-11.6c1.74-7.59.95-15.47,1.1-23.21.86-43.03,2.61-98.72,13.86-140.04C41.66,11.49,107.72,11.23,167.27,7.41c55.05-3.53,111.39-4.54,166.57-4.98ZM291.3,143.9v211.65l183.42-106.09-183.42-105.56Z"/>
      <path class="st0" d="M384.67,1.88v.55c-16.92-.11-33.91-.14-50.83,0v-.55h50.83Z"/>
      <path class="st0" d="M338.81,497.57h-31.49v-.55c9.48.11,18.98-.11,28.46,0,.93,0,2.46-.35,3.03.56Z"/>
      <path class="st0" d="M715.61,265.47h-.55c.12-10.29.12-20.66,0-30.95h.55v30.95Z"/>
      <path class="st0" d="M416.16,497.02v.55h-30.94c.57-.92,2.1-.55,3.03-.56,9.3-.1,18.62.12,27.91,0Z"/>
      <polygon class="st2" points="291.3 143.9 474.72 249.45 291.3 355.55 291.3 143.9"/>
    </g>
  </g>
</svg>